<?xml version="1.0" encoding="utf-8"?>
<!-- Generator: Adobe Illustrator 28.2.0, SVG Export Plug-In . SVG Version: 6.00 Build 0)  -->
<svg version="1.1" id="Слой_1" xmlns="http://www.w3.org/2000/svg" xmlns:xlink="http://www.w3.org/1999/xlink" x="0px" y="0px"
	 viewBox="0 0 1080 875.19" enable-background="new 0 0 1080 875.19" xml:space="preserve">
<g>
	<path d="M1042.1,766.47H237.8v-5.29h804.3c1.46,0,2.64,1.18,2.64,2.64l0,0C1044.74,765.29,1043.56,766.47,1042.1,766.47z"/>
	<path d="M157.24,766.47h-87.8c-1.46,0-2.64-1.18-2.64-2.64l0,0c0-1.46,1.18-2.64,2.64-2.64h87.8V766.47z"/>
	<path fill="#AF8900" d="M240.45,749.34V669.5c0-3.03-0.01-6.17-0.02-9.4c-0.13-42.9-0.3-101.65,19.71-166.27
		c22.99-74.22,70.47-164.91,125.26-202.08c1.18-0.8,1.53-2.38,0.78-3.6l0,0c-0.78-1.25-2.42-1.62-3.66-0.84
		c-15.1,9.55-102.81,67.65-183.72,176.81C141.06,358.95,40.51,280.59,39.49,279.81h-0.01c-2.42-1.87-5.53,1.25-3.65,3.66l0,0
		c0.88,1.12,87.99,113.19,99.34,163.58l1.6,7.11c10.12,44.89,12.53,55.55,14.28,83.64c1.16,18.56,2.33,130.95,3.04,211.54H69.44
		c-1.46,0-2.64,1.18-2.64,2.64l0,0c0,1.46,1.18,2.64,2.64,2.64h84.71c0.38,44.04,0.61,77.38,0.62,78.32l0.01,1.51l1.32,0.74
		c1.01,0.57,21.01,11.55,56.01,11.54c7.95,0,16.67-0.56,26.12-1.95l2.23-0.32v-89.84h801.65c1.46,0,2.64-1.18,2.64-2.64l0,0
		c0-1.46-1.18-2.64-2.64-2.64L240.45,749.34L240.45,749.34z M155.66,529.03c-1.78-22.69-4.68-35.54-13.81-76.02l-1.6-7.11
		c-8.9-39.51-61.04-113.14-86.48-147.39c31.62,27.52,98.95,91.45,141.63,170.25C181.81,487.4,168.43,507.48,155.66,529.03z
		 M235.22,660.12c0.01,3.22,0.02,6.35,0.02,9.38v170.45c-42.06,5.63-69.16-5.7-75.28-8.63c-0.16-21.95-1.91-261.37-3.66-293.06
		c64.03-110.68,144.65-183.49,191.79-220.04c-40.81,45.39-74.61,114.93-92.92,174.07C234.93,557.67,235.1,616.88,235.22,660.12z"/>
	<path fill="#FFC700" d="M195.41,468.76c-13.6,18.64-26.97,38.72-39.74,60.27c-1.78-22.69-4.68-35.54-13.81-76.02l-1.6-7.11
		c-8.9-39.51-61.04-113.14-86.48-147.39C85.4,326.03,152.72,389.96,195.41,468.76z"/>
	
		<linearGradient id="SVGID_1_" gradientUnits="userSpaceOnUse" x1="156.31" y1="298.1415" x2="348.1" y2="298.1415" gradientTransform="matrix(1 0 0 -1 0 878)">
		<stop  offset="0" style="stop-color:#FFFF9D"/>
		<stop  offset="0.0387" style="stop-color:#FFF786"/>
		<stop  offset="0.1271" style="stop-color:#FFE656"/>
		<stop  offset="0.2113" style="stop-color:#FFD831"/>
		<stop  offset="0.289" style="stop-color:#FFCF16"/>
		<stop  offset="0.3578" style="stop-color:#FFC906"/>
		<stop  offset="0.4108" style="stop-color:#FFC700"/>
	</linearGradient>
	<path fill="url(#SVGID_1_)" d="M255.18,492.29c-20.25,65.38-20.08,124.59-19.95,167.83c0.01,3.22,0.02,6.35,0.02,9.38v170.45
		c-42.06,5.63-69.16-5.7-75.28-8.63c-0.16-21.95-1.91-261.37-3.66-293.06c64.03-110.68,144.65-183.49,191.79-220.04
		C307.29,363.61,273.49,433.15,255.18,492.29z"/>
	
		<linearGradient id="SVGID_00000098223300692089719940000006658827697790395833_" gradientUnits="userSpaceOnUse" x1="212.005" y1="574.1772" x2="212.005" y2="849.5532" gradientTransform="matrix(1 0 0 -1 0 878)">
		<stop  offset="0" style="stop-color:#FFE500;stop-opacity:0.5"/>
		<stop  offset="1" style="stop-color:#FFC700"/>
	</linearGradient>
	<path fill="url(#SVGID_00000098223300692089719940000006658827697790395833_)" d="M356.82,151.62c-5.59-3.86-16.96-5.17-27.85-0.23
		c-12.07,5.47-21.36,2.37-24.11-1.58c-1.8-2.59-2.18-8.46,0.01-12.46c1.81-3.3,5.02-5.06,9.08-4.87c3.81,0.15,7.06,1.01,9.93,1.77
		c4.17,1.1,7.77,2.04,12.36,0.77c7.75-2.18,17.56-11.79,17.95-19.91c0.41-8.33-1.74-14.08-5.75-15.39
		c-5.97-1.94-18.38-9.01-23.49-15.21c-3.2-3.89-6.96-12.11-10.27-19.37c-1.96-4.27-3.8-8.31-5.02-10.29
		c-2.87-4.64-10.92-6.76-16.75-6.09c-5.45,0.63-12.14,8.55-13.77,16.29c-0.35,1.64-0.66,3.45-0.98,5.32
		c-1.38,8.14-2.95,17.36-8.73,20.37c-4.19,2.17-10.92,2.58-15.14-0.95c-2.48-2.08-4.92-6.19-2.48-13.98
		c2.34-7.47,5.34-9.96,7.98-12.17c2.37-1.97,4.41-3.67,6.03-9.88c2.37-9.1,2.07-16.74-0.83-20.96c-1.65-2.39-4.1-3.74-7.5-4.12
		c-6.76-0.75-16.24,0.45-25.41,1.6c-7.39,0.93-14.34,1.85-20.21,1.78c0,0,0,0-0.01,0h-0.2c-5.88,0.06-12.75-0.85-20.04-1.78
		c-9.02-1.15-18.35-2.35-25.1-1.6c-3.39,0.38-5.84,1.72-7.49,4.12c-2.9,4.22-3.21,11.86-0.84,20.96c1.62,6.21,3.67,7.91,6.04,9.88
		c2.64,2.21,5.63,4.7,7.97,12.17c2.45,7.79,0.01,11.9-2.47,13.98c-4.22,3.53-10.95,3.13-15.14,0.95
		c-5.78-3.01-7.35-12.23-8.74-20.37c-0.31-1.87-0.62-3.68-0.97-5.32c-1.63-7.74-8.32-15.66-13.77-16.29
		c-5.83-0.67-13.89,1.45-16.75,6.09c-1.22,1.98-3.06,6.02-5.02,10.29c-3.32,7.26-7.07,15.48-10.27,19.37
		c-5.11,6.2-17.53,13.27-23.49,15.21c-4.01,1.31-6.16,7.06-5.75,15.39c0.39,8.12,10.2,17.73,17.94,19.91
		c4.59,1.27,8.19,0.33,12.37-0.77c2.87-0.76,6.12-1.62,9.93-1.77c4.04-0.18,7.27,1.57,9.07,4.87c2.19,4,1.82,9.87,0.02,12.46
		c-2.75,3.95-12.05,7.05-24.11,1.58c-10.9-4.95-22.26-3.62-27.86,0.23c-5.11,3.53-4.94,19.73-3.73,24.09
		c0.58,2.06,2.39,6.06,4.15,9.92c1.63,3.61,3.33,7.33,4.47,10.42c1.99,5.36,1.3,12.16,0.68,18.16c-0.2,2.03-0.41,4.01-0.5,5.86
		c-0.16,3.39,0.53,15.01,16.33,21.97c8.13,3.59,10.16,1.3,16.89-6.29c3.48-3.92,7.8-8.8,14.39-14.32c9.66-8.12,16.43-5.62,18.9-4.17
		c4.21,2.47,6.47,7.73,5.5,12.78c-1.06,5.51-5.51,9.38-11.88,10.35c-11.31,1.72-19.11,7.6-22.56,17.01
		c-0.34,1.13,0.24,6.49,3.59,11.74c2.64,4.15,7.8,9.39,17.33,10.79c15.48,2.27,25.96,10.46,33.61,16.44c2.81,2.2,5.24,4.1,7.29,5.2
		c7.33,3.92,22.84,2.51,28.12-2.57c5.39-5.18,4.34-16.67,2.27-21.37c-1.38-3.13-5.83-17.57-0.54-25.69c1.54-2.37,4.62-5.2,10.51-5.2
		c5.88,0,8.96,2.83,10.51,5.2c5.29,8.12,0.84,22.56-0.54,25.69c-2.08,4.7-3.12,16.19,2.27,21.37c5.28,5.08,20.79,6.49,28.12,2.57
		c2.04-1.1,4.47-3,7.29-5.2c7.65-5.98,18.13-14.17,33.61-16.44c9.53-1.4,14.68-6.64,17.33-10.79c3.34-5.25,3.92-10.61,3.58-11.76
		c-2.4-6.55-8.26-14.82-22.55-16.99c-6.38-0.97-10.82-4.84-11.88-10.35c-0.97-5.05,1.29-10.31,5.5-12.78
		c2.46-1.45,9.24-3.94,18.9,4.17c6.58,5.52,10.91,10.4,14.38,14.32c6.74,7.59,8.77,9.88,16.9,6.29
		c15.8-6.96,16.49-18.58,16.32-21.97c-0.08-1.85-0.29-3.83-0.5-5.86c-0.61-6-1.31-12.8,0.69-18.16c1.14-3.08,2.83-6.81,4.47-10.41
		c1.75-3.87,3.57-7.87,4.14-9.93C361.76,171.35,361.93,155.15,356.82,151.62z M225.1,122.85l1.08-0.65c5.15-3.07,7.4-4.63,6.56-9.36
		c-0.53-2.97-2.65-6.88-4.71-10.66c-2.64-4.86-5.13-9.46-5.23-13.44c-0.02-0.82-0.12-1.95-0.25-3.3
		c-0.89-9.64-2.75-29.69,13.36-37.37c1.3-0.62,2.86-0.07,3.48,1.23c0.61,1.3,0.06,2.86-1.24,3.47
		c-12.82,6.11-11.25,23.07-10.41,32.19c0.14,1.5,0.25,2.75,0.27,3.65c0.07,2.73,2.37,6.97,4.6,11.08c2.26,4.15,4.58,8.44,5.26,12.24
		c1.51,8.48-4.09,11.81-9.03,14.75l-1.05,0.63c-4.61,2.78-4.25,4.25-3.1,7.04c0.27,0.64,1.44,1.74,3.88,2.71
		c3.62,1.45,7.78,1.75,9.25,1.1c0.48-0.21,0.59-1.53,0.72-3.51c0.18-2.88,0.42-6.82,3.03-10.59c5.47-7.9,16.18-8.08,19.34-7.95
		c3.34,0.13,21.71-3.48,29.72-8.05c6.83-3.9,6.53-10.67,6.51-10.96c-0.08-1.43,1.01-2.66,2.44-2.76c1.4-0.1,2.66,0.98,2.76,2.41
		c0.03,0.42,0.62,10.28-9.13,15.84c-9,5.13-28.11,8.99-32.52,8.72c-1.75-0.06-10.78-0.14-14.83,5.72c-1.79,2.57-1.96,5.3-2.12,7.94
		c-0.19,3.02-0.41,6.45-3.82,7.95c-1.23,0.55-2.76,0.78-4.39,0.78c-3,0-6.35-0.78-8.9-1.8c-2.44-0.98-5.58-2.73-6.75-5.56
		C217.43,130.46,218.95,126.55,225.1,122.85z M202.66,157.35c1.38,0.66,2.56,1.68,3.4,2.96l1.99,3c0.81,1.24,0.92,2.78,0.28,4.12
		c-0.65,1.34-1.91,2.23-3.39,2.37l-3.58,0.33c-0.26,0.03-0.53,0.04-0.79,0.04c-1.26,0-2.51-0.28-3.65-0.83
		c-1.6-0.76-2.81-2.11-3.4-3.79c-0.59-1.67-0.49-3.48,0.27-5.08C195.39,157.16,199.37,155.76,202.66,157.35z M202.15,148.35
		c0.59-1.67,1.79-3.02,3.4-3.78c1.6-0.77,3.4-0.87,5.08-0.28c1.67,0.59,3.02,1.8,3.79,3.4c0.66,1.38,0.93,2.92,0.79,4.44l-0.34,3.58
		c-0.14,1.48-1.02,2.75-2.36,3.39c-0.58,0.28-1.2,0.42-1.82,0.42c-0.8,0-1.6-0.24-2.3-0.7l-3-1.98c-1.28-0.85-2.31-2.03-2.97-3.4
		C201.65,151.83,201.56,150.03,202.15,148.35z M196.93,173.96c1.08-1.08,2.44-1.85,3.92-2.22l3.49-0.87
		c1.44-0.36,2.93,0.05,3.98,1.1s1.46,2.54,1.11,3.98l-0.88,3.49c-0.37,1.49-1.13,2.84-2.22,3.93c-1.29,1.3-3,1.94-4.7,1.94
		s-3.41-0.64-4.7-1.94c-1.26-1.26-1.95-2.93-1.95-4.7C194.99,176.89,195.68,175.22,196.93,173.96z M210.22,180.1l1.85-3.08
		c0.77-1.27,2.11-2.03,3.59-2.03c0,0,0,0,0.01,0c1.48,0,2.82,0.76,3.59,2.03l1.85,3.08c0.79,1.32,1.2,2.82,1.2,4.35
		c0,3.67-2.98,6.65-6.64,6.65c-3.67,0-6.66-2.98-6.66-6.65C209.01,182.92,209.43,181.42,210.22,180.1z M221.99,175.95
		c-0.36-1.44,0.05-2.93,1.1-3.98s2.54-1.45,3.98-1.1l3.49,0.87c1.48,0.37,2.84,1.14,3.92,2.22c1.26,1.26,1.95,2.93,1.95,4.71
		c0,1.77-0.69,3.44-1.95,4.7c-1.29,1.3-3,1.94-4.7,1.94s-3.4-0.64-4.7-1.94c-1.08-1.09-1.85-2.44-2.22-3.93L221.99,175.95z
		 M234.41,169.34c-1.14,0.55-2.39,0.83-3.65,0.83c-0.26,0-0.53-0.01-0.79-0.04l-3.58-0.33c-1.48-0.15-2.75-1.03-3.39-2.37
		s-0.53-2.88,0.28-4.12l1.98-3c0.85-1.28,2.03-2.3,3.41-2.96c1.6-0.77,3.4-0.87,5.08-0.28c1.67,0.59,3.02,1.8,3.79,3.4
		c0.76,1.6,0.86,3.41,0.27,5.08C237.22,167.23,236.01,168.57,234.41,169.34z M225.14,144.72c3.46,1.22,5.28,5.03,4.06,8.48
		c-0.51,1.45-1.4,2.73-2.58,3.7l-2.77,2.3c-0.77,0.63-1.7,0.96-2.66,0.96c-0.47,0-0.94-0.08-1.4-0.24c-1.4-0.49-2.42-1.66-2.72-3.11
		l-0.72-3.52c-0.31-1.51-0.2-3.06,0.31-4.51C217.87,145.33,221.68,143.5,225.14,144.72z M131.26,82.53
		c0.18-1.43,1.48-2.43,2.91-2.26c1.43,0.17,2.44,1.48,2.26,2.9c-1.76,14.1,13.95,22.22,21.51,26.12c1.34,0.69,2.45,1.27,3.23,1.74
		c2.32,1.41,7.15,1.75,11.81,2.09c4.71,0.34,9.57,0.69,13.14,2.16c7.95,3.3,7.74,9.81,7.56,15.55l-0.04,1.23
		c-0.14,5.38,1.29,5.87,4.27,6.4c0.68,0.11,2.24-0.27,4.37-1.8c3.18-2.27,5.66-5.62,5.91-7.2c0.07-0.52-0.97-1.33-2.57-2.5
		c-2.33-1.7-5.52-4.03-7.29-8.26c-3.71-8.87,1.91-18,3.72-20.58c1.93-2.75,8.76-20.16,9.23-29.37c0.4-7.86-5.47-11.25-5.72-11.39
		c-1.25-0.7-1.71-2.28-1.02-3.54c0.7-1.25,2.26-1.71,3.52-1.03c0.37,0.2,9,5.02,8.42,16.22c-0.52,10.35-7.64,28.5-10.16,32.1
		c-1.01,1.45-5.93,9-3.18,15.58c1.21,2.89,3.42,4.5,5.55,6.06c2.44,1.79,5.21,3.81,4.64,7.5c-0.58,3.79-4.56,8.17-8.02,10.65
		c-1.86,1.33-4.51,2.79-7.15,2.79c-0.39,0-0.78-0.03-1.17-0.1c-6.26-1.12-8.74-4.5-8.55-11.67l0.03-1.25
		c0.19-6,0.09-8.73-4.34-10.57c-2.79-1.16-7.23-1.48-11.52-1.79c-5.53-0.39-10.74-0.77-14.15-2.83c-0.7-0.42-1.7-0.94-2.92-1.56
		C146.95,109.47,129.06,100.23,131.26,82.53z M145.49,267.77h-0.07c-1.41,0-2.57-1.12-2.61-2.53c-0.04-1.44,1.1-2.64,2.54-2.68
		c14.2-0.38,19.86-17.13,22.58-25.18c0.48-1.43,0.88-2.62,1.23-3.46c1.04-2.51,0.66-7.33,0.29-11.99
		c-0.38-4.71-0.77-9.57,0.16-13.32c2.06-8.36,8.53-9.13,14.23-9.82l1.22-0.14c5.34-0.68,5.61-2.16,5.69-5.18
		c0.02-0.7-0.61-2.17-2.44-4.06c-2.73-2.79-6.41-4.74-8.01-4.75c-0.26,0-0.55,0.29-0.89,0.8c-0.35,0.51-0.73,1.24-1.19,2.12
		c-1.34,2.56-3.16,6.06-7.07,8.44c-8.2,5-18.07,0.82-20.91-0.58c-3-1.48-21.24-5.62-30.42-4.7c-7.94,0.8-10.37,7.3-10.4,7.36
		c-0.48,1.35-1.98,2.06-3.33,1.57c-1.35-0.49-2.05-1.99-1.57-3.34c0.12-0.32,2.45-6.52,9.35-9.42c-0.73,0.05-1.47,0.11-2.2,0.11
		c-6.24,0-12.52-1.85-17.62-7.44c-0.97-1.06-0.9-2.71,0.17-3.68c1.06-0.97,2.71-0.9,3.68,0.17c9.57,10.49,25.34,4.05,33.81,0.6
		c1.4-0.57,2.57-1.04,3.43-1.33c2.58-0.85,5.98-4.3,9.26-7.63c3.31-3.36,6.74-6.83,10.18-8.59c7.67-3.9,12.48,0.48,16.73,4.35
		l0.91,0.82c4,3.6,5.3,2.84,7.64,0.92c0.53-0.44,1.24-1.89,1.47-4.5c0.33-3.89-0.6-7.95-1.65-9.17c-0.34-0.39-1.63-0.12-3.56,0.34
		c-2.81,0.66-6.65,1.57-11.02,0.17c-9.15-2.93-12.44-13.13-13.23-16.19c-0.85-3.25-9.66-19.76-16.35-26.09
		c-5.8-5.47-12.3-3.07-12.37-3.04c-1.34,0.5-2.85-0.16-3.36-1.5c-0.52-1.35,0.16-2.85,1.5-3.37c0.39-0.15,9.66-3.58,17.81,4.13
		c7.52,7.11,16.71,24.31,17.81,28.56c0.44,1.72,3,10.36,9.78,12.54c2.99,0.95,5.65,0.33,8.22-0.29c2.95-0.69,6.28-1.48,8.72,1.34
		c2.5,2.9,3.25,8.78,2.89,13.01c-0.23,2.62-0.99,6.14-3.35,8.08c-4.92,4.05-9.1,3.73-14.44-1.07l-0.92-0.84
		c-4.44-4.04-6.59-5.73-10.87-3.56c-2.69,1.38-5.81,4.55-8.83,7.61c-3.89,3.94-7.56,7.67-11.34,8.92c-0.78,0.25-1.82,0.69-3.09,1.2
		c-2.89,1.18-6.8,2.75-11.15,3.92c10.64-0.06,26.47,3.61,30.02,5.36c1.59,0.79,9.81,4.51,15.88,0.81c2.68-1.64,3.94-4.07,5.17-6.41
		c1.39-2.68,2.98-5.72,6.7-5.72c0,0,0,0,0.01,0c3.83,0.01,8.77,3.28,11.73,6.33c1.83,1.88,4,4.76,3.92,7.82
		c-0.16,6.36-3.13,9.32-10.25,10.22l-1.25,0.15c-5.96,0.71-8.64,1.22-9.79,5.89c-0.72,2.93-0.37,7.36-0.03,11.65
		c0.44,5.52,0.86,10.74-0.67,14.41c-0.31,0.76-0.67,1.83-1.11,3.12C169.78,248.21,163.33,267.3,145.49,267.77z M251.36,283.41
		c-0.51,0.69-1.3,1.06-2.1,1.06c-0.54,0-1.08-0.16-1.54-0.5c-1.16-0.85-1.41-2.49-0.56-3.65c8.4-11.45-1.01-25.64-6.06-33.27
		c-0.84-1.26-1.53-2.31-1.98-3.09c-1.35-2.37-5.39-5.02-9.3-7.58c-3.95-2.59-8.03-5.27-10.42-8.3c-5.35-6.75-1.99-12.33,0.97-17.26
		l0.62-1.05c2.75-4.63,1.74-5.75-0.6-7.67c-0.54-0.43-2.09-0.84-4.7-0.55c-3.88,0.44-7.68,2.15-8.67,3.42
		c-0.32,0.41,0.2,1.62,1.03,3.43c1.2,2.62,2.85,6.2,2.34,10.76c-1.07,9.55-10.43,14.78-13.27,16.16
		c-3.02,1.47-17.47,13.35-22.36,21.16c-4.23,6.76-0.59,12.66-0.56,12.72c0.77,1.22,0.41,2.83-0.8,3.6c-1.22,0.77-2.83,0.41-3.6-0.81
		c-0.22-0.35-5.41-8.76,0.54-18.27c5.5-8.78,20.55-21.17,24.51-23.09c1.59-0.77,9.57-4.98,10.36-12.05
		c0.35-3.12-0.79-5.61-1.89-8.01c-1.27-2.75-2.7-5.86-0.41-8.81c2.36-3.02,7.98-4.92,12.2-5.39c2.6-0.3,6.21-0.24,8.58,1.7
		c4.92,4.03,5.44,8.19,1.79,14.36l-0.65,1.07c-3.09,5.15-4.33,7.59-1.35,11.35c1.88,2.37,5.6,4.81,9.2,7.17
		c4.63,3.04,9,5.9,10.97,9.36c0.4,0.71,1.03,1.66,1.79,2.79C250.79,252.24,261.91,269.02,251.36,283.41z M329.99,190.21
		c-0.23,0.26-4.81,5.35-12.52,5.35c-0.76,0-1.55-0.06-2.36-0.17c4.7,2.34,8.78,6.04,11.14,11.94c0.53,1.34-0.12,2.85-1.45,3.39
		c-1.33,0.54-2.85-0.12-3.39-1.45c-5.27-13.19-22.29-12.73-31.44-12.46c-1.51,0.04-2.76,0.08-3.67,0.03
		c-2.71-0.09-7.11,1.92-11.36,3.88c-4.28,1.98-8.71,4.03-12.55,4.46c-8.55,0.94-11.51-4.83-14.13-9.95l-0.56-1.09
		c-2.48-4.78-3.97-4.52-6.83-3.55c-0.66,0.22-1.83,1.33-2.96,3.7c-1.68,3.52-2.24,7.65-1.68,9.16c0.18,0.49,1.48,0.69,3.45,0.94
		c2.86,0.36,6.78,0.87,10.37,3.71c7.54,5.96,7.03,16.67,6.7,19.81c-0.36,3.34,2.08,21.89,6.12,30.17c3.45,7.07,10.23,7.2,10.52,7.21
		c1.43,0.01,2.6,1.17,2.6,2.6c-0.01,1.43-1.15,2.6-2.58,2.61c-0.01,0-0.01,0-0.02,0c-0.65,0-10.35-0.18-15.2-10.13
		c-4.54-9.31-7.09-28.64-6.62-33.01c0.18-1.76,0.83-10.75-4.75-15.17c-2.46-1.95-5.17-2.3-7.8-2.63c-3-0.38-6.4-0.82-7.68-4.32
		c-1.33-3.6,0.04-9.36,1.87-13.2c1.13-2.37,3.08-5.4,5.98-6.38c6.03-2.05,9.83-0.29,13.13,6.08l0.58,1.12
		c2.73,5.34,4.15,7.69,8.91,7.14c3-0.33,7.04-2.2,10.95-4.01c5.02-2.32,9.74-4.51,13.75-4.35c0.82,0.03,1.95-0.01,3.32-0.04
		c4.14-0.12,10.22-0.28,16.32,0.87c-9.41-4.32-20.49-12.05-22.88-14.7c-1.19-1.31-7.47-7.78-14.48-6.56
		c-3.09,0.54-5.16,2.33-7.16,4.06c-2.28,1.99-4.87,4.24-8.33,2.86c-3.57-1.41-6.96-6.27-8.6-10.19c-1.02-2.42-1.98-5.89-0.78-8.71
		c2.48-5.85,6.32-7.53,13.28-5.74l1.21,0.31c5.81,1.52,8.49,2.03,11.28-1.89c1.74-2.46,3.04-6.72,4.3-10.83
		c1.61-5.3,3.13-10.3,5.9-13.16c0.57-0.59,1.3-1.46,2.18-2.5c6.24-7.4,19.23-22.8,36-16.69c1.35,0.49,2.05,1.98,1.56,3.33
		c-0.49,1.36-1.99,2.05-3.34,1.56c-13.35-4.85-24.34,8.17-30.24,15.16c-0.97,1.15-1.79,2.11-2.42,2.76
		c-1.89,1.96-3.3,6.58-4.66,11.05c-1.38,4.52-2.8,9.19-5.04,12.34c-4.98,7.02-11.28,5.37-16.84,3.91l-1.18-0.31
		c-5.21-1.33-6.01-0.05-7.19,2.74c-0.27,0.64-0.23,2.24,0.78,4.66c1.51,3.6,4.22,6.77,5.71,7.36c0.49,0.18,1.51-0.64,3.01-1.95
		c2.17-1.89,5.16-4.48,9.67-5.27c9.48-1.64,17.12,5.86,19.24,8.21c2.25,2.48,17.71,13.02,26.58,15.52
		c7.57,2.14,12.19-2.83,12.38-3.05c0.96-1.06,2.61-1.15,3.67-0.2C330.83,187.51,330.93,189.14,329.99,190.21z"/>
	<path fill="#AF8900" d="M214.41,147.69c-0.77-1.6-2.12-2.81-3.79-3.4c-1.68-0.59-3.48-0.49-5.08,0.28
		c-1.61,0.76-2.81,2.11-3.4,3.78c-0.59,1.68-0.5,3.48,0.27,5.09c0.66,1.37,1.69,2.55,2.97,3.4l3,1.98c0.7,0.46,1.5,0.7,2.3,0.7
		c0.62,0,1.24-0.14,1.82-0.42c1.34-0.64,2.22-1.91,2.36-3.39l0.34-3.58C215.35,150.61,215.08,149.07,214.41,147.69z M212.61,151.89
		l-0.33,3.58c-0.06,0.57-0.38,1.03-0.9,1.28c-0.51,0.25-1.08,0.2-1.56-0.11l-3-1.98c-0.88-0.58-1.59-1.4-2.05-2.35
		c-0.47-0.97-0.53-2.07-0.17-3.09c0.36-1.02,1.1-1.84,2.07-2.3c0.56-0.27,1.15-0.4,1.75-0.4c0.45,0,0.9,0.07,1.34,0.23
		c1.02,0.36,1.84,1.09,2.3,2.06C212.51,149.77,212.7,150.83,212.61,151.89z"/>
	<path fill="#AF8900" d="M208.06,163.31l-1.99-3c-0.84-1.28-2.02-2.3-3.4-2.96c-3.3-1.59-7.28-0.19-8.87,3.12
		c-0.76,1.6-0.86,3.41-0.27,5.08c0.59,1.68,1.8,3.03,3.4,3.79c1.14,0.55,2.39,0.83,3.65,0.83c0.26,0,0.53-0.01,0.79-0.04l3.58-0.33
		c1.48-0.14,2.74-1.03,3.39-2.37C208.97,166.09,208.87,164.55,208.06,163.31z M205.99,166.31c-0.25,0.51-0.72,0.84-1.29,0.89
		l-3.57,0.34c-1.06,0.1-2.12-0.09-3.08-0.55c-0.97-0.46-1.71-1.28-2.06-2.3c-0.36-1.02-0.3-2.12,0.16-3.09
		c0.7-1.45,2.15-2.3,3.66-2.3c0.58,0,1.18,0.13,1.74,0.4c0.95,0.45,1.77,1.16,2.35,2.05l1.98,3
		C206.18,165.22,206.22,165.79,205.99,166.31z"/>
	<path fill="#AF8900" d="M208.33,171.97c-1.05-1.05-2.54-1.46-3.98-1.1l-3.49,0.87c-1.48,0.37-2.84,1.14-3.92,2.22
		c-1.26,1.26-1.95,2.93-1.95,4.71c0,1.77,0.69,3.44,1.95,4.7c1.29,1.3,3,1.94,4.7,1.94s3.41-0.64,4.7-1.94
		c1.09-1.09,1.85-2.44,2.22-3.93l0.88-3.49C209.79,174.51,209.37,173.02,208.33,171.97z M206.91,175.32l-0.87,3.49
		c-0.26,1.03-0.79,1.97-1.54,2.72c-1.58,1.57-4.14,1.57-5.72,0c-0.76-0.77-1.19-1.79-1.19-2.86c0-1.09,0.43-2.1,1.19-2.86
		c0.75-0.75,1.69-1.29,2.71-1.54l3.49-0.87c0.14-0.03,0.27-0.05,0.4-0.05c0.41,0,0.8,0.16,1.11,0.47
		C206.89,174.22,207.05,174.77,206.91,175.32z"/>
	<path fill="#AF8900" d="M221.12,180.1l-1.85-3.08c-0.77-1.27-2.11-2.03-3.59-2.03c-0.01,0-0.01,0-0.01,0
		c-1.48,0-2.82,0.76-3.59,2.03l-1.85,3.08c-0.79,1.32-1.21,2.82-1.21,4.35c0,3.67,2.99,6.65,6.66,6.65c3.66,0,6.64-2.98,6.64-6.65
		C222.32,182.92,221.91,181.42,221.12,180.1z M215.68,188.49c-2.23,0-4.05-1.81-4.05-4.04c0-1.06,0.29-2.1,0.83-3.01l1.86-3.08
		c0.58-0.98,2.13-0.98,2.71,0l1.86,3.08c0.54,0.91,0.83,1.95,0.83,3.01C219.72,186.68,217.9,188.49,215.68,188.49z"/>
	<path fill="#AF8900" d="M234.49,173.96c-1.08-1.08-2.44-1.85-3.92-2.22l-3.49-0.87c-1.44-0.35-2.93,0.05-3.98,1.1
		s-1.46,2.54-1.1,3.98l0.87,3.49c0.37,1.49,1.14,2.84,2.22,3.93c1.3,1.3,3,1.94,4.7,1.94s3.41-0.64,4.7-1.94
		c1.26-1.26,1.95-2.93,1.95-4.7C236.43,176.89,235.74,175.22,234.49,173.96z M232.65,181.53c-1.57,1.58-4.14,1.57-5.72,0
		c-0.75-0.75-1.28-1.69-1.53-2.72l-0.87-3.49c-0.14-0.55,0.01-1.1,0.41-1.51c0.31-0.3,0.7-0.46,1.11-0.46c0.13,0,0.26,0.02,0.4,0.05
		l3.49,0.87c1.02,0.25,1.96,0.79,2.71,1.54c0.77,0.76,1.19,1.77,1.19,2.86C233.83,179.74,233.41,180.76,232.65,181.53z"/>
	<path fill="#AF8900" d="M237.55,160.47c-0.77-1.6-2.12-2.81-3.79-3.4c-1.68-0.59-3.48-0.49-5.08,0.28
		c-1.38,0.66-2.56,1.68-3.41,2.96l-1.98,3c-0.81,1.24-0.92,2.78-0.28,4.12s1.91,2.22,3.39,2.37l3.58,0.33
		c0.26,0.03,0.53,0.04,0.79,0.04c1.26,0,2.51-0.28,3.65-0.83c1.6-0.77,2.81-2.11,3.4-3.79
		C238.41,163.88,238.31,162.07,237.55,160.47z M235.36,164.69c-0.36,1.02-1.09,1.84-2.06,2.3c-0.96,0.46-2.02,0.65-3.07,0.55
		l-3.58-0.34c-0.57-0.05-1.04-0.38-1.29-0.89c-0.24-0.52-0.2-1.09,0.11-1.56l1.98-3c0.58-0.89,1.4-1.6,2.35-2.05
		c0.56-0.27,1.15-0.4,1.74-0.4c0.46,0,0.91,0.07,1.35,0.23c1.02,0.36,1.84,1.09,2.31,2.07
		C235.66,162.57,235.72,163.67,235.36,164.69z"/>
	<path fill="#AF8900" d="M225.14,144.72c-3.46-1.22-7.26,0.61-8.48,4.06c-0.51,1.45-0.62,3-0.31,4.51l0.72,3.52
		c0.3,1.45,1.32,2.62,2.72,3.11c0.46,0.16,0.93,0.24,1.4,0.24c0.96,0,1.89-0.33,2.66-0.96l2.77-2.3c1.18-0.97,2.07-2.25,2.58-3.7
		C230.41,149.75,228.6,145.94,225.14,144.72z M226.74,152.34c-0.36,1-0.97,1.88-1.79,2.56l-2.77,2.29c-0.44,0.36-1,0.46-1.54,0.27
		s-0.91-0.62-1.03-1.18l-0.72-3.52c-0.21-1.03-0.14-2.11,0.22-3.11c0.58-1.66,2.15-2.7,3.82-2.7c0.44,0,0.89,0.07,1.33,0.23
		C226.37,147.92,227.49,150.23,226.74,152.34z"/>
	<path fill="#AF8900" d="M293.2,112.59c-9,5.13-28.11,8.99-32.52,8.72c-1.75-0.06-10.78-0.14-14.83,5.72
		c-1.79,2.57-1.96,5.3-2.12,7.94c-0.19,3.02-0.41,6.45-3.82,7.95c-1.23,0.55-2.76,0.78-4.39,0.78c-3,0-6.35-0.78-8.9-1.8
		c-2.44-0.98-5.58-2.73-6.75-5.56c-2.44-5.88-0.92-9.79,5.22-13.49l1.08-0.65c5.15-3.07,7.4-4.63,6.56-9.36
		c-0.53-2.97-2.65-6.88-4.71-10.66c-2.64-4.86-5.13-9.46-5.23-13.44c-0.02-0.82-0.12-1.95-0.25-3.3
		c-0.89-9.64-2.75-29.69,13.36-37.37c1.3-0.62,2.86-0.07,3.48,1.23c0.61,1.3,0.06,2.86-1.24,3.47
		c-12.82,6.11-11.25,23.07-10.41,32.19c0.14,1.5,0.25,2.75,0.27,3.65c0.07,2.73,2.37,6.97,4.6,11.08c2.26,4.15,4.58,8.44,5.26,12.24
		c1.51,8.48-4.09,11.81-9.03,14.75l-1.05,0.63c-4.61,2.78-4.25,4.25-3.1,7.04c0.27,0.64,1.44,1.74,3.88,2.71
		c3.62,1.45,7.78,1.75,9.25,1.1c0.48-0.21,0.59-1.53,0.72-3.51c0.18-2.88,0.42-6.82,3.03-10.59c5.47-7.9,16.18-8.08,19.34-7.95
		c3.34,0.13,21.71-3.48,29.72-8.05c6.83-3.9,6.53-10.67,6.51-10.96c-0.08-1.43,1.01-2.66,2.44-2.76c1.4-0.1,2.66,0.98,2.76,2.41
		C302.37,97.17,302.95,107.03,293.2,112.59z"/>
	<path fill="#AF8900" d="M206.33,101.11c-1.01,1.45-5.93,9-3.18,15.58c1.21,2.89,3.42,4.5,5.55,6.06c2.44,1.79,5.21,3.81,4.64,7.5
		c-0.58,3.79-4.56,8.17-8.02,10.65c-1.86,1.33-4.51,2.79-7.15,2.79c-0.39,0-0.78-0.03-1.17-0.1c-6.26-1.12-8.74-4.5-8.55-11.67
		l0.03-1.25c0.19-6,0.09-8.73-4.34-10.57c-2.79-1.16-7.23-1.48-11.52-1.79c-5.53-0.39-10.74-0.77-14.15-2.83
		c-0.7-0.42-1.7-0.94-2.92-1.56c-8.6-4.45-26.49-13.69-24.28-31.39c0.18-1.43,1.48-2.43,2.91-2.26c1.43,0.17,2.44,1.48,2.26,2.9
		c-1.76,14.1,13.95,22.22,21.51,26.12c1.34,0.69,2.45,1.27,3.23,1.74c2.32,1.41,7.15,1.75,11.81,2.09
		c4.71,0.34,9.57,0.69,13.14,2.16c7.95,3.3,7.74,9.81,7.56,15.55l-0.04,1.23c-0.14,5.38,1.29,5.87,4.27,6.4
		c0.68,0.11,2.24-0.27,4.37-1.8c3.18-2.27,5.66-5.62,5.91-7.2c0.07-0.52-0.97-1.33-2.57-2.5c-2.33-1.7-5.52-4.03-7.29-8.26
		c-3.71-8.87,1.91-18,3.72-20.58c1.93-2.75,8.76-20.16,9.23-29.37c0.4-7.86-5.47-11.25-5.72-11.39c-1.25-0.7-1.71-2.28-1.02-3.54
		c0.7-1.25,2.26-1.71,3.52-1.03c0.37,0.2,9,5.02,8.42,16.22C215.97,79.36,208.85,97.51,206.33,101.11z"/>
	<path fill="#AF8900" d="M195.97,193.6c-0.16,6.36-3.13,9.32-10.25,10.22l-1.25,0.15c-5.96,0.71-8.64,1.22-9.79,5.89
		c-0.72,2.93-0.37,7.36-0.03,11.65c0.44,5.52,0.86,10.74-0.67,14.41c-0.31,0.76-0.67,1.83-1.11,3.12
		c-3.09,9.17-9.53,28.26-27.37,28.73h-0.07c-1.41,0-2.57-1.12-2.61-2.53c-0.04-1.44,1.1-2.64,2.54-2.68
		c14.2-0.38,19.86-17.13,22.58-25.18c0.48-1.43,0.88-2.62,1.23-3.46c1.04-2.51,0.66-7.33,0.29-11.99
		c-0.38-4.71-0.77-9.57,0.16-13.32c2.06-8.36,8.53-9.13,14.23-9.82l1.22-0.14c5.34-0.68,5.61-2.16,5.69-5.18
		c0.02-0.7-0.61-2.17-2.44-4.06c-2.73-2.79-6.41-4.74-8.01-4.75c-0.26,0-0.55,0.29-0.89,0.8c-0.35,0.51-0.73,1.24-1.19,2.12
		c-1.34,2.56-3.16,6.06-7.07,8.44c-8.2,5-18.07,0.82-20.91-0.58c-3-1.48-21.24-5.62-30.42-4.7c-7.94,0.8-10.37,7.3-10.4,7.36
		c-0.48,1.35-1.98,2.06-3.33,1.57c-1.35-0.49-2.05-1.99-1.57-3.34c0.12-0.32,2.45-6.52,9.35-9.42c-0.73,0.05-1.47,0.11-2.2,0.11
		c-6.24,0-12.52-1.85-17.62-7.44c-0.97-1.06-0.9-2.71,0.17-3.68c1.06-0.97,2.71-0.9,3.68,0.17c9.57,10.49,25.34,4.05,33.81,0.6
		c1.4-0.57,2.57-1.04,3.43-1.33c2.58-0.85,5.98-4.3,9.26-7.63c3.31-3.36,6.74-6.83,10.18-8.59c7.67-3.9,12.48,0.48,16.73,4.35
		l0.91,0.82c4,3.6,5.3,2.84,7.64,0.92c0.53-0.44,1.24-1.89,1.47-4.5c0.33-3.89-0.6-7.95-1.65-9.17c-0.34-0.39-1.63-0.12-3.56,0.34
		c-2.81,0.66-6.65,1.57-11.02,0.17c-9.15-2.93-12.44-13.13-13.23-16.19c-0.85-3.25-9.66-19.76-16.35-26.09
		c-5.8-5.47-12.3-3.07-12.37-3.04c-1.34,0.5-2.85-0.16-3.36-1.5c-0.52-1.35,0.16-2.85,1.5-3.37c0.39-0.15,9.66-3.58,17.81,4.13
		c7.52,7.11,16.71,24.31,17.81,28.56c0.44,1.72,3,10.36,9.78,12.54c2.99,0.95,5.65,0.33,8.22-0.29c2.95-0.69,6.28-1.48,8.72,1.34
		c2.5,2.9,3.25,8.78,2.89,13.01c-0.23,2.62-0.99,6.14-3.35,8.08c-4.92,4.05-9.1,3.73-14.44-1.07l-0.92-0.84
		c-4.44-4.04-6.59-5.73-10.87-3.56c-2.69,1.38-5.81,4.55-8.83,7.61c-3.89,3.94-7.56,7.67-11.34,8.92c-0.78,0.25-1.82,0.69-3.09,1.2
		c-2.89,1.18-6.8,2.75-11.15,3.92c10.64-0.06,26.47,3.61,30.02,5.36c1.59,0.79,9.81,4.51,15.88,0.81c2.68-1.64,3.94-4.07,5.17-6.41
		c1.39-2.68,2.98-5.72,6.7-5.72c0,0,0,0,0.01,0c3.83,0.01,8.77,3.28,11.73,6.33C193.87,187.66,196.05,190.54,195.97,193.6z"/>
	<path fill="#AF8900" d="M329.99,190.21c-0.23,0.26-4.81,5.35-12.52,5.35c-0.76,0-1.55-0.06-2.36-0.17
		c4.7,2.34,8.78,6.04,11.14,11.94c0.53,1.34-0.12,2.85-1.45,3.39c-1.33,0.54-2.85-0.12-3.39-1.45
		c-5.27-13.19-22.29-12.73-31.44-12.46c-1.51,0.04-2.76,0.08-3.67,0.03c-2.71-0.09-7.11,1.92-11.36,3.88
		c-4.28,1.98-8.71,4.03-12.55,4.46c-8.55,0.94-11.51-4.83-14.13-9.95l-0.56-1.09c-2.48-4.78-3.97-4.52-6.83-3.55
		c-0.66,0.22-1.83,1.33-2.96,3.7c-1.68,3.52-2.24,7.65-1.68,9.16c0.18,0.49,1.48,0.69,3.45,0.94c2.86,0.36,6.78,0.87,10.37,3.71
		c7.54,5.96,7.03,16.67,6.7,19.81c-0.36,3.34,2.08,21.89,6.12,30.17c3.45,7.07,10.23,7.2,10.52,7.21c1.43,0.01,2.6,1.17,2.6,2.6
		c-0.01,1.43-1.15,2.6-2.58,2.61c-0.01,0-0.01,0-0.02,0c-0.65,0-10.35-0.18-15.2-10.13c-4.54-9.31-7.09-28.64-6.62-33.01
		c0.18-1.76,0.83-10.75-4.75-15.17c-2.46-1.95-5.17-2.3-7.8-2.63c-3-0.38-6.4-0.82-7.68-4.32c-1.33-3.6,0.04-9.36,1.87-13.2
		c1.13-2.37,3.08-5.4,5.98-6.38c6.03-2.05,9.83-0.29,13.13,6.08l0.58,1.12c2.73,5.34,4.15,7.69,8.91,7.14
		c3-0.33,7.04-2.2,10.95-4.01c5.02-2.32,9.74-4.51,13.75-4.35c0.82,0.03,1.95-0.01,3.32-0.04c4.14-0.12,10.22-0.28,16.32,0.87
		c-9.41-4.32-20.49-12.05-22.88-14.7c-1.19-1.31-7.47-7.78-14.48-6.56c-3.09,0.54-5.16,2.33-7.16,4.06
		c-2.28,1.99-4.87,4.24-8.33,2.86c-3.57-1.41-6.96-6.27-8.6-10.19c-1.02-2.42-1.98-5.89-0.78-8.71c2.48-5.85,6.32-7.53,13.28-5.74
		l1.21,0.31c5.81,1.52,8.49,2.03,11.28-1.89c1.74-2.46,3.04-6.72,4.3-10.83c1.61-5.3,3.13-10.3,5.9-13.16
		c0.57-0.59,1.3-1.46,2.18-2.5c6.24-7.4,19.23-22.8,36-16.69c1.35,0.49,2.05,1.98,1.56,3.33c-0.49,1.36-1.99,2.05-3.34,1.56
		c-13.35-4.85-24.34,8.17-30.24,15.16c-0.97,1.15-1.79,2.11-2.42,2.76c-1.89,1.96-3.3,6.58-4.66,11.05
		c-1.38,4.52-2.8,9.19-5.04,12.34c-4.98,7.02-11.28,5.37-16.84,3.91l-1.18-0.31c-5.21-1.33-6.01-0.05-7.19,2.74
		c-0.27,0.64-0.23,2.24,0.78,4.66c1.51,3.6,4.22,6.77,5.71,7.36c0.49,0.18,1.51-0.64,3.01-1.95c2.17-1.89,5.16-4.48,9.67-5.27
		c9.48-1.64,17.12,5.86,19.24,8.21c2.25,2.48,17.71,13.02,26.58,15.52c7.57,2.14,12.19-2.83,12.38-3.05
		c0.96-1.06,2.61-1.15,3.67-0.2C330.83,187.51,330.93,189.14,329.99,190.21z"/>
	<path fill="#AF8900" d="M251.36,283.41c-0.51,0.69-1.3,1.06-2.1,1.06c-0.54,0-1.08-0.16-1.54-0.5c-1.16-0.85-1.41-2.49-0.56-3.65
		c8.4-11.45-1.01-25.64-6.06-33.27c-0.84-1.26-1.53-2.31-1.98-3.09c-1.35-2.37-5.39-5.02-9.3-7.58c-3.95-2.59-8.03-5.27-10.42-8.3
		c-5.35-6.75-1.99-12.33,0.97-17.26l0.62-1.05c2.75-4.63,1.74-5.75-0.6-7.67c-0.54-0.43-2.09-0.84-4.7-0.55
		c-3.88,0.44-7.68,2.15-8.67,3.42c-0.32,0.41,0.2,1.62,1.03,3.43c1.2,2.62,2.85,6.2,2.34,10.76c-1.07,9.55-10.43,14.78-13.27,16.16
		c-3.02,1.47-17.47,13.35-22.36,21.16c-4.23,6.76-0.59,12.66-0.56,12.72c0.77,1.22,0.41,2.83-0.8,3.6c-1.22,0.77-2.83,0.41-3.6-0.81
		c-0.22-0.35-5.41-8.76,0.54-18.27c5.5-8.78,20.55-21.17,24.51-23.09c1.59-0.77,9.57-4.98,10.36-12.05
		c0.35-3.12-0.79-5.61-1.89-8.01c-1.27-2.75-2.7-5.86-0.41-8.81c2.36-3.02,7.98-4.92,12.2-5.39c2.6-0.3,6.21-0.24,8.58,1.7
		c4.92,4.03,5.44,8.19,1.79,14.36l-0.65,1.07c-3.09,5.15-4.33,7.59-1.35,11.35c1.88,2.37,5.6,4.81,9.2,7.17
		c4.63,3.04,9,5.9,10.97,9.36c0.4,0.71,1.03,1.66,1.79,2.79C250.79,252.24,261.91,269.02,251.36,283.41z"/>
	<path fill="#FFC700" d="M233.83,178.67c0,1.07-0.42,2.09-1.19,2.86c-1.57,1.58-4.14,1.57-5.72,0c-0.75-0.75-1.28-1.69-1.53-2.72
		l-0.87-3.49c-0.14-0.55,0.01-1.1,0.41-1.51c0.31-0.3,0.7-0.46,1.11-0.46c0.13,0,0.26,0.02,0.4,0.05l3.49,0.87
		c1.02,0.25,1.96,0.79,2.71,1.54C233.41,176.57,233.83,177.58,233.83,178.67z"/>
	<path fill="#FFC700" d="M235.36,164.69c-0.36,1.02-1.09,1.84-2.06,2.3c-0.96,0.46-2.02,0.65-3.07,0.55l-3.58-0.34
		c-0.57-0.05-1.04-0.38-1.29-0.89c-0.24-0.52-0.2-1.09,0.11-1.56l1.98-3c0.58-0.89,1.4-1.6,2.35-2.05c0.56-0.27,1.15-0.4,1.74-0.4
		c0.46,0,0.91,0.07,1.35,0.23c1.02,0.36,1.84,1.09,2.31,2.07C235.66,162.57,235.72,163.67,235.36,164.69z"/>
	<path fill="#FFC700" d="M226.74,152.34c-0.36,1-0.97,1.88-1.79,2.56l-2.77,2.29c-0.44,0.36-1,0.46-1.54,0.27s-0.91-0.62-1.03-1.18
		l-0.72-3.52c-0.21-1.03-0.14-2.11,0.22-3.11c0.58-1.66,2.15-2.7,3.82-2.7c0.44,0,0.89,0.07,1.33,0.23
		C226.37,147.92,227.49,150.23,226.74,152.34z"/>
	<path fill="#FFC700" d="M212.61,151.89l-0.33,3.58c-0.06,0.57-0.38,1.03-0.9,1.28c-0.51,0.25-1.08,0.2-1.56-0.11l-3-1.98
		c-0.88-0.58-1.59-1.4-2.05-2.35c-0.47-0.97-0.53-2.07-0.17-3.09c0.36-1.02,1.1-1.84,2.07-2.3c0.56-0.27,1.15-0.4,1.75-0.4
		c0.45,0,0.9,0.07,1.34,0.23c1.02,0.36,1.84,1.09,2.3,2.06C212.51,149.77,212.7,150.83,212.61,151.89z"/>
	<path fill="#FFC700" d="M205.99,166.31c-0.25,0.51-0.72,0.84-1.29,0.89l-3.57,0.34c-1.06,0.1-2.12-0.09-3.08-0.55
		c-0.97-0.46-1.71-1.28-2.06-2.3c-0.36-1.02-0.3-2.12,0.16-3.09c0.7-1.45,2.15-2.3,3.66-2.3c0.58,0,1.18,0.13,1.74,0.4
		c0.95,0.45,1.77,1.16,2.35,2.05l1.98,3C206.18,165.22,206.22,165.79,205.99,166.31z"/>
	<path fill="#FFC700" d="M206.91,175.32l-0.87,3.49c-0.26,1.03-0.79,1.97-1.54,2.72c-1.58,1.57-4.14,1.57-5.72,0
		c-0.76-0.77-1.19-1.79-1.19-2.86c0-1.09,0.43-2.1,1.19-2.86c0.75-0.75,1.69-1.29,2.71-1.54l3.49-0.87c0.14-0.03,0.27-0.05,0.4-0.05
		c0.41,0,0.8,0.16,1.11,0.47C206.89,174.22,207.05,174.77,206.91,175.32z"/>
	<path fill="#FFC700" d="M219.72,184.45c0,2.23-1.82,4.04-4.04,4.04c-2.23,0-4.05-1.81-4.05-4.04c0-1.06,0.29-2.1,0.83-3.01
		l1.86-3.08c0.58-0.98,2.13-0.98,2.71,0l1.86,3.08C219.43,182.35,219.72,183.39,219.72,184.45z"/>
	<g>
		<g>
			<g>
				<path fill="#FFC700" d="M845.24,601.63c0-39.9,0-79.8,0-119.7c0-5.43,0.53-6.02,5.8-5.24c30.02,4.44,53.21,19.53,69.57,45.05
					c10.08,15.73,16.43,32.94,19.8,51.28c0.05,0.27,0.06,0.54,0.14,0.8c0.55,1.72,0.4,4.53,2.62,4.44c2.45-0.1,1.62-2.96,1.96-4.65
					c6.07-30.06,17.69-57.15,42.28-76.93c13.88-11.17,30.09-17.05,47.74-19.07c4.02-0.46,4.41,2.05,4.44,5.02
					c0.12,14.02,0.29,28.03,0.35,42.05c0.28,65.51,0.52,131.02,0.78,196.53c0,0.94,0.08,1.91-0.09,2.82
					c-0.27,1.45-1.09,2.52-2.73,2.42c-1.42-0.09-2.12-1.07-2.33-2.39c-0.11-0.66-0.06-1.34-0.06-2.02
					c-0.19-59.98-0.38-119.97-0.58-179.95c-0.03-9.3-0.12-18.6-0.23-27.9c-0.05-3.95-1.39-5.2-4.8-4.48
					c-17.06,3.62-32.46,10.55-45.3,22.64c-11.81,11.11-20.01,24.59-25.92,39.53c-10.33,26.09-13.87,53.31-13.27,81.2
					c0.05,2.16,1.19,5.74-2.45,5.76c-3.97,0.02-2.65-3.66-2.6-5.95c0.49-20.73-1.27-41.24-6.58-61.29
					c-7.25-27.36-19.83-51.46-43.68-68.27c-10.19-7.18-21.65-11.36-33.67-14.1c-5.21-1.19-6.16-0.23-6.15,5.21
					c0.11,62.54,0.23,125.09,0.35,187.63c0.01,6.6,0.04,13.21,0.01,19.81c-0.01,2.05-0.04,4.47-2.96,4.26
					c-2.65-0.19-2.31-2.51-2.31-4.38c0-40.03,0-80.07,0-120.11C845.32,601.63,845.28,601.63,845.24,601.63z M903.19,517.94
					c-0.21-1.77-1.25-2.5-2.04-3.33c-10.6-11.17-23.75-17.92-38.4-22c-2.98-0.83-6.02-1.49-9.06-2.06
					c-1.36-0.25-2.85-0.03-3.14,1.72c-0.27,1.66,0.85,2.43,2.3,2.78c0.78,0.19,1.59,0.28,2.39,0.44
					c11.85,2.36,23.16,6.16,33.41,12.69C893.46,511.27,898.15,514.56,903.19,517.94z M903.55,527.4c0-0.88,0.06-1.07-0.01-1.14
					c-13.3-15.12-30.39-23.09-49.93-26.4c-1.25-0.21-2.56,0.1-2.78,1.64c-0.21,1.44,0.82,2.27,2.05,2.61
					c1.94,0.53,3.93,0.89,5.91,1.31c11.17,2.33,21.64,6.45,31.22,12.66C894.47,520.96,898.79,524.11,903.55,527.4z M901.56,507.13
					c-0.69-1.13-0.86-1.5-1.11-1.8c-0.52-0.62-1.06-1.22-1.64-1.78c-8.99-8.9-19.84-14.74-31.7-18.66
					c-4.29-1.42-8.67-3.03-13.32-3.13c-1.41-0.03-2.86,0.16-3.02,1.93c-0.13,1.42,0.93,2.17,2.18,2.52c0.9,0.26,1.84,0.36,2.77,0.5
					c8.45,1.27,16.37,4.14,24.14,7.61C887.29,497.62,893.65,502.66,901.56,507.13z M983.22,525.49c1.43-0.48,1.82-0.54,2.13-0.74
					c0.79-0.5,1.56-1.05,2.33-1.59c12.92-9.05,26.88-15.62,42.69-17.72c1.77-0.23,3.91-0.56,3.7-2.82
					c-0.26-2.79-2.74-2.15-4.46-1.82c-6.2,1.19-12.31,2.84-18.15,5.25C1001.05,510.36,991.56,516.03,983.22,525.49z M982.81,508.37
					c1.42-0.82,1.87-1.02,2.26-1.31c13.54-10.17,28.47-17.17,45.31-19.84c1.72-0.27,3.93-0.41,3.51-2.86
					c-0.41-2.39-2.52-1.95-4.26-1.58c-9.64,2.03-19.02,4.83-27.67,9.68C994.95,496.4,988.43,500.92,982.81,508.37z M983.12,516.75
					c0.97-0.24,1.39-0.23,1.65-0.43c13.73-10.42,28.89-17.53,46.03-20.14c1.57-0.24,3.56-0.67,3.05-2.88
					c-0.5-2.16-2.44-1.63-4.03-1.38c-9.67,1.47-18.75,4.69-27.33,9.33C995.29,505.14,988.55,509.64,983.12,516.75z"/>
				<path fill="#AF8900" d="M848.19,476.41c0.75,0,1.68,0.11,2.85,0.28c30.02,4.44,53.21,19.53,69.57,45.05
					c10.08,15.73,16.43,32.94,19.8,51.28c0.05,0.27,0.06,0.54,0.14,0.8c0.54,1.7,0.4,4.44,2.52,4.44c0.04,0,0.07,0,0.11,0
					c2.45-0.1,1.62-2.96,1.96-4.65c6.07-30.06,17.69-57.15,42.28-76.93c13.88-11.17,30.09-17.05,47.74-19.07
					c0.32-0.04,0.62-0.05,0.9-0.05c3.18,0,3.52,2.34,3.54,5.07c0.12,14.02,0.29,28.03,0.35,42.05
					c0.28,65.51,0.52,131.02,0.78,196.53c0,0.94,0.08,1.91-0.09,2.82c-0.26,1.39-1.02,2.43-2.52,2.43c-0.07,0-0.14,0-0.21-0.01
					c-1.42-0.09-2.12-1.07-2.33-2.39c-0.11-0.66-0.06-1.34-0.06-2.02c-0.19-59.98-0.38-119.97-0.58-179.95
					c-0.03-9.3-0.12-18.6-0.23-27.9c-0.04-3.25-0.95-4.67-3.17-4.68c-0.48,0-1.02,0.07-1.62,0.19
					c-17.06,3.62-32.46,10.55-45.3,22.64c-11.81,11.11-20.01,24.59-25.92,39.53c-10.33,26.09-13.87,53.31-13.27,81.2
					c0.05,2.16,1.19,5.74-2.45,5.76c-0.01,0-0.02,0-0.03,0c-3.93,0-2.62-3.67-2.57-5.95c0.49-20.73-1.27-41.24-6.58-61.29
					c-7.25-27.36-19.83-51.46-43.68-68.27c-10.19-7.18-21.65-11.36-33.67-14.1c-1.27-0.29-2.29-0.45-3.1-0.45
					c-2.51,0-3.05,1.55-3.04,5.66c0.11,62.54,0.23,125.09,0.35,187.63c0.01,6.6,0.04,13.21,0.01,19.81
					c-0.01,1.97-0.03,4.27-2.62,4.27c-0.11,0-0.22,0-0.34-0.01c-2.65-0.19-2.31-2.51-2.31-4.38c0-40.04,0-80.07,0-120.11
					c-0.04,0-0.07,0-0.11,0c0-39.9,0-79.8,0-119.7C845.25,477.71,845.57,476.41,848.19,476.41 M901.56,507.13
					c-0.69-1.13-0.86-1.5-1.11-1.8c-0.52-0.62-1.06-1.22-1.64-1.78c-8.99-8.9-19.84-14.74-31.7-18.66
					c-4.29-1.42-8.67-3.03-13.32-3.13c-0.08,0-0.16,0-0.23,0c-1.33,0-2.63,0.26-2.79,1.93c-0.13,1.42,0.93,2.17,2.18,2.52
					c0.9,0.26,1.84,0.36,2.77,0.5c8.45,1.27,16.37,4.14,24.14,7.61C887.29,497.62,893.65,502.66,901.56,507.13 M982.81,508.37
					c1.42-0.82,1.87-1.02,2.26-1.31c13.54-10.17,28.47-17.17,45.31-19.84c1.72-0.27,3.93-0.41,3.51-2.86
					c-0.26-1.48-1.16-1.87-2.22-1.87c-0.66,0-1.37,0.15-2.04,0.29c-9.64,2.03-19.02,4.83-27.67,9.68
					C994.95,496.4,988.43,500.92,982.81,508.37 M903.19,517.94c-0.21-1.77-1.25-2.5-2.04-3.33c-10.6-11.17-23.75-17.92-38.4-22
					c-2.98-0.83-6.02-1.49-9.06-2.06c-0.29-0.05-0.59-0.09-0.88-0.09c-1.06,0-2.03,0.43-2.26,1.81c-0.27,1.66,0.85,2.43,2.3,2.78
					c0.78,0.19,1.59,0.28,2.39,0.44c11.85,2.36,23.16,6.16,33.41,12.69C893.46,511.27,898.15,514.56,903.19,517.94 M983.12,516.75
					c0.97-0.24,1.39-0.23,1.65-0.43c13.73-10.42,28.89-17.53,46.03-20.14c1.57-0.24,3.56-0.67,3.05-2.88
					c-0.3-1.3-1.12-1.62-2.08-1.62c-0.63,0-1.32,0.14-1.95,0.24c-9.67,1.47-18.75,4.69-27.33,9.33
					C995.29,505.14,988.55,509.64,983.12,516.75 M903.55,527.4c0-0.88,0.06-1.07-0.01-1.14c-13.3-15.12-30.39-23.09-49.93-26.4
					c-0.23-0.04-0.45-0.06-0.68-0.06c-1.01,0-1.92,0.44-2.11,1.7c-0.21,1.44,0.82,2.27,2.05,2.61c1.94,0.53,3.93,0.89,5.91,1.31
					c11.17,2.33,21.64,6.45,31.22,12.66C894.47,520.96,898.79,524.11,903.55,527.4 M983.22,525.49c1.43-0.48,1.82-0.54,2.13-0.74
					c0.79-0.5,1.56-1.05,2.33-1.59c12.92-9.05,26.88-15.62,42.69-17.72c1.77-0.23,3.91-0.56,3.7-2.82c-0.16-1.7-1.14-2.12-2.27-2.12
					c-0.73,0-1.52,0.18-2.19,0.31c-6.2,1.19-12.31,2.84-18.15,5.25C1001.05,510.36,991.56,516.03,983.22,525.49 M848.19,472.41
					c-6.95,0-6.95,6.19-6.95,9.52c0,30.23,0,60.47,0,90.7v29v4h0.11v15.45c0,33.55,0,67.1,0,100.65c0,0.16,0,0.33-0.01,0.5
					c-0.02,1.09-0.04,2.59,0.54,4.05c0.9,2.24,2.9,3.63,5.49,3.82c0.22,0.02,0.43,0.02,0.63,0.02c2.76,0,5-1.46,5.98-3.9
					c0.62-1.54,0.63-3.16,0.63-4.35c0.03-5.28,0.01-10.63,0-15.81l-0.01-4.02l-0.16-85.29l-0.19-102.34c0-0.66,0.01-1.17,0.04-1.55
					c0.32,0.05,0.72,0.13,1.22,0.25c13.24,3.01,23.49,7.29,32.26,13.47c20.66,14.56,34.05,35.54,42.12,66.02
					c4.87,18.37,6.98,38.06,6.45,60.18c-0.01,0.25-0.05,0.64-0.09,1.03c-0.21,1.87-0.53,4.7,1.45,6.92c0.85,0.96,2.45,2.1,5.2,2.1
					h0.01h0.04c2.62-0.01,4.16-1.12,5-2.05c1.97-2.19,1.69-4.99,1.51-6.85c-0.04-0.37-0.07-0.72-0.08-0.95
					c-0.64-29.91,3.61-55.96,12.99-79.64c6.21-15.67,14.37-28.13,24.95-38.09c11.47-10.8,25.65-17.87,43.33-21.63
					c0.01,0.17,0.02,0.37,0.02,0.61c0.13,10.09,0.2,19.21,0.23,27.86c0.14,41.91,0.27,83.82,0.41,125.73l0.17,54.22
					c0,0.14,0,0.28,0,0.42c-0.01,0.61-0.02,1.37,0.11,2.21c0.54,3.35,2.85,5.56,6.04,5.75c0.15,0.01,0.3,0.01,0.45,0.01
					c3.28,0,5.81-2.24,6.46-5.69c0.21-1.11,0.18-2.15,0.17-2.99c0-0.19-0.01-0.39-0.01-0.58l-0.15-37.79
					c-0.2-52.91-0.41-105.82-0.63-158.74c-0.04-9.38-0.13-18.92-0.22-28.14c-0.04-4.64-0.09-9.29-0.13-13.93
					c-0.01-1.79-0.15-3.68-1.04-5.38c-0.71-1.37-2.51-3.66-6.5-3.66c-0.43,0-0.88,0.03-1.35,0.08
					c-19.36,2.21-36.11,8.92-49.79,19.92c-20.94,16.85-34.4,39.75-42.02,71.66c-3.84-16.71-10.18-32.03-18.9-45.63
					c-16.99-26.5-41.33-42.26-72.35-46.84C850.11,472.51,849.08,472.41,848.19,472.41L848.19,472.41z"/>
			</g>
			<g>
				<path fill="#FFC700" d="M450.15,711c0,3.64-0.12,7.28-0.2,10.91c-0.05,1.99-0.32,4.13-2.9,3.93c-2.41-0.18-2.15-2.37-2.15-4.11
					c0.1-25.74,0.2-51.49,0.35-77.23c0.04-6.51-0.51-6.89-6.93-6.02c-15.12,2.05-29.47,6.24-42.55,14.33
					c-17.93,11.1-30.78,26.43-37.98,46.24c-2.47,6.8-4.46,13.87-4.23,21.29c0.03,0.8,0,1.63-0.14,2.42c-0.3,1.74-1.09,3.2-3.11,3.02
					c-1.94-0.17-2.17-1.8-2.16-3.33c0.04-4.72,0.21-9.43,0.23-14.15c0.12-32.08,0.2-64.16,0.32-96.23
					c0.09-23.96,3.93-47.21,13.42-69.34c10.06-23.45,24.52-43.29,46.92-56.52c11.7-6.91,24.33-10.72,37.91-11.47
					c2.59-0.14,3.79,0.93,4.01,3.36c0.08,0.8,0.06,1.62,0.06,2.42c0,39.9,0,79.79,0,119.69C450.74,600.22,450.17,674.08,450.15,711z
					 M445.79,556.49c0-14.96,0.01-29.91-0.01-44.87c-0.01-4.64-1.07-5.6-5.58-4.75c-7.02,1.31-13.96,2.95-20.49,5.98
					c-17.99,8.36-31.73,21.31-42.46,37.93c-9.64,14.93-15.81,31.25-19.88,48.28c-2.43,10.15-3.58,20.68-3.56,31.25
					c0.02,10.37-0.31,20.74-0.45,31.12c-0.02,1.14-0.35,2.74,1.23,3.03c1.54,0.28,1.78-1.31,2.3-2.37c1.12-2.3,2.05-4.72,3.41-6.87
					c18.46-29.16,44.89-45.28,79.3-48.23c5.25-0.45,5.76-0.88,5.76-6.04C445.36,586.14,445.64,556.49,445.79,556.49z M378.77,649.1
					c1.54,0.42,2.14-0.51,2.82-1.03c17.77-13.59,37.59-21.88,60.07-23.33c1.71-0.11,3.53-0.49,3.22-2.68
					c-0.34-2.37-2.44-2.15-4.18-2c-19.35,1.75-37.06,7.89-52.56,19.81C384.71,642.52,381.24,645.2,378.77,649.1z M380.52,656.61
					c1.93-0.01,2.7-0.81,3.57-1.41c6.42-4.44,12.95-8.71,20.1-11.88c11.75-5.21,23.94-8.81,36.91-9.22
					c1.77-0.06,3.88-0.12,3.84-2.53c-0.05-2.83-2.42-2.29-4.24-2.3c-0.94-0.01-1.88,0.1-2.82,0.19
					c-14.97,1.43-28.86,6.2-41.72,13.91C390.43,646.8,384.89,650.58,380.52,656.61z M379.25,639.57c1.12-0.06,1.43,0.02,1.62-0.1
					c1.03-0.64,2.06-1.27,3.03-2c12.74-9.61,26.73-16.4,42.47-19.53c5.16-1.02,10.28-2.04,15.56-2.09c1.56-0.02,3.04-0.54,3.04-2.49
					s-1.43-2.38-3.03-2.46c-0.67-0.03-1.35-0.02-2.01,0.05c-16.27,1.8-31.6,6.45-45.43,15.38
					C389,629.87,383.54,633.56,379.25,639.57z M389.75,508.5c1.49,0.27,1.96-0.71,2.64-1.26c9.39-7.45,19.14-14.29,30.59-18.34
					c6.36-2.25,12.76-4.17,19.53-4.63c1.6-0.11,3.08-0.6,3.07-2.48c-0.01-2.12-1.62-2.56-3.39-2.52c-0.8,0.02-1.61,0.15-2.4,0.29
					c-13.57,2.47-25.99,7.59-36.96,16.04C398,499.33,393.33,503.23,389.75,508.5z M388.88,518.17c1.21-0.29,1.52-0.27,1.69-0.42
					c14.99-12.95,31.77-22.13,51.75-24.56c1.71-0.21,3.4-0.74,3.02-2.92c-0.38-2.14-2.2-2.1-3.86-1.81
					c-5.57,0.98-11.11,2.1-16.45,4.07C410.96,497.7,399.04,505.89,388.88,518.17z M391.81,525.36c2.61-1.87,5.25-3.72,7.83-5.62
					c12.45-9.16,26.06-15.5,41.61-17.14c1.87-0.2,4.24-0.23,4.06-2.83c-0.2-2.75-2.66-2.07-4.45-2.03c-1.2,0.03-2.41,0.25-3.59,0.48
					c-9.59,1.88-18.61,5.29-26.99,10.31C402.99,512.89,396.45,518.14,391.81,525.36z"/>
				<path fill="#AF8900" d="M447.39,474.73c2.29,0,3.36,1.09,3.57,3.37c0.08,0.8,0.06,1.62,0.06,2.42c0,39.9,0,79.79,0,119.69
					c-0.29,0-0.86,73.86-0.87,110.79c0,3.64-0.12,7.28-0.2,10.91c-0.04,1.91-0.29,3.94-2.58,3.94c-0.1,0-0.21,0-0.32-0.01
					c-2.41-0.18-2.15-2.37-2.15-4.11c0.1-25.74,0.2-51.49,0.35-77.23c0.03-4.96-0.28-6.36-3.28-6.36c-0.93,0-2.13,0.14-3.65,0.34
					c-15.12,2.05-29.47,6.24-42.55,14.33c-17.93,11.1-30.78,26.43-37.98,46.24c-2.47,6.8-4.46,13.87-4.23,21.29
					c0.03,0.8,0,1.63-0.14,2.42c-0.28,1.64-1,3.04-2.78,3.04c-0.1,0-0.21,0-0.33-0.01c-1.94-0.17-2.17-1.8-2.16-3.33
					c0.04-4.72,0.21-9.43,0.23-14.15c0.12-32.08,0.2-64.16,0.32-96.23c0.09-23.96,3.93-47.21,13.42-69.34
					c10.06-23.45,24.52-43.29,46.92-56.52c11.7-6.91,24.33-10.72,37.91-11.47C447.1,474.74,447.25,474.73,447.39,474.73
					 M390.24,508.55c1.12,0,1.55-0.82,2.15-1.3c9.39-7.45,19.14-14.29,30.59-18.34c6.36-2.25,12.76-4.17,19.53-4.63
					c1.6-0.11,3.08-0.6,3.07-2.48c-0.01-2.03-1.48-2.52-3.15-2.52c-0.08,0-0.15,0-0.23,0c-0.8,0.02-1.61,0.15-2.4,0.29
					c-13.57,2.47-25.99,7.59-36.96,16.04c-4.83,3.72-9.5,7.62-13.08,12.89C389.93,508.53,390.09,508.55,390.24,508.55
					 M388.88,518.17c1.21-0.29,1.52-0.27,1.69-0.42c14.99-12.95,31.77-22.13,51.75-24.56c1.71-0.21,3.4-0.74,3.02-2.92
					c-0.28-1.54-1.3-1.95-2.47-1.95c-0.45,0-0.93,0.06-1.4,0.14c-5.57,0.98-11.11,2.1-16.45,4.07
					C410.96,497.7,399.04,505.89,388.88,518.17 M391.81,525.36c2.61-1.87,5.25-3.72,7.83-5.62c12.45-9.16,26.06-15.5,41.61-17.14
					c1.87-0.2,4.24-0.23,4.06-2.83c-0.13-1.81-1.24-2.13-2.5-2.13c-0.65,0-1.34,0.09-1.95,0.1c-1.2,0.03-2.41,0.25-3.59,0.48
					c-9.59,1.88-18.61,5.29-26.99,10.31C402.99,512.89,396.45,518.14,391.81,525.36 M354.92,664.49c1.24,0,1.48-1.42,1.96-2.4
					c1.12-2.3,2.05-4.72,3.41-6.87c18.46-29.16,44.89-45.28,79.3-48.23c5.25-0.45,5.76-0.88,5.76-6.04
					c0-14.82,0.29-44.47,0.44-44.47c0-14.96,0.01-29.91-0.01-44.87c0-3.66-0.67-5.03-3.17-5.03c-0.67,0-1.46,0.1-2.41,0.28
					c-7.02,1.31-13.96,2.95-20.49,5.98c-17.99,8.36-31.73,21.31-42.46,37.93c-9.64,14.93-15.81,31.25-19.88,48.28
					c-2.43,10.15-3.58,20.68-3.56,31.25c0.02,10.37-0.31,20.74-0.45,31.12c-0.02,1.14-0.35,2.74,1.23,3.03
					C354.7,664.48,354.81,664.49,354.92,664.49 M379.25,639.57c1.12-0.06,1.43,0.02,1.62-0.1c1.03-0.64,2.06-1.27,3.03-2
					c12.74-9.61,26.73-16.4,42.47-19.53c5.16-1.02,10.28-2.04,15.56-2.09c1.56-0.02,3.04-0.54,3.04-2.49s-1.43-2.38-3.03-2.46
					c-0.23-0.01-0.45-0.02-0.68-0.02c-0.45,0-0.89,0.02-1.33,0.07c-16.27,1.8-31.6,6.45-45.43,15.38
					C389,629.87,383.54,633.56,379.25,639.57 M379.5,649.21c1.02,0,1.53-0.7,2.09-1.13c17.77-13.59,37.59-21.88,60.07-23.33
					c1.71-0.11,3.53-0.49,3.22-2.68c-0.25-1.74-1.44-2.08-2.74-2.08c-0.48,0-0.97,0.05-1.44,0.09
					c-19.35,1.75-37.06,7.89-52.56,19.81c-3.42,2.63-6.89,5.31-9.36,9.22C379.04,649.18,379.29,649.21,379.5,649.21 M440.79,629.27
					c-0.03,0-0.07,0-0.1,0c-0.04,0-0.08,0-0.12,0c-0.9,0-1.8,0.1-2.7,0.19c-14.97,1.43-28.86,6.2-41.72,13.91
					c-5.73,3.44-11.27,7.22-15.64,13.25c1.93-0.01,2.7-0.81,3.57-1.41c6.42-4.44,12.95-8.71,20.1-11.88
					c11.75-5.21,23.94-8.81,36.91-9.22c1.77-0.06,3.88-0.12,3.84-2.53c-0.03-2.07-1.31-2.33-2.71-2.33
					C441.75,629.24,441.25,629.27,440.79,629.27 M447.39,470.73L447.39,470.73L447.39,470.73c-0.21,0-0.43,0.01-0.66,0.02
					c-14.18,0.78-27.54,4.83-39.73,12.02c-21.19,12.51-37.08,31.61-48.56,58.39c-9.15,21.33-13.64,44.52-13.74,70.91
					c-0.06,16.49-0.11,32.98-0.16,49.47c-0.05,15.59-0.1,31.17-0.15,46.76c-0.01,2.5-0.06,5.06-0.12,7.54
					c-0.05,2.16-0.09,4.38-0.11,6.59c-0.05,6.34,4.43,7.23,5.81,7.35c0.23,0.02,0.46,0.03,0.68,0.03c1.32,0,5.71-0.46,6.73-6.35
					c0.17-0.98,0.23-2.04,0.2-3.22c-0.23-7.15,1.89-14.02,3.99-19.8c6.76-18.6,18.98-33.47,36.32-44.21
					c11.44-7.08,24.84-11.58,40.98-13.77c0.83-0.11,1.67-0.22,2.36-0.27c0.03,0.57,0.04,1.34,0.04,2.31
					c-0.14,24.12-0.23,48.64-0.33,72.35l-0.02,4.88v0.4c-0.09,6.01,3.13,7.51,5.85,7.71c0.21,0.02,0.42,0.02,0.62,0.02
					c1.92,0,6.42-0.77,6.58-7.85l0.06-2.4c0.07-2.81,0.14-5.72,0.15-8.6c0.01-33.99,0.45-91.77,0.74-106.79h0.14v-4V589.2
					c0-36.22,0-72.44,0-108.67v-0.33c0-0.74,0-1.59-0.08-2.47C454.53,473.35,451.7,470.73,447.39,470.73L447.39,470.73z
					 M357.51,652.15c0.01-0.6,0.02-1.2,0.04-1.79c0.13-6.56,0.27-13.35,0.25-20.04c-0.02-10.45,1.14-20.65,3.45-30.31
					c4.36-18.25,10.69-33.63,19.35-47.04c10.88-16.85,24.22-28.78,40.79-36.48c6.42-2.98,13.48-4.55,19.54-5.68
					c0.3-0.06,0.58-0.1,0.82-0.14c0.01,0.26,0.02,0.58,0.02,0.96c0.01,10.79,0.01,21.58,0.01,32.37v12.31
					c-0.01,0.11-0.02,0.22-0.02,0.34c-0.01,0.24-0.02,0.59-0.03,1.04c-0.02,0.85-0.05,2.08-0.07,3.6c-0.05,2.95-0.1,7.05-0.14,11.84
					c-0.1,10.1-0.16,21.03-0.17,27.83c0,0.85-0.02,1.44-0.04,1.83c-0.7,0.11-1.66,0.19-2.06,0.22
					C404.09,606.03,376.6,622.56,357.51,652.15L357.51,652.15z"/>
			</g>
			<g>
				<path fill="#FFC700" d="M610.42,600.93c0-40.41,0.01-80.82-0.02-121.24c0-3.38,1.58-4.62,4.81-4.2
					c30.95,4.03,55.05,18.98,71.96,45.27c12.79,19.88,18.62,42.05,22.09,65.2c2.33,15.59,1.56,31.16,1.98,46.75
					c0.11,3.95-2,4.8-5.25,4.87c-14.64,0.32-28.53,3.88-41.45,10.67c-29.02,15.27-46.09,38.88-49.37,71.91
					c-0.23,2.27,0.95,6.09-3,5.81c-3.74-0.26-2.42-3.91-2.42-6.23C609.69,680.14,610.18,600.93,610.42,600.93z M615.01,586.03
					c0,23.97-0.01,47.94,0.01,71.91c0,1.81-0.93,4.62,0.97,5.12c2.23,0.58,2.78-2.43,3.66-4.07c15.88-29.62,40.65-46.6,73.65-51.75
					c9.74-1.52,9.83-1.25,7.82-10.87c-3.61-17.28-9.82-33.51-19.61-48.29c-14.34-21.66-34.28-34.85-59.81-39.55
					c-5.42-1-6.29-0.16-6.29,5.18C615.41,537.82,615.15,586.03,615.01,586.03z M641.97,647.45c2.74-2.16,5.91-3.53,8.72-5.48
					c14.8-10.27,31.27-15.87,49.13-17.64c1.2-0.12,2.42-0.21,3.58-0.49c0.98-0.23,1.62-0.96,1.61-2.05
					c-0.02-1.08-0.67-1.83-1.62-2.07c-1.02-0.25-2.14-0.4-3.17-0.26c-17.58,2.33-34.09,7.56-48.49,18.28
					C648.05,640.47,644.58,643.5,641.97,647.45z M643.24,655.63c1.59-0.97,3.24-1.85,4.76-2.92c15.46-11,32.55-17.56,51.52-19.04
					c1.07-0.08,2.15-0.16,3.21-0.32c1.42-0.21,2.76-0.75,2.71-2.42c-0.05-1.73-1.43-2.11-2.88-2.11c-1.21,0-2.42,0.05-3.63,0.15
					c-9.33,0.73-18.3,3.1-26.91,6.64C661.02,640.14,650.87,646.05,643.24,655.63z M642.49,636.76c0.24,0.28,0.47,0.57,0.71,0.85
					c0.48-0.19,1.03-0.29,1.42-0.6c16.42-12.59,34.8-20.09,55.53-21.57c1.68-0.12,3.47-0.43,3.34-2.62
					c-0.13-2.25-2.04-2.16-3.66-2.13c-1.2,0.03-2.41,0.22-3.61,0.39c-13.89,1.97-26.91,6.4-38.84,13.86
					C651.98,628.34,646.96,632.24,642.49,636.76z M669.26,517.3c-0.24-3.16-1.76-4.2-3.02-5.33
					c-12.52-11.21-27.18-18.16-43.52-21.69c-2.15-0.46-5.63-2-6.22,1.16c-0.6,3.22,3.16,2.87,5.38,3.29
					c12.28,2.29,23.73,6.66,34.36,13.26C660.54,510.67,664.55,513.74,669.26,517.3z M668.26,524.13c-0.17-0.35-0.26-0.77-0.51-1.05
					c-0.79-0.91-1.58-1.85-2.47-2.66c-10.93-9.81-23.66-16.22-37.84-19.83c-2.73-0.7-5.49-1.33-8.27-1.8
					c-1.36-0.23-2.88,0.01-3.1,1.78c-0.21,1.73,1.16,2.23,2.54,2.56c0.52,0.12,1.07,0.12,1.6,0.23c10.73,2.16,21.05,5.5,30.78,10.59
					C656.92,517.03,662.14,521.25,668.26,524.13z M668.86,507.93c-0.57-3.57-2.72-4.5-4.25-5.89
					c-12.69-11.57-27.73-18.22-44.55-21.1c-1.53-0.26-3.57-0.83-3.93,1.45c-0.3,1.92,1.62,2.16,3.02,2.57
					c0.77,0.23,1.58,0.35,2.37,0.52c9.5,2.03,18.69,4.83,27.39,9.34C655.72,498.35,662.25,502.24,668.86,507.93z"/>
				<path fill="#AF8900" d="M614.09,475.41c0.35,0,0.72,0.03,1.12,0.08c30.95,4.03,55.05,18.98,71.96,45.27
					c12.79,19.88,18.62,42.05,22.09,65.2c2.33,15.59,1.56,31.16,1.98,46.75c0.11,3.95-2,4.8-5.25,4.87
					c-14.64,0.32-28.53,3.88-41.45,10.67c-29.02,15.27-46.09,38.88-49.37,71.91c-0.22,2.19,0.87,5.83-2.61,5.83
					c-0.12,0-0.25,0-0.39-0.01c-3.74-0.26-2.42-3.91-2.42-6.23c-0.06-39.6,0.44-118.81,0.68-118.81c0-40.41,0.01-80.82-0.02-121.24
					C610.4,476.73,611.62,475.41,614.09,475.41 M668.86,507.93c-0.57-3.57-2.72-4.5-4.25-5.89c-12.69-11.57-27.73-18.22-44.55-21.1
					c-0.61-0.11-1.31-0.26-1.94-0.26c-0.95,0-1.77,0.34-1.99,1.71c-0.3,1.92,1.62,2.16,3.02,2.57c0.77,0.23,1.58,0.35,2.37,0.52
					c9.5,2.03,18.69,4.83,27.39,9.34C655.72,498.35,662.25,502.24,668.86,507.93 M669.26,517.3c-0.24-3.16-1.76-4.2-3.02-5.33
					c-12.52-11.21-27.18-18.16-43.52-21.69c-1.13-0.24-2.62-0.78-3.87-0.78c-1.13,0-2.07,0.44-2.34,1.94
					c-0.6,3.22,3.16,2.87,5.38,3.29c12.28,2.29,23.73,6.66,34.36,13.26C660.54,510.67,664.55,513.74,669.26,517.3 M668.26,524.13
					c-0.17-0.35-0.26-0.77-0.51-1.05c-0.79-0.91-1.58-1.85-2.47-2.66c-10.93-9.81-23.66-16.22-37.84-19.83
					c-2.73-0.7-5.49-1.33-8.27-1.8c-0.27-0.05-0.55-0.07-0.82-0.07c-1.09,0-2.1,0.44-2.27,1.85c-0.21,1.73,1.16,2.23,2.54,2.56
					c0.52,0.12,1.07,0.12,1.6,0.23c10.73,2.16,21.05,5.5,30.78,10.59C656.92,517.03,662.14,521.25,668.26,524.13 M616.54,663.13
					c1.79,0,2.32-2.65,3.12-4.14c15.88-29.62,40.65-46.6,73.65-51.75c9.74-1.52,9.83-1.25,7.82-10.87
					c-3.61-17.28-9.82-33.51-19.61-48.29c-14.34-21.66-34.28-34.85-59.81-39.55c-1.26-0.23-2.27-0.36-3.09-0.36
					c-2.69,0-3.2,1.45-3.2,5.55c-0.01,24.11-0.27,72.32-0.41,72.32c0,23.97-0.01,47.94,0.01,71.91c0,1.81-0.93,4.62,0.97,5.12
					C616.19,663.11,616.37,663.13,616.54,663.13 M643.2,637.62c0.48-0.19,1.03-0.29,1.42-0.6c16.42-12.59,34.8-20.09,55.53-21.57
					c1.68-0.12,3.47-0.43,3.34-2.62c-0.11-1.92-1.52-2.14-2.94-2.14c-0.24,0-0.49,0.01-0.72,0.01c-1.21,0.03-2.41,0.22-3.61,0.39
					c-13.89,1.97-26.91,6.4-38.84,13.86c-5.41,3.39-10.43,7.28-14.9,11.81C642.73,637.05,642.97,637.33,643.2,637.62 M641.97,647.45
					c2.74-2.16,5.91-3.53,8.72-5.48c14.8-10.27,31.27-15.87,49.13-17.64c1.2-0.12,2.42-0.21,3.58-0.49
					c0.98-0.23,1.62-0.96,1.61-2.05c-0.02-1.08-0.67-1.83-1.62-2.07c-0.75-0.19-1.55-0.32-2.34-0.32c-0.28,0-0.56,0.02-0.83,0.05
					c-17.58,2.33-34.09,7.56-48.49,18.28C648.05,640.47,644.58,643.5,641.97,647.45 M643.24,655.63c1.59-0.97,3.24-1.85,4.76-2.92
					c15.46-11,32.55-17.56,51.52-19.04c1.07-0.08,2.15-0.16,3.21-0.32c1.42-0.21,2.76-0.75,2.71-2.42
					c-0.05-1.72-1.42-2.11-2.87-2.11h-0.01c-1.21,0-2.42,0.05-3.63,0.15c-9.33,0.73-18.3,3.1-26.91,6.64
					C661.02,640.14,650.87,646.05,643.24,655.63 M614.09,471.41L614.09,471.41c-3.04,0-4.82,1.3-5.78,2.4
					c-1.27,1.45-1.91,3.43-1.9,5.89c0.02,32.05,0.02,64.63,0.02,96.14v25.09l0,0c-0.06,0.81-0.08,1.91-0.1,3.49
					c-0.04,2.27-0.08,5.54-0.11,9.58c-0.08,7.94-0.16,19.15-0.23,31.58c-0.13,21.95-0.26,52.96-0.23,74.17
					c0,0.26-0.04,0.7-0.09,1.11c-0.19,1.84-0.47,4.61,1.4,6.83c0.79,0.94,2.27,2.1,4.83,2.27c0.23,0.02,0.45,0.02,0.67,0.02
					c2.44,0,3.94-1.01,4.76-1.86c1.96-2.02,1.89-4.7,1.84-6.48c-0.01-0.41-0.02-0.87,0-1.1c3.1-31.17,18.55-53.66,47.25-68.77
					c12.29-6.47,25.64-9.9,39.67-10.21c2.03-0.04,4.97-0.36,7.04-2.53c1.49-1.56,2.2-3.73,2.13-6.45c-0.12-4.3-0.14-8.69-0.17-12.94
					c-0.06-11.19-0.13-22.76-1.86-34.29c-4.25-28.4-11.25-48.99-22.68-66.77c-17.39-27.04-42.56-42.88-74.81-47.07
					C615.16,471.45,614.6,471.41,614.09,471.41L614.09,471.41z M619.01,586.04c0.01-0.15,0.02-0.3,0.03-0.45
					c0.01-0.37,0.02-0.91,0.03-1.62c0.02-1.37,0.04-3.36,0.06-5.81c0.04-4.9,0.09-11.68,0.13-19.22c0.09-16.36,0.15-34.1,0.16-45.22
					c0-0.64,0.02-1.13,0.04-1.49c0.42,0.05,0.92,0.13,1.53,0.24c24.29,4.47,43.54,17.2,57.2,37.83c9.07,13.7,15.3,29.04,19.03,46.9
					c0.4,1.9,0.84,4,0.94,5.14c-1.01,0.27-2.86,0.56-4.66,0.84l-0.8,0.12c-32.57,5.08-57.33,21.46-73.68,48.72
					c-0.01-17.2-0.01-34.41-0.01-51.61L619.01,586.04L619.01,586.04z"/>
			</g>
			<g>
				<path fill="#FFC700" d="M543.74,699.38c-2.87,1.93-5.74,3.86-8.62,5.78c-13.61,9.07-28.74,13.18-44.95,13.77
					c-1.58,0.06-3.67,0.34-3.81-1.89c-0.14-2.27,2.01-2.19,3.56-2.27c11.39-0.65,22.42-2.83,32.86-7.55
					c7.17-3.24,13.77-7.35,19.34-12.99c0.64-0.65,1.47-1.25,1.25-2.58c-1.84-0.66-2.92,0.86-4.11,1.7
					c-14.46,10.21-30.52,15.74-48.2,16.51c-1.07,0.05-2.16,0.03-3.22-0.11c-0.84-0.11-1.47-0.66-1.64-1.56
					c-0.2-1.06,0.21-1.98,1.17-2.31c1.26-0.42,2.61-0.76,3.92-0.77c14.37-0.12,27.57-4.23,39.85-11.51
					c5.18-3.07,9.84-6.74,13.47-11.53c-0.2-0.27-0.4-0.54-0.6-0.81c-3.01,1.92-6.03,3.8-9.02,5.75
					c-13.81,9.03-29.09,13.11-45.45,13.61c-1.5,0.05-3.27,0-3.29-2.04c-0.03-2.03,1.76-2.13,3.24-2.19c9.08-0.36,17.92-2.04,26.49-5
					c18.81-6.5,32.81-18.68,41.98-36.31c2.1-4.04,3.78-8.32,5.41-12.59c1.04-2.73,0.32-4.43-3.11-4.99
					c-24.94-4.05-45.08-16.44-60.65-36.12c-19.36-24.49-26.98-52.93-27.15-83.7c-0.07-11.99-0.05-23.99-0.02-35.98
					c0.01-2.06-0.59-4.91,2.66-4.83c2.88,0.08,2.43,2.77,2.41,4.71c-0.18,13.5,0.09,26.99,3.14,40.2
					c7.46,32.3,23.75,58.43,53.47,74.78c9.01,4.96,18.77,8.07,29.09,9.18c4.74,0.51,5.52-0.07,5.53-4.8
					c0.08-30.59,0.15-61.18,0.23-91.77c0.02-9.16,0.04-18.32,0.08-27.49c0.01-1.6-0.31-3.56,1.45-4.32
					c2.81-1.21,3.68,0.76,3.72,3.04c0.1,5.93,0.03,11.86,0.02,17.79c-0.11,44.88-0.1,89.75-0.38,134.63
					c-0.12,18.78-3.11,37.01-12.52,53.7c-8.68,15.4-21,26.8-37.1,34.1c-10.19,4.61-21.01,6.66-32.04,7.8
					c-1.2,0.12-2.43,0.08-3.63,0.02c-1.34-0.07-2.39-0.66-2.44-2.16s1.05-2.13,2.31-2.36c1.19-0.21,2.41-0.22,3.62-0.28
					c18.59-1.04,35.29-6.84,49.27-19.52C542.92,702.66,543.15,702.38,543.74,699.38z M511.08,596.01c-0.03,2.09,1.06,2.78,1.88,3.6
					c10.19,10.25,22.43,17.12,36.07,21.56c4.87,1.58,9.9,2.64,15.04,2.98c1.39,0.09,2.89-0.16,3.14-1.85
					c0.25-1.68-1.1-2.33-2.46-2.67c-0.91-0.23-1.86-0.27-2.8-0.38c-11.54-1.35-22.19-5.23-32.33-10.87
					C523.25,604.83,517.55,600.36,511.08,596.01z M512.33,588.15c-0.13,0.34-0.24,0.5-0.2,0.56c0.28,0.45,0.55,0.91,0.91,1.3
					c10.95,11.76,24.63,18.84,39.93,23.03c3.49,0.95,7.1,1.47,10.69,2.05c1.68,0.27,3.86,0.71,4.3-1.67
					c0.46-2.46-1.76-2.57-3.44-2.97c-0.26-0.06-0.53-0.06-0.8-0.09c-13.17-1.43-25.39-5.67-36.67-12.55
					C522.05,594.76,517.25,591.4,512.33,588.15z M510.77,605.51c0.14,0.63,0.14,0.93,0.27,1.13c0.3,0.44,0.64,0.86,1.02,1.24
					c11.91,12.09,26.28,19.81,42.64,23.96c2.73,0.69,5.54,1.06,8.33,1.44c1.47,0.2,2.76-0.34,2.89-2.05
					c0.11-1.51-1.01-2.06-2.29-2.31c-0.53-0.1-1.06-0.17-1.59-0.26c-17.5-2.78-33.17-9.64-46.98-20.79
					C513.89,606.94,512.93,605.41,510.77,605.51z"/>
				<path fill="#AF8900" d="M474.99,476.85c0.05,0,0.09,0,0.14,0c2.88,0.08,2.43,2.77,2.41,4.71c-0.18,13.5,0.09,26.99,3.14,40.2
					c7.46,32.3,23.75,58.43,53.47,74.78c9.01,4.96,18.77,8.07,29.09,9.18c0.88,0.09,1.63,0.15,2.25,0.15c2.75,0,3.26-1.1,3.27-4.95
					c0.08-30.59,0.15-61.18,0.23-91.77c0.02-9.16,0.04-18.32,0.08-27.49c0.01-1.6-0.31-3.56,1.45-4.32c0.59-0.25,1.1-0.37,1.53-0.37
					c1.61,0,2.17,1.61,2.2,3.41c0.1,5.93,0.03,11.86,0.02,17.79c-0.11,44.88-0.1,89.75-0.38,134.63
					c-0.12,18.78-3.11,37.01-12.52,53.7c-8.68,15.4-21,26.8-37.1,34.1c-10.19,4.61-21.01,6.66-32.04,7.8
					c-0.56,0.06-1.13,0.08-1.7,0.08c-0.64,0-1.29-0.03-1.93-0.06c-1.34-0.07-2.39-0.66-2.44-2.16s1.05-2.13,2.31-2.36
					c1.19-0.21,2.41-0.22,3.62-0.28c18.59-1.04,35.29-6.84,49.27-19.52c1.58-1.43,1.82-1.72,2.4-4.72
					c-2.87,1.93-5.74,3.86-8.62,5.78c-13.61,9.07-28.74,13.18-44.95,13.77c-0.39,0.01-0.81,0.04-1.23,0.04
					c-1.27,0-2.48-0.26-2.58-1.94c-0.14-2.27,2.01-2.19,3.56-2.27c11.39-0.65,22.42-2.83,32.86-7.55
					c7.17-3.24,13.77-7.35,19.34-12.99c0.64-0.65,1.47-1.25,1.25-2.58c-0.31-0.11-0.6-0.16-0.88-0.16c-1.33,0-2.25,1.17-3.23,1.86
					c-14.46,10.21-30.52,15.74-48.2,16.51c-0.35,0.02-0.7,0.02-1.05,0.02c-0.73,0-1.46-0.04-2.17-0.13
					c-0.84-0.11-1.47-0.66-1.64-1.56c-0.2-1.06,0.21-1.98,1.17-2.31c1.26-0.42,2.61-0.76,3.92-0.77
					c14.37-0.12,27.57-4.23,39.85-11.51c5.18-3.07,9.84-6.74,13.47-11.53c-0.2-0.27-0.4-0.54-0.6-0.81
					c-3.01,1.92-6.03,3.8-9.02,5.75c-13.81,9.03-29.09,13.11-45.45,13.61c-0.17,0.01-0.35,0.01-0.52,0.01
					c-1.36,0-2.74-0.24-2.77-2.05c-0.03-2.03,1.76-2.13,3.24-2.19c9.08-0.36,17.92-2.04,26.49-5c18.81-6.5,32.81-18.68,41.98-36.31
					c2.1-4.04,3.78-8.32,5.41-12.59c1.04-2.73,0.32-4.43-3.11-4.99c-24.94-4.05-45.08-16.44-60.65-36.12
					c-19.36-24.49-26.98-52.93-27.15-83.7c-0.07-11.99-0.05-23.99-0.02-35.98C472.48,479.65,471.9,476.85,474.99,476.85
					 M565.56,615.3c1.11,0,2.1-0.37,2.38-1.89c0.46-2.46-1.76-2.57-3.44-2.97c-0.26-0.06-0.53-0.06-0.8-0.09
					c-13.17-1.43-25.39-5.67-36.67-12.55c-4.99-3.04-9.78-6.41-14.71-9.66c-0.13,0.34-0.24,0.5-0.2,0.56
					c0.28,0.45,0.55,0.91,0.9,1.3c10.95,11.76,24.63,18.84,39.93,23.03c3.49,0.95,7.1,1.47,10.69,2.05
					C564.25,615.18,564.93,615.3,565.56,615.3 M564.54,624.16c1.24,0,2.45-0.37,2.67-1.87c0.25-1.68-1.1-2.33-2.46-2.67
					c-0.91-0.23-1.86-0.27-2.8-0.38c-11.54-1.35-22.19-5.23-32.33-10.87c-6.37-3.54-12.07-8.02-18.54-12.37
					c-0.03,2.09,1.06,2.78,1.88,3.6c10.19,10.25,22.43,17.12,36.07,21.56c4.87,1.58,9.9,2.64,15.04,2.98
					C564.23,624.16,564.39,624.16,564.54,624.16 M563.6,633.33c1.22,0,2.21-0.6,2.32-2.09c0.11-1.51-1.01-2.06-2.29-2.31
					c-0.53-0.1-1.06-0.17-1.59-0.26c-17.5-2.78-33.17-9.64-46.98-20.79c-1.12-0.91-2.06-2.38-4.08-2.38c-0.07,0-0.14,0-0.21,0.01
					c0.14,0.63,0.14,0.93,0.27,1.13c0.3,0.44,0.64,0.86,1.02,1.24c11.91,12.09,26.28,19.81,42.64,23.96
					c2.72,0.69,5.54,1.06,8.33,1.44C563.22,633.32,563.41,633.33,563.6,633.33 M474.99,472.85c-2.45,0-3.94,1.01-4.76,1.86
					c-1.92,1.99-1.83,4.66-1.77,6.26c0.01,0.24,0.02,0.48,0.02,0.7c-0.03,12.74-0.05,24.25,0.02,36.01
					c0.2,34.38,9.36,62.57,28.01,86.16c16.42,20.77,37.62,33.41,63.02,37.57c-1.5,3.92-3.12,8.04-5.08,11.8
					c-8.69,16.7-22.06,28.26-39.73,34.37c-8.19,2.83-16.72,4.44-25.35,4.78c-6.46,0.26-7.11,4.45-7.08,6.24
					c0.01,0.64,0.17,2.94,1.98,4.5c-1.62,1.34-2.41,3.5-1.97,5.82c0.27,1.41,0.99,2.62,2.02,3.47c-0.17,0.15-0.33,0.31-0.49,0.48
					c-0.73,0.81-1.56,2.23-1.43,4.39c0.09,1.51,0.68,3.08,1.95,4.19c-1.44,1.18-2.25,2.91-2.19,4.92c0.11,3.4,2.61,5.83,6.22,6.02
					c0.62,0.03,1.37,0.07,2.15,0.07c0.76,0,1.46-0.03,2.12-0.1c13.74-1.43,24-3.94,33.28-8.14c16.72-7.57,29.82-19.61,38.93-35.78
					c8.76-15.53,12.9-33.21,13.04-55.64c0.2-32.24,0.25-65.02,0.31-96.72c0.02-12.64,0.04-25.28,0.07-37.92
					c0-1.37,0.01-2.73,0.01-4.1c0.02-4.5,0.04-9.16-0.04-13.76c-0.08-5.07-3.17-7.34-6.2-7.34c-0.99,0-2.04,0.23-3.11,0.69
					c-4,1.72-3.91,5.87-3.87,7.43c0,0.19,0.01,0.37,0.01,0.55c-0.03,7.54-0.05,15.07-0.07,22.61l-0.01,4.88l-0.07,28.18
					c-0.05,21.2-0.11,42.4-0.16,63.6c0,0.37-0.01,0.68-0.02,0.93c-0.31-0.02-0.66-0.05-1.08-0.1c-9.71-1.05-18.99-3.98-27.59-8.71
					c-26.85-14.77-43.7-38.38-51.5-72.18c-2.8-12.13-3.24-24.46-3.04-39.25c0-0.18,0.01-0.37,0.02-0.57
					c0.06-1.6,0.15-4.26-1.73-6.27c-0.79-0.84-2.23-1.86-4.59-1.92C475.15,472.85,475.07,472.85,474.99,472.85L474.99,472.85z"/>
			</g>
			<g>
				<path fill="#FFC700" d="M784.4,700.49c-3.24,0.96-5.45,3.25-7.94,4.9c-13.52,9-28.57,12.94-44.55,13.98
					c-1.73,0.11-4,0.33-4.02-2.12c-0.03-2.53,2.4-2.09,4.03-2.18c13.37-0.74,26.04-3.97,37.79-10.52c4.86-2.7,9.25-6.02,13.2-9.92
					c0.88-0.86,2.27-1.56,1.75-3.8c-3.29,2.12-6.37,4.13-9.47,6.12c-13.27,8.49-27.84,12.65-43.53,13.06
					c-1.52,0.04-3.68,0.5-3.75-1.87c-0.06-2.15,1.96-2.29,3.57-2.38c12.5-0.66,24.51-3.14,35.74-8.99
					c5.67-2.96,10.71-6.71,15.49-10.88c0.99-0.86,2.03-1.79,2.12-3.56c-1.79-0.06-3.03,0.92-4.27,1.87
					c-13.61,10.36-29.23,15.22-46.05,16.76c-1.47,0.13-2.96,0.07-4.44-0.03c-1.18-0.08-2.12-0.71-2.14-1.99
					c-0.02-1.25,0.84-1.99,2.01-2.16c1.46-0.22,2.95-0.28,4.42-0.38c31.48-2.06,57.37-19.56,68.51-50.54
					c0.27-0.76,0.59-1.5,0.89-2.25c1.57-3.88,0.89-5.24-3.16-5.81c-20.83-2.93-38.15-12.74-52.75-27.48
					c-16.69-16.84-26.31-37.43-31.44-60.42c-3.75-16.79-2.61-33.78-3.09-50.71c-0.16-5.66-0.05-11.32-0.01-16.98
					c0.02-1.85-0.22-4.3,2.37-4.37c2.74-0.07,2.92,2.36,2.85,4.44c-0.31,9.85-0.27,19.72,1.14,29.45
					c5.22,36.07,21.06,65.63,53.35,84.64c9.61,5.66,20.26,8.6,31.21,10.5c4.05,0.7,4.5-1.79,4.5-4.8
					c-0.04-13.75-0.09-27.49-0.1-41.24c-0.04-25.74-0.06-51.48-0.08-77.22c0-1.07-0.04-2.17,0.17-3.21
					c0.27-1.29,1.13-2.18,2.56-2.11c1.25,0.06,1.95,0.95,2.2,2.05c0.23,1.04,0.29,2.13,0.29,3.2c0.01,53.24,0.34,106.47-0.15,159.7
					c-0.23,25.12-9.22,47.15-28.06,64.43c-10.65,9.77-23.21,16.05-37.46,18.69c-5.42,1.01-10.8,2.42-16.39,2.31
					c-1.69-0.04-3.99,0.47-4.01-2.1c-0.01-2.29,2.17-2.49,3.93-2.54c9.92-0.3,19.53-2.17,28.73-5.89
					c7.91-3.2,15.34-7.25,21.39-13.44C782.87,703.58,784.21,702.61,784.4,700.49z M752.97,589.1c1.14,3.27,4.04,4.83,6.36,6.89
					c12.79,11.33,28.02,17.2,44.68,19.77c1.79,0.28,4.16,0.72,4.4-2.05c0.2-2.35-1.81-2.63-3.64-2.78
					c-13.82-1.11-26.34-5.92-38.13-13.05C762.01,595.09,757.66,591.87,752.97,589.1z M753.1,597.75c-0.64,0.98-0.24,1.4,0.12,1.76
					c14.1,14.33,31.09,22.8,51.07,25.19c1.54,0.18,3.2,0.1,3.39-1.9c0.18-1.95-1.42-2.38-2.94-2.64c-4.77-0.82-9.62-1.17-14.28-2.61
					c-11.94-3.68-22.93-9.19-32.88-16.77C756.14,599.69,754.58,598.75,753.1,597.75z M752.43,606.64c0.71,2.32,1.96,3.2,2.99,4.23
					c10.35,10.33,23.02,16.59,36.81,20.8c3.33,1.02,6.8,1.6,10.23,2.25c1.69,0.32,3.47,0.04,3.79-2c0.3-1.95-1.4-2.33-2.9-2.61
					c-0.66-0.13-1.34-0.14-2-0.26c-10.22-1.9-20.05-4.87-29.28-9.86C765.45,615.61,759.5,611.04,752.43,606.64z"/>
				<path fill="#AF8900" d="M715.81,477.84c2.63,0,2.8,2.39,2.74,4.44c-0.31,9.85-0.27,19.72,1.14,29.45
					c5.22,36.07,21.06,65.63,53.35,84.64c9.61,5.66,20.26,8.6,31.21,10.5c0.47,0.08,0.89,0.12,1.27,0.12c2.88,0,3.24-2.26,3.23-4.92
					c-0.04-13.75-0.09-27.49-0.1-41.24c-0.04-25.74-0.06-51.48-0.08-77.22c0-1.07-0.04-2.17,0.17-3.21
					c0.26-1.25,1.07-2.11,2.41-2.11c0.05,0,0.1,0,0.15,0c1.25,0.06,1.95,0.95,2.2,2.05c0.23,1.04,0.29,2.13,0.29,3.2
					c0.01,53.24,0.34,106.47-0.15,159.7c-0.23,25.12-9.22,47.15-28.06,64.43c-10.65,9.77-23.21,16.05-37.46,18.69
					c-5.21,0.97-10.38,2.31-15.73,2.31c-0.22,0-0.44,0-0.65-0.01c-0.06,0-0.13,0-0.19,0c-0.39,0-0.8,0.02-1.2,0.02
					c-1.34,0-2.6-0.22-2.61-2.12c-0.01-2.29,2.17-2.49,3.93-2.54c9.92-0.3,19.53-2.17,28.73-5.89c7.91-3.2,15.34-7.25,21.39-13.44
					c1.09-1.11,2.43-2.08,2.62-4.2c-3.24,0.96-5.45,3.25-7.94,4.9c-13.52,9-28.57,12.94-44.55,13.98c-0.42,0.03-0.87,0.06-1.31,0.06
					c-1.38,0-2.69-0.33-2.71-2.18c-0.03-2.53,2.4-2.09,4.03-2.18c13.37-0.74,26.04-3.97,37.79-10.52c4.86-2.7,9.25-6.02,13.2-9.92
					c0.88-0.86,2.27-1.56,1.75-3.8c-3.29,2.12-6.37,4.13-9.47,6.12c-13.27,8.49-27.84,12.65-43.53,13.06
					c-0.46,0.01-0.97,0.06-1.46,0.06c-1.16,0-2.24-0.27-2.28-1.93c-0.06-2.15,1.96-2.29,3.57-2.38c12.5-0.66,24.51-3.14,35.74-8.99
					c5.67-2.96,10.71-6.71,15.49-10.88c0.99-0.86,2.03-1.79,2.12-3.56c-0.05,0-0.11,0-0.16,0c-1.7,0-2.91,0.95-4.12,1.87
					c-13.61,10.36-29.23,15.22-46.05,16.76c-0.58,0.05-1.17,0.07-1.76,0.07c-0.89,0-1.79-0.05-2.68-0.11
					c-1.18-0.08-2.12-0.71-2.14-1.99c-0.02-1.25,0.84-1.99,2.01-2.16c1.46-0.22,2.95-0.28,4.42-0.38
					c31.48-2.06,57.37-19.56,68.51-50.54c0.27-0.76,0.59-1.5,0.89-2.25c1.57-3.88,0.89-5.24-3.16-5.81
					c-20.83-2.93-38.15-12.74-52.75-27.48c-16.69-16.84-26.31-37.43-31.44-60.42c-3.75-16.79-2.61-33.78-3.09-50.71
					c-0.16-5.66-0.05-11.32-0.01-16.98c0.02-1.85-0.22-4.3,2.37-4.37C715.74,477.84,715.78,477.84,715.81,477.84 M805.93,615.97
					c1.24,0,2.32-0.43,2.48-2.25c0.2-2.35-1.81-2.63-3.64-2.78c-13.82-1.11-26.34-5.92-38.13-13.05c-4.63-2.8-8.98-6.02-13.67-8.79
					c1.14,3.27,4.04,4.83,6.36,6.89c12.79,11.33,28.02,17.2,44.68,19.77C804.62,615.85,805.29,615.97,805.93,615.97 M805.25,624.77
					c1.2,0,2.27-0.38,2.42-1.96c0.18-1.95-1.42-2.38-2.94-2.64c-4.77-0.82-9.62-1.17-14.28-2.61c-11.94-3.68-22.93-9.19-32.88-16.77
					c-1.44-1.09-2.99-2.03-4.48-3.03c-0.64,0.98-0.24,1.4,0.12,1.76c14.1,14.33,31.09,22.8,51.07,25.19
					C804.6,624.74,804.93,624.77,805.25,624.77 M803.58,634.03c1.29,0,2.43-0.52,2.67-2.11c0.3-1.95-1.4-2.33-2.9-2.61
					c-0.66-0.13-1.34-0.14-2-0.26c-10.22-1.9-20.05-4.87-29.28-9.86c-6.62-3.58-12.58-8.16-19.65-12.55
					c0.71,2.32,1.96,3.2,2.99,4.23c10.35,10.33,23.02,16.59,36.81,20.8c3.33,1.02,6.8,1.6,10.23,2.25
					C802.84,633.99,803.21,634.03,803.58,634.03 M715.81,473.84c-0.07,0-0.14,0-0.21,0c-2.68,0.07-4.76,1.47-5.7,3.84
					c-0.58,1.46-0.57,2.97-0.57,4.08v0.42c-0.01,1.01-0.02,2.02-0.03,3.03c-0.05,4.61-0.1,9.37,0.04,14.09
					c0.12,4.15,0.14,8.4,0.15,12.51c0.06,12.74,0.12,25.92,3.03,38.96c5.73,25.67,16.36,46.07,32.5,62.37
					c15.95,16.1,34.46,25.73,55.03,28.62c0.05,0.01,0.09,0.01,0.14,0.02c-0.04,0.1-0.08,0.22-0.13,0.34l-0.22,0.54
					c-0.24,0.59-0.49,1.21-0.73,1.86c-10.21,28.41-33.91,45.87-65.01,47.9l-0.73,0.05c-1.29,0.08-2.63,0.16-4.02,0.37
					c-3.25,0.48-5.48,3.02-5.43,6.19c0.03,1.81,0.79,3.36,2.04,4.42c-1.78,1.41-2.1,3.42-2.06,4.82c0.04,1.53,0.62,3.21,1.94,4.37
					c-0.11,0.09-0.21,0.19-0.32,0.3c-0.76,0.78-1.67,2.17-1.64,4.37c0.02,1.58,0.58,3.3,1.91,4.52c-1.81,1.52-2.09,3.62-2.08,4.78
					c0.01,1.02,0.35,6.09,6.61,6.09c0.24,0,0.48-0.01,0.71-0.01c0.17,0,0.33-0.01,0.49-0.01h0.11c0.25,0.01,0.49,0.01,0.74,0.01
					c4.58,0,8.92-0.88,13.11-1.72c1.12-0.23,2.23-0.45,3.35-0.66c14.96-2.78,28.23-9.4,39.43-19.68
					c19.23-17.64,29.1-40.3,29.35-67.34c0.35-38.23,0.28-77.09,0.21-114.67c-0.03-14.77-0.06-30.05-0.06-45.07
					c0-1.1-0.04-2.56-0.39-4.08c-0.68-3-2.99-5.03-5.91-5.17c-0.12-0.01-0.23-0.01-0.35-0.01c-3.17,0-5.66,2.08-6.32,5.3
					c-0.27,1.31-0.26,2.53-0.26,3.61v0.42c0.02,25.74,0.04,51.48,0.08,77.23c0.01,10.08,0.04,20.15,0.07,30.23l0.03,11.02
					c0,0.33-0.01,0.6-0.02,0.82c-12.36-2.16-21.79-5.33-29.66-9.97c-29.12-17.14-45.94-43.89-51.42-81.77
					c-1.45-10.05-1.37-20.17-1.1-28.75c0.04-1.34,0.14-4.47-1.98-6.66C719.73,474.87,718.22,473.84,715.81,473.84L715.81,473.84z"/>
			</g>
		</g>
	</g>
	<g display="none">
		<polygon display="inline" points="353.95,792.79 341.01,792.79 341.01,798.96 353.95,798.96 353.95,834.5 361.51,834.5 
			361.51,798.96 374.44,798.96 374.44,792.79 361.51,792.79 		"/>
		<path display="inline" d="M388.35,799.62c0.52-0.56,1.35-0.85,2.48-0.85h16.32l0.36-5.62c-1.93-0.16-3.96-0.28-6.08-0.36
			c-2.12-0.08-4.27-0.12-6.47-0.12s-4.34,0-6.44,0c-2.58,0-4.65,0.72-6.2,2.15c-1.55,1.43-2.33,3.36-2.33,5.77v26.11
			c0,2.42,0.78,4.34,2.33,5.77s3.62,2.15,6.2,2.15c2.09,0,4.24-0.01,6.44-0.03s4.35-0.06,6.47-0.12s4.14-0.17,6.08-0.33l-0.36-5.62
			h-16.32c-1.13,0-1.96-0.28-2.48-0.85c-0.52-0.57-0.78-1.45-0.78-2.66v-9.55h17.29v-5.56h-17.29v-7.62
			C387.56,801.07,387.82,800.19,388.35,799.62z"/>
		<path display="inline" d="M438.85,793.43c-2.12-0.79-4.99-1.18-8.61-1.18c-2.42,0-4.46,0.01-6.13,0.03s-3.23,0.07-4.66,0.15
			s-2.95,0.2-4.56,0.36v41.71h7.56v-16.06c1.1,0.13,2.24,0.25,3.48,0.34c1.67,0.12,3.42,0.18,5.23,0.18c3.34,0,6-0.38,7.98-1.15
			c1.97-0.77,3.39-2.12,4.26-4.05c0.87-1.94,1.3-4.65,1.3-8.16c0-3.51-0.44-6.22-1.33-8.13
			C442.47,795.56,440.97,794.21,438.85,793.43z M436.44,810.17c-0.42,1.07-1.15,1.8-2.18,2.21s-2.43,0.62-4.2,0.67
			c-2.42,0-4.85,0-7.29,0c-0.11,0-0.22,0-0.33,0v-14.83c2.21-0.03,4.74-0.04,7.62-0.04c1.77,0,3.17,0.21,4.2,0.64
			c1.03,0.42,1.75,1.17,2.18,2.24c0.42,1.07,0.64,2.59,0.64,4.56C437.07,807.58,436.86,809.1,436.44,810.17z"/>
		<path display="inline" d="M471.59,793.34c-0.48-0.36-1.05-0.54-1.69-0.54h-7.38c-0.64,0-1.22,0.18-1.72,0.54s-0.84,0.84-1,1.45
			l-12.64,39.72h7.74l3.51-11.91h15.56l3.54,11.91h7.74l-12.63-39.72C472.41,794.18,472.07,793.7,471.59,793.34z M460.17,816.67
			l4.23-14.33c0.2-0.65,0.38-1.29,0.54-1.94c0.16-0.64,0.3-1.27,0.42-1.87h1.69c0.12,0.61,0.26,1.23,0.42,1.87
			c0.16,0.65,0.32,1.29,0.48,1.94l4.26,14.33H460.17z"/>
		<polygon display="inline" points="514.57,792.79 497.89,792.79 497.4,792.79 490.27,792.79 490.27,834.5 497.89,834.5 
			497.89,798.35 514.57,798.35 514.57,834.5 522.13,834.5 522.13,792.79 515.24,792.79 		"/>
		<path display="inline" d="M539.54,799.62c0.52-0.56,1.35-0.85,2.48-0.85h16.32l0.36-5.62c-1.93-0.16-3.96-0.28-6.08-0.36
			c-2.12-0.08-4.27-0.12-6.47-0.12c-2.2,0-4.34,0-6.44,0c-2.58,0-4.65,0.72-6.2,2.15c-1.55,1.43-2.33,3.36-2.33,5.77v26.11
			c0,2.42,0.78,4.34,2.33,5.77s3.62,2.15,6.2,2.15c2.09,0,4.24-0.01,6.44-0.03s4.35-0.06,6.47-0.12s4.14-0.17,6.08-0.33l-0.36-5.62
			h-16.32c-1.13,0-1.96-0.28-2.48-0.85c-0.52-0.57-0.78-1.45-0.78-2.66v-9.55h17.29v-5.56h-17.29v-7.62
			C538.75,801.07,539.01,800.19,539.54,799.62z"/>
		<path display="inline" d="M588.14,812.98v-0.24c2.54-0.24,4.37-1.15,5.5-2.72s1.69-3.85,1.69-6.83c0-2.86-0.46-5.08-1.39-6.65
			s-2.44-2.67-4.53-3.3c-2.1-0.62-4.94-0.94-8.52-0.94c-2.22,0-4.15,0.01-5.8,0.03c-1.65,0.02-3.18,0.06-4.6,0.12
			c-1.41,0.06-2.88,0.17-4.41,0.33v41.71c1.69,0.12,3.33,0.22,4.93,0.3c1.59,0.08,3.32,0.13,5.2,0.15c1.87,0.02,4.08,0.03,6.62,0.03
			c3.26,0,5.91-0.31,7.95-0.94c2.04-0.62,3.53-1.72,4.47-3.29c0.95-1.57,1.42-3.79,1.42-6.65c0-3.34-0.64-5.96-1.9-7.86
			C593.49,814.35,591.28,813.27,588.14,812.98z M580.53,798.11c1.93,0,3.45,0.15,4.53,0.45c1.09,0.3,1.86,0.9,2.33,1.78
			c0.46,0.89,0.69,2.16,0.69,3.81s-0.22,2.92-0.66,3.81s-1.16,1.5-2.15,1.84c-0.99,0.34-2.35,0.51-4.08,0.51h-7.74V798.1
			c0.46,0,0.9,0,1.39,0C576.49,798.11,578.39,798.11,580.53,798.11z M588.38,826.74c-0.44,0.95-1.21,1.59-2.3,1.93
			c-1.09,0.34-2.6,0.51-4.53,0.51c-3.03,0-5.72-0.01-8.1-0.04v-13.68h7.8c2.01,0,3.59,0.21,4.72,0.64c1.13,0.42,1.92,1.15,2.39,2.18
			s0.7,2.51,0.7,4.45C589.05,824.45,588.83,825.79,588.38,826.74z"/>
		<polygon display="inline" points="613.23,792.79 600.29,792.79 600.29,798.96 613.23,798.96 613.23,834.5 620.79,834.5 
			620.79,798.96 633.72,798.96 633.72,792.79 620.79,792.79 		"/>
		<path display="inline" d="M649.26,819.93c-0.44,0.81-0.88,1.64-1.3,2.51s-0.82,1.72-1.18,2.57h-0.24
			c0.08-0.89,0.16-1.79,0.24-2.72s0.12-1.85,0.12-2.78v-26.72h-7.25v41.71h7.5l16.14-27.33c0.4-0.81,0.81-1.64,1.21-2.51
			c0.4-0.86,0.75-1.72,1.03-2.57h0.36c-0.12,0.85-0.22,1.71-0.3,2.6c-0.08,0.89-0.12,1.77-0.12,2.66v27.14h7.25v-41.71h-7.5
			L649.26,819.93z"/>
		<path display="inline" d="M704.15,810.93c-1.23,0.54-2.4,1.01-3.45,1.36c-1.29,0.42-2.51,0.73-3.66,0.91
			c-1.15,0.18-2.37,0.27-3.66,0.27c-1.93,0-3.3-0.39-4.08-1.18s-1.16-2.04-1.12-3.78v-15.72h-7.56v17.29c0,3.35,0.82,5.82,2.45,7.44
			c1.63,1.61,4.16,2.42,7.59,2.42c1.37,0,2.89-0.15,4.56-0.45s3.41-0.79,5.2-1.45c1.27-0.47,2.5-1.06,3.72-1.7v18.17h7.56V792.8
			h-7.56v18.13H704.15z"/>
		<polygon display="inline" points="745.44,809.3 728.75,809.3 728.75,792.79 721.14,792.79 721.14,834.5 728.75,834.5 
			728.75,815.22 745.44,815.22 745.44,834.5 753,834.5 753,792.79 745.44,792.79 		"/>
		<path display="inline" d="M772.1,819.93c-0.44,0.81-0.88,1.64-1.3,2.51s-0.82,1.72-1.18,2.57h-0.24c0.08-0.89,0.16-1.79,0.24-2.72
			s0.12-1.85,0.12-2.78v-26.72h-7.25v41.71h7.5l16.14-27.33c0.4-0.81,0.81-1.64,1.21-2.51c0.4-0.86,0.75-1.72,1.03-2.57h0.36
			c-0.12,0.85-0.22,1.71-0.3,2.6c-0.08,0.89-0.12,1.77-0.12,2.66v27.14h7.25v-41.71h-7.5L772.1,819.93z"/>
		<path display="inline" d="M814.6,819.93c-0.44,0.81-0.88,1.64-1.3,2.51s-0.82,1.72-1.18,2.57h-0.24c0.08-0.89,0.16-1.79,0.24-2.72
			s0.12-1.85,0.12-2.78v-26.72h-7.25v41.71h7.5l16.14-27.33c0.4-0.81,0.81-1.64,1.21-2.51c0.4-0.86,0.75-1.72,1.03-2.57h0.36
			c-0.12,0.85-0.22,1.71-0.3,2.6c-0.08,0.89-0.12,1.77-0.12,2.66v27.14h7.25v-41.71h-7.5L814.6,819.93z"/>
		<path display="inline" d="M816.53,788.41c1.49,0.83,3.28,1.24,5.38,1.24c2.09,0,3.89-0.41,5.38-1.24s2.6-1.91,3.32-3.27
			c0.73-1.35,0.99-2.85,0.79-4.5h-5.02c0.08,1.77-0.27,3.09-1.06,3.96s-1.92,1.3-3.42,1.3c-1.53,0-2.7-0.43-3.51-1.3
			s-1.17-2.19-1.09-3.96h-5.02c-0.16,1.65,0.13,3.15,0.88,4.5C813.92,786.5,815.04,787.58,816.53,788.41z"/>
		<polygon display="inline" points="891.98,792.79 884.36,792.79 884.36,828.94 868.34,828.94 868.34,792.79 860.72,792.79 
			860.72,834.5 867.86,834.5 868.34,834.5 884.36,834.5 890.92,834.5 891.55,843.63 896.93,843.63 896.93,834.5 896.93,834.08 
			896.93,828.94 891.98,828.94 		"/>
		<path display="inline" d="M911.2,799.62c0.52-0.56,1.35-0.85,2.48-0.85H930l0.36-5.62c-1.93-0.16-3.96-0.28-6.08-0.36
			c-2.12-0.08-4.27-0.12-6.47-0.12c-2.2,0-4.34,0-6.44,0c-2.58,0-4.65,0.72-6.2,2.15c-1.55,1.43-2.33,3.36-2.33,5.77v26.11
			c0,2.42,0.78,4.34,2.33,5.77s3.62,2.15,6.2,2.15c2.09,0,4.24-0.01,6.44-0.03s4.35-0.06,6.47-0.12s4.14-0.17,6.08-0.33l-0.36-5.62
			h-16.32c-1.13,0-1.96-0.28-2.48-0.85c-0.52-0.57-0.78-1.45-0.78-2.66v-9.55h17.29v-5.56h-17.29v-7.62
			C910.41,801.07,910.67,800.19,911.2,799.62z"/>
		<polygon display="inline" points="962.04,809.3 945.35,809.3 945.35,792.79 937.74,792.79 937.74,834.5 945.35,834.5 
			945.35,815.22 962.04,815.22 962.04,834.5 969.6,834.5 969.6,792.79 962.04,792.79 		"/>
		<polygon display="inline" points="988.52,792.79 975.58,792.79 975.58,798.96 988.52,798.96 988.52,834.5 996.07,834.5 
			996.07,798.96 1009.01,798.96 1009.01,792.79 996.07,792.79 		"/>
		<path display="inline" d="M1043.41,797.48c-0.89-1.92-2.39-3.27-4.5-4.05c-2.12-0.79-4.99-1.18-8.61-1.18
			c-2.42,0-4.46,0.01-6.14,0.03c-1.67,0.02-3.23,0.07-4.66,0.15s-2.95,0.2-4.56,0.36v41.71h7.56v-16.06
			c1.1,0.13,2.24,0.25,3.48,0.34c1.67,0.12,3.42,0.18,5.23,0.18c3.34,0,6-0.38,7.98-1.15c1.97-0.77,3.39-2.12,4.26-4.05
			c0.87-1.94,1.3-4.65,1.3-8.16C1044.74,802.1,1044.29,799.39,1043.41,797.48z M1036.49,810.17c-0.42,1.07-1.15,1.8-2.18,2.21
			c-1.03,0.4-2.43,0.62-4.2,0.67c-2.42,0-4.85,0-7.29,0c-0.11,0-0.22,0-0.33,0v-14.83c2.21-0.03,4.74-0.04,7.62-0.04
			c1.77,0,3.17,0.21,4.2,0.64c1.03,0.42,1.75,1.17,2.18,2.24c0.42,1.07,0.64,2.59,0.64,4.56
			C1037.12,807.58,1036.91,809.1,1036.49,810.17z"/>
	</g>
	<g>
		
			<linearGradient id="SVGID_00000023981665986759656030000014657122346398636416_" gradientUnits="userSpaceOnUse" x1="201.865" y1="474.53" x2="201.865" y2="535.77" gradientTransform="matrix(1 0 0 -1 0 878)">
			<stop  offset="0" style="stop-color:#FFE500;stop-opacity:0.5"/>
			<stop  offset="1" style="stop-color:#FFC700"/>
		</linearGradient>
		<path fill="url(#SVGID_00000023981665986759656030000014657122346398636416_)" d="M213.83,403.47H189.9
			c-4.28,0-7.75-3.47-7.75-7.75V360c0-9.82,7.96-17.77,17.77-17.77h3.89c9.82,0,17.77,7.96,17.77,17.77v35.72
			C221.58,400,218.11,403.47,213.83,403.47z"/>
		<path fill="#AF8900" d="M203.81,342.23c9.82,0,17.77,7.96,17.77,17.77v35.72c0,4.28-3.47,7.75-7.75,7.75H189.9
			c-4.28,0-7.75-3.47-7.75-7.75V360c0-9.82,7.96-17.77,17.77-17.77H203.81 M203.81,338.23h-3.89c-12,0-21.77,9.77-21.77,21.77v35.72
			c0,6.48,5.27,11.75,11.75,11.75h23.94c6.48,0,11.75-5.27,11.75-11.75V360C225.58,348,215.81,338.23,203.81,338.23L203.81,338.23z"
			/>
	</g>
	<g>
		<path d="M363.525,793.063c3.5,0,6.271,0.379,8.312,1.137c2.042,0.759,3.49,2.062,4.345,3.908c0.855,1.848,1.283,4.462,1.283,7.846
			c0,3.383-0.418,6.008-1.254,7.874c-0.837,1.866-2.208,3.17-4.112,3.908c-1.906,0.739-4.472,1.108-7.699,1.108
			c-1.75,0-3.433-0.059-5.045-0.175c-1.614-0.117-3.112-0.272-4.492-0.467c-1.38-0.194-2.557-0.398-3.529-0.612
			c-0.972-0.214-1.653-0.398-2.042-0.555l0.175-3.908c2.216,0,4.5,0,6.854,0c2.352,0,4.695,0,7.029,0
			c1.71-0.038,3.062-0.252,4.054-0.642c0.992-0.388,1.691-1.098,2.1-2.129c0.408-1.029,0.613-2.498,0.613-4.403
			s-0.205-3.373-0.613-4.404c-0.408-1.029-1.108-1.75-2.1-2.158s-2.343-0.612-4.054-0.612c-3.422,0-6.358,0.021-8.808,0.059
			c-2.45,0.039-4.122,0.098-5.016,0.175l-0.816-5.425c1.555-0.154,3.023-0.271,4.404-0.35c1.38-0.078,2.877-0.126,4.491-0.146
			C359.218,793.073,361.192,793.063,363.525,793.063z M356.001,793.588v40.247h-7.291v-40.247H356.001z"/>
		<path d="M391.989,793.472c2.021,0,4.092,0,6.212,0c2.119,0,4.2,0.039,6.241,0.116c2.042,0.078,3.995,0.195,5.862,0.351
			l-0.35,5.424h-15.749c-1.089,0-1.887,0.272-2.392,0.817c-0.506,0.545-0.758,1.399-0.758,2.566v21.932
			c0,1.166,0.252,2.021,0.758,2.566c0.505,0.545,1.302,0.816,2.392,0.816h15.749l0.35,5.425c-1.867,0.155-3.82,0.262-5.862,0.32
			s-4.123,0.097-6.241,0.117c-2.12,0.019-4.191,0.028-6.212,0.028c-2.489,0-4.482-0.689-5.979-2.07
			c-1.498-1.38-2.246-3.237-2.246-5.57v-25.198c0-2.333,0.748-4.189,2.246-5.57C387.507,794.162,389.5,793.472,391.989,793.472z
			 M384.757,810.095h22.981v5.366h-22.981V810.095z"/>
		<path d="M435.094,793.588c0.622,0,1.167,0.175,1.633,0.525c0.467,0.35,0.796,0.816,0.992,1.399l12.191,38.322h-7.466
			l-9.216-31.031c-0.156-0.621-0.312-1.244-0.467-1.866c-0.156-0.622-0.292-1.225-0.408-1.809h-1.633
			c-0.117,0.584-0.253,1.187-0.408,1.809c-0.156,0.622-0.331,1.245-0.525,1.866l-9.158,31.031h-7.466l12.191-38.322
			c0.155-0.583,0.476-1.05,0.962-1.399c0.486-0.351,1.04-0.525,1.662-0.525H435.094z M441.86,816.628v5.716h-20.707v-5.716H441.86z"
			/>
		<path d="M481.174,793.588l-0.642,5.658h-18.49v34.589h-7.291v-40.247c2.254-0.154,4.491-0.263,6.708-0.32
			c2.217-0.059,4.375-0.088,6.475-0.088c2.294,0,4.53,0.039,6.708,0.117C476.819,793.375,478.996,793.472,481.174,793.588z
			 M469.275,810.387c3.577,0,6.406,0.379,8.487,1.138c2.08,0.758,3.558,2.003,4.433,3.732c0.875,1.731,1.312,4.112,1.312,7.146
			c0,2.566-0.292,4.638-0.875,6.212c-0.583,1.575-1.468,2.771-2.654,3.588c-1.187,0.816-2.683,1.38-4.491,1.691
			c-1.808,0.311-3.918,0.467-6.329,0.467c-1.75,0-3.403-0.021-4.958-0.059c-1.556-0.039-3.083-0.098-4.579-0.175
			c-1.497-0.079-3.062-0.176-4.695-0.292l0.816-5.366c0.895,0.039,2.538,0.078,4.929,0.116c2.391,0.04,5.258,0.059,8.604,0.059
			c1.866,0,3.295-0.165,4.287-0.496c0.992-0.329,1.671-0.971,2.042-1.925c0.369-0.952,0.554-2.322,0.554-4.111
			c0-1.672-0.175-2.994-0.525-3.967c-0.35-0.972-1.021-1.662-2.012-2.07c-0.992-0.409-2.44-0.613-4.345-0.613h-13.591v-5.074
			H469.275z"/>
		<path d="M497.797,793.588v40.247h-7.291v-40.247H497.797z"/>
		<path d="M535.886,793.588v5.366h-12.891c-2.45,0-3.772,1.226-3.966,3.675c-0.233,2.956-0.458,5.58-0.671,7.874
			c-0.214,2.295-0.467,4.346-0.758,6.154c-0.292,1.808-0.612,3.441-0.962,4.899s-0.816,2.829-1.4,4.112
			c-0.778,2.022-1.741,3.675-2.887,4.958c-1.147,1.283-2.479,2.197-3.996,2.741s-3.208,0.738-5.075,0.583l-0.583-5.657
			c1.283-0.311,2.4-0.788,3.354-1.43c0.952-0.642,1.759-1.7,2.42-3.179c0.388-0.894,0.729-1.827,1.021-2.8
			c0.292-0.972,0.554-2.051,0.787-3.237c0.233-1.186,0.447-2.537,0.642-4.054c0.194-1.517,0.379-3.246,0.554-5.191
			c0.175-1.943,0.359-4.16,0.554-6.649c0.467-5.443,3.383-8.166,8.75-8.166H535.886z M536.761,793.588v40.247h-7.35v-40.247H536.761
			z"/>
		<path d="M553.151,793.588v40.247h-7.291v-40.247H553.151z"/>
		<path d="M591.123,793.588v5.949h-32.256v-5.949H591.123z M578.641,793.588v40.247h-7.291v-40.247H578.641z"/>
		<path d="M614.512,793.588c0.621,0,1.166,0.175,1.633,0.525c0.467,0.35,0.797,0.816,0.991,1.399l12.191,38.322h-7.467
			l-9.216-31.031c-0.155-0.621-0.312-1.244-0.466-1.866c-0.156-0.622-0.292-1.225-0.409-1.809h-1.633
			c-0.116,0.584-0.253,1.187-0.408,1.809c-0.156,0.622-0.331,1.245-0.525,1.866l-9.157,31.031h-7.466l12.19-38.322
			c0.155-0.583,0.476-1.05,0.962-1.399c0.486-0.351,1.04-0.525,1.663-0.525H614.512z M621.277,816.628v5.716H600.57v-5.716H621.277z
			"/>
		<path d="M634.169,833.835v-40.247h7.35v40.247H634.169z M641.052,833.835v-5.366h28.056v5.366H641.052z M656.976,833.835v-40.247
			h7.35v40.247H656.976z M663.917,842.643l-0.643-9.216h5.833v9.216H663.917z"/>
		<path d="M682.464,793.588v40.247h-7.291v-40.247H682.464z"/>
		<path d="M723.468,793.588v40.247h-6.999v-26.189c0-0.855,0.038-1.711,0.116-2.566s0.176-1.691,0.292-2.509h-0.35
			c-0.272,0.817-0.604,1.644-0.992,2.479c-0.389,0.837-0.778,1.644-1.166,2.421l-15.574,26.364h-7.232v-40.247h6.999v25.84
			c0,0.855-0.039,1.73-0.116,2.625c-0.078,0.895-0.156,1.77-0.233,2.625h0.233c0.35-0.817,0.729-1.643,1.138-2.479
			c0.408-0.836,0.825-1.643,1.254-2.421l15.398-26.189H723.468z M712.152,781.864h4.842c0.193,1.595-0.059,3.043-0.759,4.345
			c-0.7,1.304-1.77,2.354-3.208,3.15c-1.439,0.797-3.17,1.195-5.191,1.195c-2.022,0-3.753-0.398-5.191-1.195
			s-2.518-1.847-3.237-3.15c-0.72-1.302-1.001-2.75-0.846-4.345h4.842c-0.078,1.711,0.271,2.984,1.05,3.82
			c0.777,0.837,1.904,1.254,3.383,1.254c1.438,0,2.537-0.417,3.296-1.254C711.89,784.849,712.229,783.575,712.152,781.864z"/>
		<path d="M739.917,793.588v40.247h-7.35v-40.247H739.917z M756.657,809.512v5.717H739.45v-5.717H756.657z M763.307,793.588v40.247
			h-7.291v-40.247H763.307z"/>
		<path d="M804.369,793.588v40.247h-6.999v-26.189c0-0.855,0.038-1.711,0.116-2.566s0.176-1.691,0.292-2.509h-0.35
			c-0.272,0.817-0.604,1.644-0.992,2.479c-0.389,0.837-0.778,1.644-1.166,2.421l-15.574,26.364h-7.232v-40.247h6.999v25.84
			c0,0.855-0.039,1.73-0.116,2.625c-0.078,0.895-0.156,1.77-0.233,2.625h0.233c0.35-0.817,0.729-1.643,1.138-2.479
			c0.408-0.836,0.825-1.643,1.254-2.421l15.398-26.189H804.369z"/>
		<path d="M845.373,793.588v40.247h-6.999v-26.189c0-0.855,0.038-1.711,0.116-2.566s0.176-1.691,0.292-2.509h-0.35
			c-0.272,0.817-0.604,1.644-0.992,2.479c-0.389,0.837-0.778,1.644-1.166,2.421L820.7,833.835h-7.232v-40.247h6.999v25.84
			c0,0.855-0.039,1.73-0.116,2.625c-0.078,0.895-0.156,1.77-0.233,2.625h0.233c0.35-0.817,0.729-1.643,1.138-2.479
			c0.408-0.836,0.825-1.643,1.254-2.421l15.398-26.189H845.373z M834.058,781.864h4.842c0.193,1.595-0.059,3.043-0.759,4.345
			c-0.7,1.304-1.77,2.354-3.208,3.15c-1.439,0.797-3.17,1.195-5.191,1.195c-2.022,0-3.753-0.398-5.191-1.195
			s-2.518-1.847-3.237-3.15c-0.72-1.302-1.001-2.75-0.846-4.345h4.842c-0.078,1.711,0.271,2.984,1.05,3.82
			c0.777,0.837,1.904,1.254,3.383,1.254c1.438,0,2.537-0.417,3.296-1.254C833.795,784.849,834.135,783.575,834.058,781.864z"/>
		<path d="M867.246,833.835v-40.247h7.35v40.247H867.246z M874.129,833.835v-5.366h28.056v5.366H874.129z M890.053,833.835v-40.247
			h7.35v40.247H890.053z M896.994,842.643l-0.643-9.216h5.833v9.216H896.994z"/>
		<path d="M916.125,793.472c2.021,0,4.093,0,6.212,0s4.2,0.039,6.241,0.116c2.042,0.078,3.996,0.195,5.862,0.351l-0.35,5.424
			h-15.749c-1.089,0-1.887,0.272-2.392,0.817c-0.506,0.545-0.758,1.399-0.758,2.566v21.932c0,1.166,0.252,2.021,0.758,2.566
			c0.505,0.545,1.303,0.816,2.392,0.816h15.749l0.35,5.425c-1.866,0.155-3.82,0.262-5.862,0.32
			c-2.041,0.059-4.122,0.097-6.241,0.117c-2.119,0.019-4.19,0.028-6.212,0.028c-2.489,0-4.482-0.689-5.979-2.07
			c-1.497-1.38-2.246-3.237-2.246-5.57v-25.198c0-2.333,0.749-4.189,2.246-5.57C911.643,794.162,913.636,793.472,916.125,793.472z
			 M908.893,810.095h22.981v5.366h-22.981V810.095z"/>
		<path d="M948.906,793.588v40.247h-7.35v-40.247H948.906z M965.646,809.512v5.717h-17.207v-5.717H965.646z M972.296,793.588v40.247
			h-7.291v-40.247H972.296z"/>
		<path d="M1010.326,793.588v5.949H978.07v-5.949H1010.326z M997.844,793.588v40.247h-7.291v-40.247H997.844z"/>
		<path d="M1030.856,793.063c3.5,0,6.271,0.379,8.312,1.137c2.042,0.759,3.49,2.062,4.346,3.908
			c0.854,1.848,1.283,4.462,1.283,7.846c0,3.383-0.418,6.008-1.254,7.874c-0.837,1.866-2.207,3.17-4.112,3.908
			c-1.905,0.739-4.472,1.108-7.699,1.108c-1.75,0-3.433-0.059-5.046-0.175c-1.613-0.117-3.111-0.272-4.491-0.467
			c-1.381-0.194-2.558-0.398-3.528-0.612c-0.973-0.214-1.653-0.398-2.042-0.555l0.175-3.908c2.217,0,4.501,0,6.854,0
			s4.696,0,7.029,0c1.71-0.038,3.062-0.252,4.054-0.642c0.991-0.388,1.691-1.098,2.1-2.129c0.408-1.029,0.612-2.498,0.612-4.403
			s-0.204-3.373-0.612-4.404c-0.408-1.029-1.108-1.75-2.1-2.158s-2.344-0.612-4.054-0.612c-3.423,0-6.358,0.021-8.808,0.059
			c-2.45,0.039-4.122,0.098-5.017,0.175l-0.816-5.425c1.555-0.154,3.022-0.271,4.403-0.35c1.38-0.078,2.878-0.126,4.491-0.146
			C1026.549,793.073,1028.523,793.063,1030.856,793.063z M1023.332,793.588v40.247h-7.291v-40.247H1023.332z"/>
	</g>
	<g display="none">
		<path display="inline" d="M373.747,796.299v5.267h-28.555v-5.267H373.747z M362.697,796.299v35.629h-6.455v-35.629H362.697z"/>
		<path display="inline" d="M385.21,796.299v35.629h-6.455v-35.629H385.21z M400.081,810.396v5.061h-15.284v-5.061H400.081z
			 M405.967,796.299v35.629h-6.454v-35.629H405.967z"/>
		<path display="inline" d="M420.942,796.195c1.79,0,3.623,0,5.499,0c1.876,0,3.726,0.035,5.551,0.104
			c1.824,0.069,3.545,0.173,5.164,0.31l-0.31,4.803h-13.942c-0.964,0-1.678,0.241-2.143,0.723c-0.465,0.482-0.697,1.239-0.697,2.271
			v19.416c0,1.032,0.232,1.79,0.697,2.271c0.465,0.482,1.179,0.723,2.143,0.723h13.942l0.31,4.803
			c-1.619,0.138-3.339,0.232-5.164,0.284c-1.825,0.051-3.675,0.085-5.551,0.103c-1.876,0.018-3.709,0.026-5.499,0.026
			c-2.204,0-3.968-0.611-5.293-1.833s-2.005-2.866-2.04-4.932V802.96c0.034-2.065,0.714-3.709,2.04-4.932
			C416.974,796.807,418.738,796.195,420.942,796.195z M414.539,810.912h20.345v4.75h-20.345V810.912z"/>
		<path display="inline" d="M467.775,795.834c2.96,0,5.361,0.31,7.203,0.93c1.841,0.619,3.184,1.678,4.027,3.176
			c0.843,1.497,1.265,3.606,1.265,6.325c0,1.79-0.215,3.313-0.646,4.569c-0.431,1.258-1.136,2.256-2.117,2.995
			c-0.981,0.741-2.298,1.214-3.95,1.42v0.259c0.585,0.138,1.195,0.404,1.833,0.8c0.636,0.396,1.221,0.955,1.755,1.679
			c0.533,0.723,0.938,1.652,1.213,2.788l3.253,11.153h-6.816l-2.943-10.998c-0.379-1.239-0.896-2.108-1.549-2.608
			c-0.654-0.498-1.549-0.748-2.685-0.748c-2.238,0-4.148-0.009-5.731-0.026c-1.584-0.017-2.9-0.043-3.95-0.077
			c-1.05-0.034-1.971-0.052-2.763-0.052l0.155-4.905h12.289c1.549-0.034,2.771-0.215,3.667-0.542
			c0.895-0.327,1.531-0.912,1.91-1.756c0.378-0.843,0.568-2.04,0.568-3.589c0-1.515-0.19-2.685-0.568-3.511
			c-0.379-0.826-1.016-1.402-1.91-1.73c-0.896-0.326-2.117-0.49-3.667-0.49c-3.029,0-5.628,0.018-7.797,0.052
			c-2.169,0.034-3.649,0.069-4.441,0.104l-0.723-4.751c1.376-0.137,2.676-0.24,3.898-0.31c1.222-0.069,2.556-0.111,4.002-0.129
			S465.744,795.834,467.775,795.834z M461.011,796.299v35.629h-6.351v-35.629H461.011z"/>
		<path display="inline" d="M494.471,796.195c1.79,0,3.623,0,5.499,0c1.876,0,3.726,0.035,5.551,0.104
			c1.824,0.069,3.545,0.173,5.164,0.31l-0.31,4.803h-13.942c-0.964,0-1.678,0.241-2.143,0.723c-0.465,0.482-0.697,1.239-0.697,2.271
			v19.416c0,1.032,0.232,1.79,0.697,2.271c0.465,0.482,1.179,0.723,2.143,0.723h13.942l0.31,4.803
			c-1.619,0.138-3.339,0.232-5.164,0.284c-1.825,0.051-3.675,0.085-5.551,0.103c-1.876,0.018-3.709,0.026-5.499,0.026
			c-2.204,0-3.968-0.611-5.293-1.833s-2.005-2.866-2.04-4.932V802.96c0.034-2.065,0.714-3.709,2.04-4.932
			C490.503,796.807,492.267,796.195,494.471,796.195z M488.068,810.912h20.345v4.75h-20.345V810.912z"/>
		<path display="inline" d="M523.335,796.299v35.629h-6.455v-35.629H523.335z M538.206,810.396v5.061h-15.284v-5.061H538.206z
			 M544.093,796.299v35.629h-6.455v-35.629H544.093z"/>
		<path display="inline" d="M567.742,796.299c0.55,0,1.032,0.155,1.445,0.465s0.705,0.723,0.878,1.239l10.792,33.925h-6.609
			l-8.158-27.471c-0.139-0.55-0.276-1.101-0.413-1.652c-0.139-0.55-0.259-1.084-0.362-1.601h-1.445
			c-0.104,0.517-0.225,1.051-0.361,1.601c-0.139,0.552-0.293,1.103-0.465,1.652l-8.107,27.471h-6.609l10.792-33.925
			c0.138-0.517,0.422-0.93,0.853-1.239c0.43-0.31,0.92-0.465,1.472-0.465H567.742z M573.731,816.695v5.061H555.4v-5.061H573.731z"/>
		<path display="inline" d="M597.743,795.886c3.028,0,5.438,0.267,7.229,0.801c1.79,0.533,3.09,1.471,3.899,2.813
			c0.808,1.343,1.213,3.236,1.213,5.681c0,2.548-0.482,4.492-1.445,5.834c-0.965,1.343-2.548,2.117-4.751,2.324v0.206
			c2.719,0.241,4.621,1.171,5.706,2.789c1.084,1.618,1.626,3.855,1.626,6.712c0,2.445-0.404,4.338-1.213,5.681
			c-0.81,1.342-2.083,2.28-3.821,2.813c-1.738,0.534-4.002,0.801-6.79,0.801c-2.169,0-4.062-0.009-5.68-0.025
			c-1.619-0.019-3.099-0.061-4.441-0.13c-1.342-0.069-2.736-0.154-4.183-0.258l0.724-4.699c0.826,0.035,2.357,0.069,4.596,0.104
			c2.237,0.035,4.87,0.052,7.9,0.052c1.617,0,2.892-0.146,3.82-0.438c0.93-0.293,1.592-0.844,1.988-1.652
			c0.396-0.809,0.594-1.954,0.594-3.435c0-1.652-0.206-2.917-0.619-3.795s-1.094-1.497-2.04-1.859
			c-0.947-0.361-2.281-0.542-4.002-0.542h-12.289v-4.389h12.237c1.479,0,2.642-0.146,3.485-0.439
			c0.844-0.292,1.454-0.817,1.833-1.574s0.568-1.842,0.568-3.253s-0.198-2.496-0.594-3.254c-0.396-0.757-1.059-1.265-1.988-1.522
			c-0.929-0.259-2.22-0.388-3.872-0.388c-1.825,0-3.443,0-4.854,0s-2.668,0.009-3.77,0.025c-1.102,0.019-2.1,0.061-2.994,0.13
			l-0.724-4.699c1.309-0.137,2.557-0.232,3.744-0.284s2.495-0.085,3.924-0.104C594.188,795.895,595.85,795.886,597.743,795.886z
			 M591.392,796.299v35.629h-6.3v-35.629H591.392z"/>
		<path display="inline" d="M624.18,796.299v35.629h-6.455v-35.629H624.18z"/>
		<path display="inline" d="M638.431,796.299v27.367c0,0.999,0.267,1.747,0.801,2.246c0.533,0.499,1.299,0.749,2.298,0.749h12.599
			l0.311,4.905c-2.342,0.206-4.776,0.336-7.307,0.387c-2.53,0.052-5.035,0.078-7.514,0.078c-2.616,0-4.535-0.672-5.757-2.014
			c-1.223-1.343-1.833-3.047-1.833-5.112v-28.606H638.431z"/>
		<path display="inline" d="M665.746,796.299v35.629h-6.455v-35.629H665.746z"/>
		<path display="inline" d="M699.309,796.299v5.267h-28.555v-5.267H699.309z M688.258,796.299v35.629h-6.454v-35.629H688.258z"/>
		<path display="inline" d="M716.969,796.299c0.55,0,1.032,0.155,1.445,0.465s0.705,0.723,0.878,1.239l10.792,33.925h-6.609
			l-8.158-27.471c-0.139-0.55-0.276-1.101-0.413-1.652c-0.139-0.55-0.259-1.084-0.362-1.601h-1.445
			c-0.104,0.517-0.225,1.051-0.361,1.601c-0.139,0.552-0.293,1.103-0.465,1.652l-8.107,27.471h-6.609l10.792-33.925
			c0.138-0.517,0.422-0.93,0.853-1.239c0.43-0.31,0.92-0.465,1.472-0.465H716.969z M722.958,816.695v5.061h-18.331v-5.061H722.958z"
			/>
		<path display="inline" d="M756.884,796.299v5.267h-28.555v-5.267H756.884z M745.833,796.299v35.629h-6.454v-35.629H745.833z"/>
		<path display="inline" d="M768.346,796.299v35.629h-6.455v-35.629H768.346z"/>
		<path display="inline" d="M789.826,795.628c2.754,0,5.077,0.302,6.971,0.903c1.893,0.603,3.408,1.609,4.544,3.021
			c1.136,1.412,1.971,3.305,2.504,5.68c0.534,2.376,0.801,5.337,0.801,8.882c0,3.512-0.267,6.463-0.801,8.855
			c-0.533,2.394-1.368,4.295-2.504,5.706c-1.136,1.412-2.651,2.419-4.544,3.021c-1.894,0.602-4.217,0.903-6.971,0.903
			c-2.686,0-4.975-0.302-6.868-0.903s-3.426-1.608-4.596-3.021c-1.17-1.411-2.014-3.312-2.529-5.706
			c-0.517-2.393-0.775-5.344-0.775-8.855c0-3.545,0.259-6.506,0.775-8.882c0.516-2.375,1.359-4.268,2.529-5.68
			c1.17-1.411,2.702-2.418,4.596-3.021C784.852,795.93,787.141,795.628,789.826,795.628z M789.826,800.895
			c-2.032,0-3.624,0.405-4.776,1.213c-1.154,0.81-1.972,2.169-2.453,4.08c-0.482,1.91-0.723,4.553-0.723,7.926
			c0,3.374,0.24,6.016,0.723,7.926c0.481,1.911,1.299,3.271,2.453,4.08c1.152,0.809,2.744,1.213,4.776,1.213
			c2.065,0,3.674-0.404,4.828-1.213c1.152-0.809,1.97-2.169,2.452-4.08c0.481-1.91,0.723-4.552,0.723-7.926
			c0-3.373-0.241-6.016-0.723-7.926c-0.482-1.911-1.3-3.271-2.452-4.08C793.5,801.3,791.892,800.895,789.826,800.895z"/>
		<path display="inline" d="M840.326,796.299v33.202c0,1.618-0.793,2.427-2.376,2.427h-4.389c-0.723,0-1.274-0.163-1.652-0.49
			c-0.379-0.327-0.723-0.817-1.033-1.472l-10.792-21.48c-0.379-0.757-0.767-1.592-1.161-2.505c-0.396-0.911-0.715-1.781-0.956-2.607
			h-0.671c0.068,0.86,0.129,1.729,0.181,2.607s0.077,1.748,0.077,2.607v23.34h-6.196v-33.202c0-1.617,0.792-2.427,2.376-2.427h4.285
			c0.724,0,1.273,0.164,1.652,0.49c0.379,0.328,0.724,0.818,1.033,1.472l10.482,20.913c0.413,0.758,0.834,1.609,1.265,2.556
			c0.43,0.947,0.834,1.902,1.214,2.866h0.774c-0.069-0.998-0.129-1.971-0.181-2.918c-0.052-0.946-0.078-1.885-0.078-2.813v-22.565
			H840.326z"/>
		<path display="inline" d="M872.959,795.679c1.618,0,2.995,0.044,4.131,0.13s2.186,0.206,3.15,0.361
			c0.963,0.154,1.962,0.37,2.994,0.646l-0.567,4.802c-1.067-0.068-2.065-0.129-2.995-0.181s-1.92-0.095-2.969-0.129
			c-1.051-0.034-2.298-0.052-3.744-0.052c-1.997,0-3.562,0.396-4.699,1.188c-1.136,0.792-1.936,2.117-2.4,3.977
			c-0.465,1.858-0.697,4.423-0.697,7.693s0.232,5.835,0.697,7.693c0.465,1.859,1.265,3.185,2.4,3.977
			c1.137,0.792,2.702,1.188,4.699,1.188c2.306,0,4.242-0.043,5.81-0.129c1.565-0.086,3.105-0.215,4.621-0.388l0.568,4.751
			c-1.55,0.482-3.15,0.826-4.803,1.032c-1.652,0.207-3.718,0.311-6.196,0.311c-3.58,0-6.438-0.595-8.571-1.782
			c-2.135-1.188-3.675-3.124-4.622-5.809c-0.946-2.686-1.42-6.3-1.42-10.844s0.474-8.158,1.42-10.844
			c0.947-2.685,2.487-4.621,4.622-5.809C866.521,796.273,869.379,795.679,872.959,795.679z"/>
		<path display="inline" d="M896.556,796.195c1.79,0,3.623,0,5.5,0c1.876,0,3.726,0.035,5.551,0.104
			c1.824,0.069,3.545,0.173,5.163,0.31l-0.31,4.803h-13.941c-0.965,0-1.679,0.241-2.144,0.723c-0.464,0.482-0.696,1.239-0.696,2.271
			v19.416c0,1.032,0.232,1.79,0.696,2.271c0.465,0.482,1.179,0.723,2.144,0.723h13.941l0.31,4.803
			c-1.618,0.138-3.339,0.232-5.163,0.284c-1.825,0.051-3.675,0.085-5.551,0.103c-1.877,0.018-3.71,0.026-5.5,0.026
			c-2.203,0-3.968-0.611-5.292-1.833c-1.326-1.222-2.006-2.866-2.04-4.932V802.96c0.034-2.065,0.714-3.709,2.04-4.932
			C892.588,796.807,894.353,796.195,896.556,796.195z M890.153,810.912h20.345v4.75h-20.345V810.912z"/>
		<path display="inline" d="M947.934,796.299v33.202c0,1.618-0.793,2.427-2.376,2.427h-4.389c-0.723,0-1.274-0.163-1.652-0.49
			c-0.379-0.327-0.723-0.817-1.033-1.472l-10.792-21.48c-0.379-0.757-0.767-1.592-1.161-2.505c-0.396-0.911-0.715-1.781-0.956-2.607
			h-0.671c0.068,0.86,0.129,1.729,0.181,2.607s0.077,1.748,0.077,2.607v23.34h-6.196v-33.202c0-1.617,0.792-2.427,2.376-2.427h4.285
			c0.724,0,1.273,0.164,1.652,0.49c0.379,0.328,0.724,0.818,1.033,1.472l10.482,20.913c0.413,0.758,0.834,1.609,1.265,2.556
			c0.43,0.947,0.834,1.902,1.214,2.866h0.774c-0.069-0.998-0.129-1.971-0.181-2.918c-0.052-0.946-0.078-1.885-0.078-2.813v-22.565
			H947.934z"/>
		<path display="inline" d="M981.497,796.299v5.267h-28.555v-5.267H981.497z M970.446,796.299v35.629h-6.454v-35.629H970.446z"/>
		<path display="inline" d="M993.527,796.195c1.79,0,3.623,0,5.5,0c1.876,0,3.726,0.035,5.551,0.104
			c1.824,0.069,3.545,0.173,5.163,0.31l-0.31,4.803H995.49c-0.965,0-1.679,0.241-2.144,0.723c-0.464,0.482-0.696,1.239-0.696,2.271
			v19.416c0,1.032,0.232,1.79,0.696,2.271c0.465,0.482,1.179,0.723,2.144,0.723h13.941l0.31,4.803
			c-1.618,0.138-3.339,0.232-5.163,0.284c-1.825,0.051-3.675,0.085-5.551,0.103c-1.877,0.018-3.71,0.026-5.5,0.026
			c-2.203,0-3.968-0.611-5.292-1.833c-1.326-1.222-2.006-2.866-2.04-4.932V802.96c0.034-2.065,0.714-3.709,2.04-4.932
			C989.56,796.807,991.324,796.195,993.527,796.195z M987.125,810.912h20.345v4.75h-20.345V810.912z"/>
		<path display="inline" d="M1029.053,795.834c2.96,0,5.361,0.31,7.203,0.93c1.841,0.619,3.184,1.678,4.027,3.176
			c0.844,1.497,1.266,3.606,1.266,6.325c0,1.79-0.216,3.313-0.646,4.569c-0.432,1.258-1.137,2.256-2.117,2.995
			c-0.981,0.741-2.298,1.214-3.95,1.42v0.259c0.585,0.138,1.195,0.404,1.833,0.8c0.637,0.396,1.222,0.955,1.756,1.679
			c0.533,0.723,0.938,1.652,1.213,2.788l3.253,11.153h-6.815l-2.943-10.998c-0.379-1.239-0.896-2.108-1.549-2.608
			c-0.654-0.498-1.55-0.748-2.686-0.748c-2.238,0-4.148-0.009-5.731-0.026c-1.584-0.017-2.9-0.043-3.95-0.077
			c-1.051-0.034-1.971-0.052-2.763-0.052l0.155-4.905h12.289c1.549-0.034,2.771-0.215,3.666-0.542s1.531-0.912,1.911-1.756
			c0.378-0.843,0.567-2.04,0.567-3.589c0-1.515-0.189-2.685-0.567-3.511c-0.38-0.826-1.016-1.402-1.911-1.73
			c-0.896-0.326-2.117-0.49-3.666-0.49c-3.029,0-5.628,0.018-7.797,0.052s-3.649,0.069-4.44,0.104l-0.724-4.751
			c1.377-0.137,2.677-0.24,3.898-0.31s2.557-0.111,4.002-0.129C1025.283,795.843,1027.021,795.834,1029.053,795.834z
			 M1022.288,796.299v35.629h-6.352v-35.629H1022.288z"/>
	</g>
</g>
</svg>
