<svg width="29" height="28" viewBox="0 0 29 28" fill="none" xmlns="http://www.w3.org/2000/svg">
<g id="handshake_FILL1_wght400_GRAD0_opsz24 1">
<path id="Vector" d="M14.6168 24.5C14.2863 24.5 14.0092 24.3882 13.7856 24.1646C13.562 23.941 13.4502 23.6639 13.4502 23.3333C13.4502 23.1972 13.4793 23.0562 13.5377 22.9104C13.596 22.7646 13.6835 22.6333 13.8002 22.5167L19.196 17.1208L18.3502 16.275L12.9835 21.6708C12.8668 21.7875 12.7404 21.875 12.6043 21.9333C12.4682 21.9917 12.3224 22.0208 12.1668 22.0208C11.8363 22.0208 11.5592 21.909 11.3356 21.6854C11.112 21.4618 11.0002 21.1847 11.0002 20.8542C11.0002 20.6597 11.0293 20.4993 11.0877 20.3729C11.146 20.2465 11.2238 20.1347 11.321 20.0375L16.7168 14.6417L15.9002 13.825L10.5043 19.1917C10.3877 19.3083 10.2613 19.3958 10.1252 19.4542C9.98905 19.5125 9.8335 19.5417 9.6585 19.5417C9.34738 19.5417 9.07516 19.425 8.84183 19.1917C8.6085 18.9583 8.49183 18.6861 8.49183 18.375C8.49183 18.2194 8.521 18.0736 8.57933 17.9375C8.63766 17.8014 8.72516 17.675 8.84183 17.5583L14.2377 12.1625L13.3918 11.3458L8.02516 16.7417C7.92794 16.8389 7.81127 16.9167 7.67516 16.975C7.53905 17.0333 7.37377 17.0625 7.17933 17.0625C6.84877 17.0625 6.57169 16.9507 6.34808 16.7271C6.12447 16.5035 6.01266 16.2264 6.01266 15.8958C6.01266 15.7403 6.04183 15.5944 6.10016 15.4583C6.1585 15.3222 6.246 15.1958 6.36266 15.0792L12.8668 8.575L17.2418 12.9792C17.4557 13.1931 17.7085 13.3632 18.0002 13.4896C18.2918 13.616 18.5835 13.6792 18.8752 13.6792C19.4974 13.6792 20.0418 13.4604 20.5085 13.0229C20.9752 12.5854 21.2085 12.0264 21.2085 11.3458C21.2085 11.0736 21.1599 10.7917 21.0627 10.5C20.9654 10.2083 20.7904 9.93611 20.5377 9.68333L15.3168 4.4625C15.6474 4.15139 16.0168 3.91319 16.4252 3.74792C16.8335 3.58264 17.2418 3.5 17.6502 3.5C18.1557 3.5 18.6224 3.58264 19.0502 3.74792C19.4779 3.91319 19.8668 4.17083 20.2168 4.52083L25.146 9.47917C25.496 9.82917 25.7536 10.2181 25.9189 10.6458C26.0842 11.0736 26.1668 11.5694 26.1668 12.1333C26.1668 12.5222 26.0793 12.916 25.9043 13.3146C25.7293 13.7132 25.4766 14.0778 25.146 14.4083L15.4335 24.15C15.2779 24.3056 15.1418 24.4028 15.0252 24.4417C14.9085 24.4806 14.7724 24.5 14.6168 24.5ZM4.61266 15.1667L3.85433 14.4083C3.52377 14.0972 3.271 13.7278 3.096 13.3C2.921 12.8722 2.8335 12.425 2.8335 11.9583C2.8335 11.4528 2.93072 10.9861 3.12516 10.5583C3.31961 10.1306 3.56266 9.77083 3.85433 9.47917L8.7835 4.52083C9.09461 4.20972 9.46405 3.96181 9.89183 3.77708C10.3196 3.59236 10.7377 3.5 11.146 3.5C11.671 3.5 12.1377 3.57292 12.546 3.71875C12.9543 3.86458 13.3529 4.13194 13.7418 4.52083L19.721 10.5C19.8377 10.6167 19.9252 10.7431 19.9835 10.8792C20.0418 11.0153 20.071 11.1611 20.071 11.3167C20.071 11.6278 19.9543 11.9 19.721 12.1333C19.4877 12.3667 19.2154 12.4833 18.9043 12.4833C18.7293 12.4833 18.5835 12.459 18.4668 12.4104C18.3502 12.3618 18.2238 12.2694 18.0877 12.1333L12.8377 6.94167L4.61266 15.1667Z" fill="#181818"/>
</g>
</svg>
