<svg width="24" height="19" viewBox="0 0 24 19" fill="none" xmlns="http://www.w3.org/2000/svg">
<g id="mastercard 1" clip-path="url(#clip0_274_790)">
<path id="Vector" d="M20.7002 17.3002C21.1002 17.3002 21.3002 17.5002 21.3002 17.9002C21.3002 18.3002 21.1002 18.5002 20.7002 18.5002C20.3002 18.5002 20.2002 18.3002 20.2002 17.9002C20.2002 17.5002 20.3002 17.3002 20.7002 17.3002ZM5.5002 17.3002C5.9002 17.3002 6.10019 17.5002 6.10019 17.9002C6.10019 18.3002 5.9002 18.5002 5.5002 18.5002C5.2002 18.5002 5.0002 18.3002 5.0002 17.9002C5.0002 17.5002 5.2002 17.3002 5.5002 17.3002ZM11.0002 17.7002C11.0002 17.4002 11.2002 17.3002 11.5002 17.3002C11.8002 17.3002 12.0002 17.4002 12.0002 17.7002H11.0002ZM17.0002 17.3002C17.4002 17.3002 17.6002 17.5002 17.6002 17.9002C17.6002 18.3002 17.4002 18.5002 17.0002 18.5002C16.6002 18.5002 16.4002 18.3002 16.4002 17.9002C16.4002 17.5002 16.6002 17.3002 17.0002 17.3002ZM4.2002 17.7002C4.2002 17.2002 4.0002 16.9002 3.5002 16.9002C3.2002 16.9002 2.9002 17.0002 2.8002 17.3002C2.74589 17.1854 2.66136 17.0875 2.55567 17.017C2.44997 16.9465 2.32709 16.9062 2.2002 16.9002C2.0002 16.9002 1.8002 16.9002 1.6002 17.2002V17.0002H1.2002V18.8002H1.6002V17.6002L1.8002 17.5002L1.9002 17.3002H2.1002C2.3002 17.3002 2.4002 17.3002 2.5002 17.5002V18.8002H3.0002V17.6002L3.2002 17.5002V17.3002H3.5002C3.7002 17.3002 3.8002 17.3002 3.8002 17.5002L3.9002 18.4002V18.8002H4.3002V17.7002H4.2002ZM6.5002 17.0002H6.10019V17.2002C6.02786 17.1097 5.93675 17.0361 5.83316 16.9843C5.72957 16.9325 5.61596 16.9038 5.5002 16.9002C5.23643 16.904 4.98483 17.0118 4.8002 17.2002C4.64795 17.4001 4.57654 17.65 4.6002 17.9002C4.6002 18.2002 4.6002 18.4002 4.8002 18.6002C5.0002 18.8002 5.2002 18.9002 5.5002 18.9002C5.8002 18.9002 6.0002 18.8002 6.10019 18.6002V18.8002H6.5002V17.0002ZM8.5002 18.3002C8.5002 18.0002 8.3002 17.8002 7.9002 17.7002C7.60019 17.7002 7.4002 17.6002 7.4002 17.5002C7.4002 17.3002 7.4002 17.3002 7.7002 17.3002L8.3002 17.4002L8.5002 17.1002C8.3002 16.9002 7.9002 16.8002 7.5002 16.9002C7.2002 16.9002 7.0002 17.2002 7.0002 17.5002C7.0002 17.8002 7.2002 18.0002 7.5002 18.1002C7.9002 18.1002 8.1002 18.2002 8.1002 18.3002C8.1002 18.4002 8.0002 18.5002 7.7002 18.5002C7.48383 18.5002 7.27329 18.43 7.10019 18.3002L6.9002 18.6002C7.2002 18.8002 7.5002 18.9002 7.9002 18.8002C8.3002 18.8002 8.5002 18.6002 8.5002 18.3002ZM10.3002 18.7002V18.4002C9.8002 18.6002 9.6002 18.5002 9.6002 18.2002V17.3002H10.3002V17.0002H9.6002V16.4002H9.2002V17.0002H8.8002V17.3002H9.2002V18.2002C9.2002 18.6002 9.4002 18.8002 9.7002 18.9002C10.0002 18.9002 10.2002 18.9002 10.3002 18.7002ZM11.0002 18.1002H12.4002C12.4002 17.3002 12.1002 16.9002 11.5002 16.9002C11.3002 16.9002 11.0002 17.0002 10.9002 17.2002C10.7118 17.3848 10.604 17.6364 10.6002 17.9002C10.6002 18.4002 10.8002 18.7002 11.2002 18.9002C11.7002 18.9002 12.0002 18.9002 12.3002 18.6002L12.1002 18.3002C11.9002 18.5002 11.7002 18.6002 11.4002 18.5002C11.3009 18.4817 11.2096 18.4336 11.1382 18.3622C11.0668 18.2908 11.0187 18.1995 11.0002 18.1002ZM14.0002 17.0002C13.7002 16.8002 13.4002 16.9002 13.3002 17.2002V17.0002H12.8002V18.8002H13.3002V17.8002C13.3002 17.5002 13.3002 17.3002 13.5002 17.3002H13.9002L14.0002 17.0002ZM14.9002 18.5002C14.7002 18.4002 14.6002 18.2002 14.6002 17.9002C14.6002 17.6002 14.6002 17.4002 14.9002 17.4002H15.6002L15.8002 17.1002C15.5002 16.9002 15.1002 16.8002 14.8002 17.1002C14.3002 17.1002 14.1002 17.4002 14.1002 17.9002C14.1002 18.3002 14.3002 18.7002 14.7002 18.9002C15.2002 18.9002 15.5002 18.9002 15.7002 18.6002L15.6002 18.3002C15.4002 18.5002 15.1002 18.5002 14.9002 18.5002ZM17.9002 17.0002H17.5002V17.2002C17.3002 16.9002 17.0002 16.8002 16.6002 17.0002C16.2002 17.1002 16.0002 17.4002 16.0002 17.9002C16.0002 18.3002 16.2002 18.7002 16.6002 18.9002C17.0002 18.9002 17.3002 18.9002 17.6002 18.6002V18.8002H17.9002V17.0002ZM19.6002 17.0002C19.3002 16.8002 19.1002 16.9002 18.9002 17.2002V17.0002H18.5002V18.8002H18.9002V17.8002C18.9002 17.5002 18.9002 17.4002 19.1002 17.3002H19.5002L19.6002 17.0002ZM21.6002 16.2002H21.3002V17.2002C21.1002 16.9002 20.8002 16.8002 20.3002 17.0002C19.9002 17.1002 19.7002 17.4002 19.7002 18.0002C19.7002 18.4002 19.9002 18.7002 20.4002 18.8002C20.8002 19.0002 21.1002 18.8002 21.3002 18.6002V18.8002H21.7002V16.2002H21.6002Z" fill="#0C061A"/>
<path id="Vector_2" d="M7.4 14.8C11.4869 14.8 14.8 11.4869 14.8 7.4C14.8 3.31309 11.4869 0 7.4 0C3.31309 0 0 3.31309 0 7.4C0 11.4869 3.31309 14.8 7.4 14.8Z" fill="#DD3D31"/>
<path id="Vector_3" d="M16.6002 14.8C20.6871 14.8 24.0002 11.4869 24.0002 7.4C24.0002 3.31309 20.6871 0 16.6002 0C12.5133 0 9.2002 3.31309 9.2002 7.4C9.2002 11.4869 12.5133 14.8 16.6002 14.8Z" fill="#EEB046"/>
<path id="Vector_4" fill-rule="evenodd" clip-rule="evenodd" d="M12 13.3001C12.8928 12.6085 13.6154 11.7217 14.1126 10.7077C14.6097 9.69374 14.8682 8.57941 14.8682 7.4501C14.8682 6.32079 14.6097 5.20645 14.1126 4.19246C13.6154 3.17846 12.8928 2.2917 12 1.6001C11.1072 2.2917 10.3846 3.17846 9.88746 4.19246C9.39031 5.20645 9.13184 6.32079 9.13184 7.4501C9.13184 8.57941 9.39031 9.69374 9.88746 10.7077C10.3846 11.7217 11.1072 12.6085 12 13.3001Z" fill="#EF7D2F"/>
</g>
<defs>
<clipPath id="clip0_274_790">
<rect width="24" height="19" fill="white"/>
</clipPath>
</defs>
</svg>
