<svg width="30" height="10" viewBox="0 0 30 10" fill="none" xmlns="http://www.w3.org/2000/svg">
<g id="visa 1" clip-path="url(#clip0_274_797)">
<path id="Vector" d="M26.5 3.5L27 6.2H25L26 3.6L26.2 3.1L26.3 2.7L26.5 3.5ZM7.3 9.5L11 0.3H8.5L6.2 6.6L5.9 5.3L5.1 1C5 0.5 4.6 0.2 3.9 0.2H0.1L0 0.4C1 0.6 1.8 0.9 2.5 1.4L4.7 9.6H7.3V9.5ZM13 9.5L14.5 0.3H12.1L10.6 9.7H13V9.5ZM21.5 6.5C21.5 5.5 20.8 4.6 19.5 3.9C18.5 3.5 18 3.1 18 2.8C18 2.3 18.5 2 19.5 2C20.1 2 20.7 2 21.2 2.4H21.5L21.8 0.4C21 0.1 20.4 0 19.6 0C18.8 0 18.1 0.1 17.5 0.4C16.9 0.7 16.4 1 16 1.5C15.7 2 15.5 2.5 15.5 3.1C15.5 4.1 16.2 5 17.7 5.7C18.5 6.1 18.9 6.5 18.9 6.8C18.9 7.4 18.4 7.8 17.5 7.8C16.7 7.8 15.9 7.6 15.2 7.3L14.9 7.1L14.5 9.1C15.3511 9.47758 16.2691 9.68157 17.2 9.7C18.2596 9.75844 19.3102 9.47826 20.2 8.9C21.1 8.3 21.5 7.5 21.5 6.5ZM30 9.5L28 0.3H26.1C25.5 0.3 25.1 0.5 24.9 1.1L21.3 9.7H23.8L24.3 8.3H27.5L27.8 9.7H30V9.5Z" fill="url(#paint0_linear_274_797)"/>
</g>
<defs>
<linearGradient id="paint0_linear_274_797" x1="1.1" y1="4.9" x2="29.6" y2="4.9" gradientUnits="userSpaceOnUse">
<stop stop-color="#2C3572"/>
<stop offset="1" stop-color="#3C62AB"/>
</linearGradient>
<clipPath id="clip0_274_797">
<rect width="30" height="10" fill="white"/>
</clipPath>
</defs>
</svg>
