<svg width="67" height="21" viewBox="0 0 67 21" fill="none" xmlns="http://www.w3.org/2000/svg">
<g id="logo (1) 1" clip-path="url(#clip0_270_514)">
<g id="Layer_1_1_">
<g id="Group">
<path id="Vector" d="M17.5929 0.973633C16.1923 2.01799 15.3491 3.65508 15.3491 5.39097C15.3491 7.12686 16.178 8.76396 17.5929 9.80831C18.9935 8.76396 19.8367 7.12686 19.8367 5.39097C19.8367 3.65508 18.9935 2.01799 17.5929 0.973633Z" fill="white"/>
<path id="Vector_2" d="M15.0206 4.50181C14.1203 3.90907 13.0484 3.58447 11.9336 3.58447C11.6621 3.58447 11.3905 3.59858 11.1333 3.64092C10.876 5.3627 11.462 7.09859 12.7054 8.32641C13.763 9.37076 15.1636 9.93528 16.6499 9.93528C16.8071 9.93528 16.95 9.92117 17.1072 9.92117C15.7495 8.80625 14.9635 7.14092 14.9635 5.39092C14.9492 5.09455 14.9635 4.79818 15.0206 4.50181Z" fill="white"/>
<g id="Group_2">
<path id="Vector_3" d="M16.6355 10.3304C15.0348 10.3304 13.5342 9.72356 12.4052 8.60864C11.662 7.87477 11.1332 6.95743 10.8616 5.98364C10.1042 6.13888 9.38958 6.44937 8.76074 6.87275C9.23237 8.59453 10.5329 10.0764 12.3623 10.7397C14.0344 11.3465 15.8066 11.1207 17.2358 10.3022C17.05 10.3304 16.8356 10.3304 16.6355 10.3304Z" fill="white"/>
</g>
<path id="Vector_4" d="M20.1656 4.53004C20.2084 4.8123 20.237 5.09455 20.237 5.39092C20.237 7.14092 19.4367 8.79213 18.0933 9.90705C18.2505 9.92116 18.422 9.93528 18.5792 9.93528C20.0655 9.93528 21.4661 9.35665 22.5237 8.32641C23.7671 7.09859 24.3531 5.3627 24.0958 3.64092C23.8243 3.59858 23.567 3.58447 23.2955 3.58447C22.1664 3.58447 21.0803 3.90907 20.1656 4.53004Z" fill="white"/>
<g id="Group_3">
<path id="Vector_5" d="M24.3532 5.98364C24.0816 6.97155 23.5671 7.87477 22.8096 8.60864C21.6806 9.72356 20.1799 10.3304 18.5793 10.3304C18.3792 10.3304 18.1791 10.3163 17.979 10.3022C19.4082 11.1207 21.1804 11.3324 22.8525 10.7256C24.6819 10.0623 25.9681 8.59453 26.454 6.85864C25.8252 6.44937 25.1106 6.13888 24.3532 5.98364Z" fill="white"/>
</g>
</g>
<path id="Vector_6" d="M38.4593 5.68746V11.0504H36.3013V6.11085C36.3013 3.72577 37.5161 2.54028 39.9314 2.54028C41.0176 2.54028 41.8465 2.7802 42.461 3.24593C43.0756 2.79432 43.9045 2.56851 44.9907 2.56851C47.406 2.56851 48.6065 3.75399 48.5922 6.13907V11.0504H47.4918C46.7915 11.008 46.4342 10.6693 46.4342 10.006V5.71569C46.3913 4.84069 45.9054 4.4173 44.9621 4.4173C44.0188 4.4173 43.5329 4.84069 43.5186 5.71569V11.0504H41.3749V5.68746C41.332 4.81246 40.8461 4.38907 39.9028 4.38907C38.9595 4.38907 38.4736 4.81246 38.4593 5.68746Z" fill="white"/>
<path id="Vector_7" d="M57.9102 6.66125C57.9673 3.90923 59.4251 2.54028 62.2549 2.54028H62.555V4.75601H61.8404C60.6542 4.75601 60.0682 5.37698 60.0682 6.61891V11.0362H57.9102V6.66125Z" fill="white"/>
<path id="Vector_8" d="M65.942 4.77014H65.7134V8.87699C65.7134 9.22982 65.9277 9.41328 66.3422 9.41328H66.9996V11.008C66.3136 11.0645 65.5562 11.0645 64.7558 10.9939C63.9555 10.9093 63.5696 10.4294 63.5839 9.49796V1.08667H64.6844C65.2417 1.08667 65.7134 1.59473 65.7134 2.14514V2.55442H66.9853V3.68345C66.9996 4.27619 66.5423 4.77014 65.942 4.77014Z" fill="white"/>
<path id="Vector_9" d="M33.4858 5.264C32.5711 4.95352 31.7136 4.7136 30.899 4.51602C29.4698 4.20553 28.7838 3.71158 28.7838 3.03416C28.8267 2.21562 29.4126 1.79223 30.556 1.77812C31.4992 1.77812 32.1566 2.07449 32.5282 2.69546C32.7426 3.10473 33.057 3.33054 33.5144 3.33054H34.7578C34.6291 1.1007 33.3 -0.000110168 30.7418 -0.000110168C28.0549 -0.0142231 26.6972 1.08658 26.6543 3.34465C26.6543 4.77005 27.7119 5.74384 29.8414 6.28013C30.6274 6.49183 31.3563 6.67529 31.9994 6.85876C32.6711 7.04223 32.9856 7.39505 32.9856 7.91723C32.9999 8.80634 32.3139 9.24384 30.8847 9.24384C29.4555 9.24384 28.7266 8.67932 28.6409 7.53618H27.4832C27.1116 8.38295 26.7543 8.93336 26.7543 8.93336C27.2831 10.3446 28.6694 11.0644 30.899 11.0644C33.643 11.0644 35.0865 10.0201 35.2151 7.91723C35.2723 6.54828 34.7006 5.67328 33.4858 5.264Z" fill="white"/>
<path id="Vector_10" d="M56.7385 4.81246C56.6957 3.28827 55.5095 2.54028 53.1799 2.54028C51.2362 2.54028 50.1214 3.28827 49.8642 4.81246H51.9937C52.108 4.4173 52.5225 4.23383 53.2656 4.23383C54.1517 4.23383 54.5948 4.45964 54.6376 4.92536C54.6376 5.37698 54.1803 5.64512 53.2656 5.74391C51.1219 5.94149 49.6498 6.47778 49.6069 8.43947C49.6069 10.26 51.0075 11.1774 53.037 11.0221C53.6944 10.9798 54.2661 10.8669 54.7663 10.6693C54.9378 10.8951 55.2236 11.008 55.6238 11.0362H56.7243V7.74794C56.7243 7.69149 56.7243 7.63504 56.7243 7.5927V4.81246H56.7385ZM52.7797 9.35681C52.108 9.35681 51.7507 9.04633 51.7078 8.39714C51.7078 7.79028 52.1366 7.40923 52.9798 7.25399C53.6086 7.12698 54.1803 6.95762 54.6805 6.76004V7.52214C54.6805 8.67939 53.9659 9.35681 52.7797 9.35681Z" fill="white"/>
</g>
<g id="Layer_2">
<g id="Group_4">
<path id="Vector_11" d="M45.5622 15.0868C45.5194 13.6473 44.4904 12.9417 42.4752 12.9417C40.7888 12.9417 39.8312 13.6473 39.6026 15.0868H41.4462C41.5462 14.7199 41.9035 14.5505 42.561 14.5505C43.3184 14.5505 43.7186 14.7763 43.7472 15.2138C43.7472 15.6372 43.347 15.8912 42.561 15.99C40.703 16.1876 39.4311 16.6816 39.3882 18.5445C39.3882 20.2662 40.603 21.1271 42.3752 20.986C42.9468 20.9437 43.4471 20.8308 43.8758 20.6473C44.0187 20.859 44.276 20.9719 44.619 21.0001H45.5765V17.8953C45.5765 17.8388 45.5765 17.7965 45.5765 17.74L45.5622 15.0868ZM42.1322 19.3912C41.5462 19.3912 41.2461 19.0949 41.2032 18.488C41.2032 17.9094 41.5748 17.5425 42.318 17.4013C42.8611 17.2884 43.3613 17.1191 43.7901 16.9356V17.6554C43.7758 18.7421 43.1612 19.3912 42.1322 19.3912Z" fill="white"/>
<path id="Vector_12" d="M5.9311 10.8669L9.51834 20.9859H7.36028L6.70286 18.9113H2.84407L2.18665 20.9859H0L3.32999 11.5302C3.47291 11.0786 3.80162 10.8669 4.30183 10.8669H5.9311ZM3.38716 17.2036H6.13119L4.74488 12.8992L3.38716 17.2036Z" fill="white"/>
<path id="Vector_13" d="M13.7916 19.4336C14.6205 19.4336 15.0207 19.1937 15.0207 18.6997C15.0207 18.3046 14.349 17.98 13.0056 17.74C11.2905 17.4296 10.4045 16.6675 10.3902 15.4396C10.3902 13.7602 11.705 12.9699 13.4915 12.9417C14.4919 12.9417 15.278 13.1675 15.8639 13.605C16.4356 14.0566 16.75 14.6917 16.7929 15.4961H15.5638C15.1065 15.482 14.8206 15.3126 14.692 15.0162C14.5634 14.6775 14.1632 14.48 13.5201 14.48C12.7626 14.48 12.3767 14.6917 12.3767 15.0868C12.3767 15.482 12.8769 15.7925 13.8917 15.99C15.2065 16.2582 16.0783 16.5969 16.5071 16.9921C16.8786 17.3731 17.0501 17.8388 17.0501 18.3751C17.0501 20.2804 15.5495 20.986 13.4915 20.986C12.4053 20.986 11.5764 20.7461 11.0619 20.2945C10.4759 19.857 10.1758 19.1796 10.1758 18.2763H12.1766C12.2195 19.1372 12.8341 19.4336 13.7916 19.4336Z" fill="white"/>
<path id="Vector_14" d="M21.2662 19.4336C22.0951 19.4336 22.4953 19.1937 22.4953 18.6997C22.4953 18.3046 21.8236 17.98 20.4802 17.74C18.7652 17.4296 17.8791 16.6675 17.8648 15.4396C17.8648 13.7602 19.1796 12.9699 20.9661 12.9417C21.9665 12.9417 22.7526 13.1675 23.3385 13.605C23.9102 14.0566 24.2246 14.6917 24.2675 15.4961H23.0384C22.5811 15.482 22.2952 15.3126 22.1666 15.0162C22.038 14.6775 21.6378 14.48 20.9947 14.48C20.2372 14.48 19.8513 14.6917 19.8513 15.0868C19.8513 15.482 20.3515 15.7925 21.3663 15.99C22.6811 16.2582 23.5529 16.5969 23.9817 16.9921C24.3532 17.3731 24.5247 17.8388 24.5247 18.3751C24.5247 20.2804 23.0241 20.986 20.9661 20.986C19.8799 20.986 19.051 20.7461 18.5365 20.2945C17.9505 19.857 17.6504 19.1796 17.6504 18.2763H19.6512C19.6941 19.1372 20.3087 19.4336 21.2662 19.4336Z" fill="white"/>
<path id="Vector_15" d="M26.1968 12.9417C26.8257 12.9417 27.1401 13.2663 27.1401 13.9154V20.986H25.1821V12.9417H26.1968Z" fill="white"/>
<path id="Vector_16" d="M31.399 19.4336C32.228 19.4336 32.6281 19.1937 32.6281 18.6997C32.6281 18.3046 31.9564 17.98 30.613 17.74C28.898 17.4296 28.0119 16.6675 27.9976 15.4396C27.9976 13.7602 29.3124 12.9699 31.0989 12.9417C32.0993 12.9417 32.8854 13.1675 33.4713 13.605C34.043 14.0566 34.3574 14.6917 34.4003 15.4961H33.1712C32.7139 15.482 32.428 15.3126 32.2994 15.0162C32.1708 14.6775 31.7706 14.48 31.1275 14.48C30.37 14.48 29.9841 14.6917 29.9841 15.0868C29.9841 15.482 30.4844 15.7925 31.4991 15.99C32.8139 16.2582 33.6857 16.5969 34.1145 16.9921C34.4861 17.3731 34.6576 17.8388 34.6576 18.3751C34.6576 20.2804 33.1569 20.986 31.0989 20.986C30.0127 20.986 29.1838 20.7461 28.6693 20.2945C28.0833 19.857 27.7832 19.1796 27.7832 18.2763H29.7841C29.8412 19.1372 30.4558 19.4336 31.399 19.4336Z" fill="white"/>
<path id="Vector_17" d="M51.5361 20.986C50.9216 20.9437 50.6215 20.6332 50.6215 19.9981V15.9195C50.5786 15.1009 50.1641 14.6917 49.3495 14.6917C48.5349 14.6917 48.1204 15.1009 48.1061 15.9195V20.986H46.2339V16.3287C46.2339 14.0707 47.2915 12.9417 49.3781 12.9417C51.4647 12.9417 52.4937 14.0707 52.4794 16.3287V20.986H51.5361Z" fill="white"/>
<path id="Vector_18" d="M56.5383 20.9858C54.3231 20.9858 53.1797 19.631 53.1226 16.9777C53.1226 14.3245 54.2516 12.9979 56.5097 12.9556C58.2819 12.9556 59.3395 13.7882 59.6539 15.4818H57.6531C57.4244 14.9596 57.0385 14.6773 56.4668 14.6773C55.495 14.6773 55.0091 15.4536 55.0091 16.9919C55.0091 18.5302 55.5236 19.3064 56.5526 19.2923C56.9813 19.2923 57.3529 19.1088 57.6674 18.7419C57.8532 18.5584 58.0532 18.4596 58.2962 18.4596H59.6825C59.3252 20.012 58.2533 21.0281 56.5383 20.9858Z" fill="white"/>
<path id="Vector_19" d="M63.6698 20.986C61.4546 20.9154 60.3398 19.5465 60.3398 16.9074C60.3398 14.2683 61.4689 12.9558 63.6984 12.9417C66.028 12.9417 67.1285 14.4517 66.9855 17.486H62.2407C62.3121 18.6715 62.798 19.2783 63.6984 19.2783C64.1272 19.2783 64.5273 19.0949 64.8846 18.7279C65.0561 18.5445 65.2562 18.4457 65.5135 18.4457H66.8712C66.471 20.0828 65.4706 20.986 63.6698 20.986ZM62.2692 16.0888H65.0276C64.9132 15.0586 64.4559 14.5364 63.6698 14.5364C62.8838 14.5364 62.3979 15.0727 62.2692 16.0888Z" fill="white"/>
<path id="Vector_20" d="M37.673 15.2842H37.4443V18.8125C37.4443 19.1653 37.6587 19.3488 38.0732 19.3488H38.7306V20.9435C38.0446 21 37.2871 21 36.4868 20.9294C35.6864 20.8447 35.3005 20.3649 35.3148 19.4334V11.7278H36.4153C36.9727 11.7278 37.4443 12.2358 37.4443 12.7863V13.125H38.7163V14.254C38.7306 14.8467 38.2589 15.2842 37.673 15.2842Z" fill="white"/>
</g>
</g>
</g>
<defs>
<clipPath id="clip0_270_514">
<rect width="67" height="21" fill="white"/>
</clipPath>
</defs>
</svg>
