<svg width="87" height="22" viewBox="0 0 87 22" fill="none" xmlns="http://www.w3.org/2000/svg">
<g id="&#195;&#144;&#194;&#161;&#195;&#144;&#194;&#187;&#195;&#144;&#194;&#190;&#195;&#144;&#194;&#185;_1" clip-path="url(#clip0_270_421)">
<path id="Vector" d="M75.9366 21.9963C73.7489 21.996 71.6105 21.3505 69.7917 20.1416C67.9729 18.9327 66.5554 17.2146 65.7184 15.2046C64.8815 13.1946 64.6627 10.9829 65.0897 8.84924C65.5167 6.71556 66.5704 4.75572 68.1174 3.21753C69.6645 1.67933 71.6354 0.631862 73.7811 0.207572C75.9268 -0.216718 78.1508 0.00122449 80.1719 0.833842C82.193 1.66646 83.9204 3.07636 85.1358 4.88526C86.3512 6.69416 86.9999 8.82083 86.9999 10.9963C86.9965 13.913 85.8298 16.7092 83.7557 18.7714C81.6816 20.8337 78.8695 21.9935 75.9366 21.9963ZM75.9366 1.34703C74.0176 1.34739 72.1417 1.91362 70.5463 2.97412C68.9508 4.03461 67.7074 5.54176 66.9733 7.30497C66.2391 9.06818 66.0473 11.0083 66.4219 12.8799C66.7965 14.7516 67.7208 16.4708 69.0778 17.8201C70.4349 19.1694 72.1639 20.0882 74.0461 20.4604C75.9283 20.8326 77.8792 20.6414 79.6521 19.911C81.425 19.1806 82.9404 17.9438 84.0065 16.357C85.0726 14.7702 85.6416 12.9047 85.6416 10.9963C85.6378 8.43839 84.6139 5.98638 82.7945 4.17814C80.9751 2.36991 78.5088 1.35307 75.9366 1.35066V1.34703Z" fill="white"/>
<path id="Vector_2" d="M83.3258 7.08618H75.3921V8.68046H83.3258V7.08618Z" fill="white"/>
<path id="Vector_3" d="M80.1613 3.93945H78.5581V11.8291H80.1613V3.93945Z" fill="white"/>
<path id="Vector_4" d="M70.151 7.08618H68.5479V14.9758H70.151V7.08618Z" fill="white"/>
<path id="Vector_5" d="M74.5877 7.08618H68.5479V8.68046H74.5877V7.08618Z" fill="white"/>
<path id="Vector_6" d="M74.2075 10.2329H68.5479V11.8272H74.2075V10.2329Z" fill="white"/>
<path id="Vector_7" d="M74.5877 13.3813H68.5479V14.9756H74.5877V13.3813Z" fill="white"/>
<path id="Vector_8" d="M1.25221 15.0093H0V5.56909H1.25221V15.0093Z" fill="white"/>
<path id="Vector_9" d="M9.11469 15.0095H7.90818V12.0137H4.6689V15.0095H3.45508V8.00342H4.6689V11.0356H7.90818V8.00342H9.11469V15.0095Z" fill="white"/>
<path id="Vector_10" d="M11.0579 6.13466C11.0531 5.95323 11.1186 5.7769 11.2407 5.64201C11.3087 5.57179 11.3915 5.51731 11.4831 5.48244C11.5748 5.44757 11.673 5.43316 11.7708 5.44023C11.8687 5.43364 11.9669 5.44809 12.0587 5.4826C12.1505 5.5171 12.2337 5.57085 12.3028 5.64019C12.4247 5.77518 12.4901 5.95144 12.4856 6.13284C12.4907 6.31216 12.4251 6.48635 12.3028 6.61821C12.2322 6.68619 12.148 6.73864 12.0558 6.77215C11.9635 6.80566 11.8651 6.81949 11.7671 6.81273C11.6739 6.82185 11.5798 6.81074 11.4913 6.78016C11.4029 6.74958 11.3221 6.70026 11.2547 6.63562C11.1872 6.57097 11.1347 6.49253 11.1007 6.40573C11.0667 6.31892 11.0521 6.22581 11.0579 6.13284V6.13466ZM12.3612 15.0096H11.1511V8.00344H12.3576L12.3612 15.0096Z" fill="white"/>
<path id="Vector_11" d="M14.396 8.00342H15.608V14.0315H18.8546V8.00342H20.0611V14.0315H20.902L20.785 17.0928H19.7028V15.0095H14.4015L14.396 8.00342Z" fill="white"/>
<path id="Vector_12" d="M22.2052 6.13453C22.2013 5.95322 22.2666 5.77716 22.3881 5.64189C22.5347 5.51182 22.7244 5.43994 22.9209 5.43994C23.1175 5.43994 23.3071 5.51182 23.4538 5.64189C23.5764 5.77648 23.6419 5.95301 23.6366 6.13453C23.6427 6.31401 23.577 6.48857 23.4538 6.61991C23.3569 6.72799 23.229 6.80397 23.0873 6.83761C22.9457 6.87126 22.7971 6.86095 22.6615 6.80809C22.5259 6.75523 22.4098 6.66234 22.3289 6.54192C22.248 6.4215 22.2061 6.27933 22.2089 6.13453H22.2052ZM23.5105 15.0094H22.3021V8.00331H23.5086L23.5105 15.0094Z" fill="white"/>
<path id="Vector_13" d="M29.7969 15.0094C29.7032 14.7733 29.6459 14.5245 29.6269 14.2714C29.3715 14.5479 29.0605 14.768 28.7141 14.9174C28.3677 15.0668 27.9936 15.1421 27.616 15.1385C26.9913 15.162 26.3806 14.9511 25.905 14.5477C25.6894 14.3645 25.5177 14.1358 25.4023 13.8782C25.2868 13.6206 25.2306 13.3407 25.2378 13.0588C25.2232 12.7282 25.2922 12.3993 25.4384 12.102C25.5847 11.8048 25.8035 11.5487 26.075 11.3573C26.6332 10.9537 27.4186 10.7519 28.4313 10.7519H29.6141V10.2066C29.623 10.0228 29.5941 9.8391 29.529 9.66684C29.4639 9.49458 29.3641 9.33738 29.2357 9.20492C28.9834 8.95769 28.6123 8.83226 28.1206 8.83226C27.7337 8.81958 27.3534 8.93394 27.0384 9.15766C26.9066 9.24273 26.7979 9.35865 26.7217 9.49526C26.6455 9.63187 26.6043 9.78498 26.6015 9.94116H25.3895C25.3942 9.57196 25.5229 9.21493 25.7551 8.92679C26.0229 8.58693 26.3733 8.32043 26.7733 8.15237C27.2179 7.95828 27.6991 7.86097 28.1845 7.86696C28.9962 7.86696 29.633 8.06875 30.0948 8.47231C30.3273 8.68377 30.5115 8.94227 30.6351 9.23044C30.7587 9.5186 30.8189 9.82975 30.8114 10.1429V13.3697C30.79 13.8947 30.8739 14.4188 31.0582 14.9113V15.0149L29.7969 15.0094ZM27.786 14.1005C28.164 14.1009 28.5352 14.0004 28.8609 13.8096C29.1767 13.6369 29.4318 13.3724 29.5921 13.0516V11.6063H28.647C27.17 11.6063 26.4309 12.0366 26.4296 12.897C26.421 13.063 26.4506 13.2286 26.5162 13.3814C26.5818 13.5342 26.6816 13.6701 26.808 13.7787C27.0848 13.9984 27.4323 14.1108 27.786 14.095V14.1005Z" fill="white"/>
<path id="Vector_14" d="M37.8404 8.96689H35.4731V15.0095H34.2666V8.96689H31.9468V8.00342H37.8404V8.96689Z" fill="white"/>
<path id="Vector_15" d="M43.5769 8.00342H44.787V15.0095H43.5805V9.89401L40.3266 15.0095H39.1201V8.00342H40.3248V13.1171L43.5769 8.00342Z" fill="white"/>
<path id="Vector_16" d="M46.8306 15.0095V8.00342H49.5818C50.5189 8.00342 51.2392 8.16703 51.7425 8.49425C51.9848 8.6453 52.1823 8.85778 52.3146 9.10986C52.447 9.36193 52.5095 9.64451 52.4957 9.92855C52.4979 10.2461 52.3945 10.5555 52.2013 10.8084C51.9787 11.0893 51.6771 11.2981 51.3349 11.4083C51.7309 11.4896 52.0906 11.6939 52.3622 11.9918C52.6186 12.276 52.7571 12.6463 52.7498 13.028C52.7651 13.3143 52.7077 13.5998 52.5828 13.8581C52.4578 14.1164 52.2694 14.3392 52.035 14.506C51.5597 14.8477 50.8894 15.0186 50.0241 15.0186L46.8306 15.0095ZM48.0352 10.9702H49.5946C50.7243 10.9702 51.2892 10.6418 51.2892 9.98491C51.2892 9.32805 50.7548 8.98871 49.686 8.96689H48.0407L48.0352 10.9702ZM48.0352 11.93V14.0442H50.0315C50.536 14.0442 50.9132 13.9509 51.163 13.7643C51.2851 13.6741 51.3831 13.5555 51.4485 13.4189C51.5138 13.2823 51.5445 13.1319 51.5378 12.9808C51.5378 12.2815 51.0204 11.9313 49.9858 11.93H48.0352Z" fill="white"/>
<path id="Vector_17" d="M58.7017 15.0095C58.608 14.7734 58.5507 14.5246 58.5317 14.2715C58.2765 14.5482 57.9655 14.7684 57.6191 14.9178C57.2726 15.0672 56.8985 15.1424 56.5209 15.1386C55.8974 15.1613 55.2881 14.9505 54.8135 14.5478C54.5977 14.3646 54.4257 14.136 54.3099 13.8785C54.1942 13.6209 54.1377 13.3409 54.1444 13.0589C54.1302 12.7284 54.1993 12.3995 54.3455 12.1023C54.4918 11.8051 54.7104 11.5491 54.9816 11.3574C55.541 10.9538 56.3271 10.752 57.3398 10.752H58.5134V10.2067C58.5222 10.0223 58.4928 9.83813 58.427 9.66553C58.3613 9.49293 58.2607 9.33557 58.1314 9.2032C57.8791 8.95597 57.508 8.83053 57.0163 8.83053C56.6306 8.81839 56.2516 8.93273 55.9377 9.15593C55.806 9.241 55.6972 9.35693 55.6211 9.49354C55.5449 9.63015 55.5036 9.78326 55.5008 9.93944H54.2925C54.2972 9.57024 54.4259 9.2132 54.6581 8.92506C54.925 8.58505 55.2749 8.31848 55.6745 8.15064C56.1191 7.95672 56.6002 7.85941 57.0857 7.86524C57.8998 7.86524 58.5366 8.06702 58.996 8.47059C59.2291 8.68152 59.4138 8.93993 59.5375 9.22822C59.6611 9.51651 59.7209 9.82791 59.7126 10.1412V13.3698C59.6911 13.8948 59.775 14.4189 59.9594 14.9113V15.015L58.7017 15.0095ZM56.7 14.1006C57.0786 14.1008 57.4503 14.0003 57.7767 13.8097C58.092 13.6365 58.347 13.3721 58.5079 13.0517V11.6064H57.5628C56.0833 11.6064 55.3442 12.0367 55.3454 12.8971C55.3368 13.063 55.3664 13.2287 55.432 13.3815C55.4976 13.5343 55.5974 13.6702 55.7238 13.7788C56.0001 13.9981 56.3469 14.1105 56.7 14.0951V14.1006Z" fill="white"/>
</g>
<defs>
<clipPath id="clip0_270_421">
<rect width="87" height="22" fill="white"/>
</clipPath>
</defs>
</svg>
