<?xml version="1.0" encoding="UTF-8"?>
<svg version="1.1" xmlns="http://www.w3.org/2000/svg" width="500" height="163">
<path d="M0 0 C6.29874903 -0.07623218 12.59737851 -0.1286762 18.89648438 -0.16479492 C21.03813117 -0.17985641 23.17974724 -0.20030972 25.32128906 -0.22631836 C28.40437411 -0.26281728 31.48705038 -0.27975302 34.5703125 -0.29296875 C35.52366486 -0.30845261 36.47701721 -0.32393646 37.45925903 -0.33988953 C42.85889979 -0.34124827 46.21458324 0.27093645 51 3 C54.91815206 3.3315768 54.91815206 3.3315768 57.58447266 1.51831055 C62.33252348 -0.59234907 66.51308676 -0.37450372 71.6484375 -0.29296875 C72.66096588 -0.28872391 73.67349426 -0.28447906 74.71670532 -0.28010559 C77.93641248 -0.26337302 81.15548344 -0.22573026 84.375 -0.1875 C86.56379302 -0.17244618 88.75259589 -0.158759 90.94140625 -0.14648438 C96.29448626 -0.11348732 101.64719766 -0.06334196 107 0 C107.02532428 6.49616668 107.04285601 12.99232066 107.05493164 19.48852539 C107.059965 21.69914221 107.06679217 23.90975569 107.07543945 26.12036133 C107.08754859 29.295093 107.09323825 32.46978072 107.09765625 35.64453125 C107.10281754 36.63524124 107.10797882 37.62595123 107.11329651 38.64668274 C107.11337204 39.56741074 107.11344757 40.48813873 107.11352539 41.43676758 C107.115746 42.2472908 107.11796661 43.05781403 107.12025452 43.89289856 C107 46 107 46 106 49 C112.6 49 119.2 49 126 49 C126 56.59 126 64.18 126 72 C122.37 72 118.74 72 115 72 C115 68.04 115 64.08 115 60 C110.6423823 59.97894871 106.29424402 60.00661565 101.9375 60.0625 C100.70837891 60.05154297 99.47925781 60.04058594 98.21289062 60.02929688 C90.20248496 60.11471142 90.20248496 60.11471142 83.7890625 64.4375 C82.84787312 65.6159047 81.91659341 66.80236415 81 68 C77.20270142 70.8711282 74.73814507 71.33056826 70 71 C70.020625 72.11375 70.04125 73.2275 70.0625 74.375 C69.43997691 79.91841994 65.81484455 82.98725319 62.03125 86.80078125 C59.80018525 88.91381649 59.80018525 88.91381649 59 92 C59.66666667 94.16666667 59.66666667 94.16666667 61 96 C64.47489333 97.15829778 67.67267018 97.22811681 71.29296875 97.31640625 C73.23079224 97.37356812 73.23079224 97.37356812 75.20776367 97.43188477 C77.67273315 97.49653931 77.67273315 97.49653931 80.1875 97.5625 C88.0146875 97.7790625 88.0146875 97.7790625 96 98 C96 86.12 96 74.24 96 62 C99.3 62 102.6 62 106 62 C107 63 107 63 107.12025452 64.82862854 C107.11803391 65.62582809 107.11581329 66.42302765 107.11352539 67.24438477 C107.11341209 68.59567223 107.11341209 68.59567223 107.11329651 69.97425842 C107.10813522 70.95341721 107.10297394 71.93257599 107.09765625 72.94140625 C107.0962413 73.93881332 107.09482635 74.9362204 107.09336853 75.96385193 C107.08775114 79.16343124 107.07519571 82.36294169 107.0625 85.5625 C107.05748724 87.72591045 107.05292395 89.88932199 107.04882812 92.05273438 C107.03777607 97.36851325 107.02102104 102.68425171 107 108 C100.25568885 108.07612011 93.51148866 108.12862932 86.7668457 108.16479492 C84.47285828 108.17987308 82.17889963 108.2003387 79.88500977 108.22631836 C76.58602795 108.26274358 73.2874276 108.27973631 69.98828125 108.29296875 C68.45207878 108.31619453 68.45207878 108.31619453 66.88484192 108.33988953 C61.62666641 108.34112984 58.38960622 108.17901611 54 105 C51.2995961 105.64663567 51.2995961 105.64663567 49 107 C46.60417654 108.19791173 45.13222462 108.1206744 42.45849609 108.11352539 C41.51767181 108.11344986 40.57684753 108.11337433 39.60751343 108.11329651 C38.58976837 108.10813522 37.57202332 108.10297394 36.5234375 108.09765625 C35.48305328 108.0962413 34.44266907 108.09482635 33.37075806 108.09336853 C30.03880979 108.08775866 26.70692805 108.07520447 23.375 108.0625 C21.11979264 108.05748627 18.86458422 108.05292314 16.609375 108.04882812 C11.07289386 108.03778603 5.53645168 108.02103827 0 108 C-0.07620013 101.27399978 -0.12866292 94.54811132 -0.16479492 87.82177734 C-0.17986116 85.53462565 -0.20031797 83.24750275 -0.22631836 80.96044922 C-0.26279606 77.66887293 -0.27974834 74.37767938 -0.29296875 71.0859375 C-0.30845261 70.06696381 -0.32393646 69.04799011 -0.33988953 67.99813843 C-0.3416166 60.67697487 -0.3416166 60.67697487 1.70581055 56.61962891 C2.34643433 55.3229126 2.34643433 55.3229126 3 54 C2.00596287 52.32977009 1.00456325 50.66392021 0 49 C-0.44911436 45.26815398 -0.34853893 41.54700063 -0.29296875 37.79296875 C-0.28872391 36.71243729 -0.28447906 35.63190582 -0.28010559 34.51863098 C-0.26334129 31.07466494 -0.22569226 27.63128856 -0.1875 24.1875 C-0.1724503 21.84961784 -0.15876239 19.51172649 -0.14648438 17.17382812 C-0.11344511 11.44901828 -0.06326766 5.72455128 0 0 Z M10 11 C9.90099865 15.76881876 9.82847072 20.5370373 9.78027344 25.30664062 C9.76017856 26.92849143 9.73289746 28.55026997 9.69824219 30.171875 C9.6496273 32.5053898 9.62701111 34.83794557 9.609375 37.171875 C9.58872986 37.89493835 9.56808472 38.61800171 9.54681396 39.36297607 C9.54526932 42.84160979 9.74929091 44.66958495 11.87988281 47.47753906 C13.88048879 49.19039042 13.88048879 49.19039042 16.3125 49.1875 C19.1096088 47.9515682 20.15490282 46.90140867 22.1875 44.6875 C25.02669149 41.59870926 27.25776493 40.37438943 31.25 39.125 C34.8400264 37.95642921 34.8400264 37.95642921 36.98828125 35.07421875 C37.37905252 33.53505844 37.74268245 31.98880881 38.08203125 30.4375 C39.62331362 26.34490342 42.94062946 23.98824805 46.234375 21.23828125 C48.33170359 19.06356614 48.33170359 19.06356614 47.953125 15.85546875 C47.22719594 12.70829638 47.22719594 12.70829638 44 11 C41.38590855 10.82854185 38.88130326 10.76766568 36.26953125 10.8046875 C35.51911057 10.8075174 34.76868988 10.81034729 33.99552917 10.81326294 C31.60102325 10.82444938 29.20689269 10.84955072 26.8125 10.875 C25.18815645 10.88503181 23.56380703 10.89415731 21.93945312 10.90234375 C17.959491 10.92438363 13.97980912 10.9589026 10 11 Z M59.51025391 13.40039062 C57.8238056 15.79897403 57.8238056 15.79897403 58.0078125 18.08203125 C59.26530803 20.51285921 60.81576011 21.88849373 62.875 23.6875 C66.00717179 26.63737608 67.46195211 28.62378388 68.4375 32.8125 C68.96308633 35.09889822 68.96308633 35.09889822 70 37 C72.14472978 38.06107684 74.19700774 38.51639201 76.52734375 39.046875 C80.63024418 40.62840376 82.99435731 43.91979519 85.76171875 47.234375 C87.93687135 49.34129842 87.93687135 49.34129842 91.14453125 48.890625 C94.09751363 48.21214637 94.09751363 48.21214637 96 46 C96.17510386 43.34708243 96.23155483 40.80013826 96.1953125 38.1484375 C96.19106766 36.98738998 96.19106766 36.98738998 96.18673706 35.80288696 C96.17552754 33.32676843 96.15042203 30.8510095 96.125 28.375 C96.11497118 26.69792188 96.10584516 25.02083811 96.09765625 23.34375 C96.07558574 19.22902777 96.04105102 15.11457489 96 11 C91.2312159 10.87624921 86.46336923 10.78559354 81.69335938 10.7253418 C80.07144895 10.70022228 78.44965146 10.66611972 76.828125 10.62280273 C74.49450829 10.56203147 72.16238952 10.53376706 69.828125 10.51171875 C69.10506165 10.48591232 68.38199829 10.4601059 67.63702393 10.43351746 C63.80665823 10.43139143 62.31355228 10.69770092 59.51025391 13.40039062 Z M49.9375 30.5625 C47.46123278 33.09858044 47.01752612 33.90918285 46.3125 37.5625 C47.15778486 41.7889243 48.72408756 43.29737224 52 46 C55.79951706 44.50733258 57.8354862 42.44718865 60 39 C60.12448808 34.14496493 57.13966621 31.37514117 54 28 C52.46229643 27.89304623 52.46229643 27.89304623 49.9375 30.5625 Z M27 55 C31.2355241 59.19770085 31.2355241 59.19770085 36.5 61.75 C40.45292019 60.56412394 43.07603161 57.83127775 46 55 C43.22377093 51.0136198 41.33895568 48.33473892 36.5 47.125 C31.66104432 48.33473892 29.77622907 51.0136198 27 55 Z M61 53 C62.49625224 56.80864206 64.51844874 58.86359354 68 61 C71.06496649 61.32294477 71.06496649 61.32294477 74 60 C75.96914888 58.12879308 77.39438538 56.21952609 79 54 C75.22642806 49.47724781 75.22642806 49.47724781 70 47.3125 C65.88323544 48.25592521 64.04250908 50.10237231 61 53 Z M11.3347168 61.03051758 C9.2436439 64.11606451 9.63282385 67.3543226 9.70703125 70.94921875 C9.71127609 71.72183548 9.71552094 72.49445221 9.71989441 73.29048157 C9.73667817 75.75650992 9.77432853 78.22171896 9.8125 80.6875 C9.82754729 82.36001423 9.84123562 84.03254128 9.85351562 85.70507812 C9.88658054 89.80370078 9.93835972 93.90171151 10 98 C14.46570449 98.0743839 18.93107684 98.12871171 23.3972168 98.16479492 C24.91518438 98.17984353 26.43310876 98.20028738 27.95092773 98.22631836 C30.13796677 98.26287653 32.32442896 98.27976523 34.51171875 98.29296875 C36.48338013 98.31653442 36.48338013 98.31653442 38.49487305 98.34057617 C42.21181222 97.97941923 44.06387896 97.25737872 47 95 C48.51234267 92.77491523 48.51234267 92.77491523 48 90 C46.40714714 88.14394069 44.66028019 86.54834496 42.85546875 84.8984375 C39.64842986 81.61713034 37.37350384 77.42777498 36.671875 72.8671875 C36.16940266 70.80560582 36.16940266 70.80560582 34.0390625 69.98828125 C33.24242188 69.76527344 32.44578125 69.54226562 31.625 69.3125 C30.83351563 69.08175781 30.04203125 68.85101563 29.2265625 68.61328125 C28.49179687 68.41089844 27.75703125 68.20851563 27 68 C26.01 67.67 25.02 67.34 24 67 C23.67 66.01 23.34 65.02 23 64 C20.73122317 61.058993 19.66427799 60.09489686 15.9375 59.5625 C13.09807852 59.78761231 13.09807852 59.78761231 11.3347168 61.03051758 Z M52 62 C48.96931801 65.03068199 47.25160246 66.79230817 46.375 71 C47.23954051 75.14979442 49.09431804 76.94903394 52 80 C55.80864206 78.50374776 57.86359354 76.48155126 60 73 C60.08709664 68.81936126 59.2785269 67.32851891 56.5625 64.125 C54.2982421 61.78722138 54.2982421 61.78722138 52 62 Z " fill="#FFFFFF" transform="translate(0,27)"/>
<path d="M0 0 C4.62 0 9.24 0 14 0 C15.3384484 4.26929187 16.6709642 8.5402785 18 12.8125 C18.3815625 14.02744141 18.763125 15.24238281 19.15625 16.49414062 C19.5171875 17.65751953 19.878125 18.82089844 20.25 20.01953125 C20.58515625 21.09307861 20.9203125 22.16662598 21.265625 23.27270508 C22 26 22 26 22 29 C22.66 29 23.32 29 24 29 C24.26683594 27.72125 24.53367187 26.4425 24.80859375 25.125 C25.95083943 19.98841677 27.45693032 15.00812732 29.0625 10 C29.33126953 9.14277344 29.60003906 8.28554688 29.87695312 7.40234375 C31.86998222 1.13001778 31.86998222 1.13001778 33 0 C37.29 0 41.58 0 46 0 C46 14.52 46 29.04 46 44 C43.03 44 40.06 44 37 44 C36.505 31.625 36.505 31.625 36 19 C35.43410156 20.72089844 34.86820312 22.44179688 34.28515625 24.21484375 C33.544428 26.45578112 32.80353404 28.69666373 32.0625 30.9375 C31.68931641 32.07380859 31.31613281 33.21011719 30.93164062 34.38085938 C30.57392578 35.46044922 30.21621094 36.54003906 29.84765625 37.65234375 C29.3527771 39.15269165 29.3527771 39.15269165 28.84790039 40.68334961 C28 43 28 43 27 44 C24.03 44 21.06 44 18 44 C15.69 37.07 13.38 30.14 11 23 C10.67 29.93 10.34 36.86 10 44 C6.7 44 3.4 44 0 44 C0 29.48 0 14.96 0 0 Z " fill="#FFFFFF" transform="translate(324,27)"/>
<path d="M0 0 C4.29 0 8.58 0 13 0 C17.95 8.58 22.9 17.16 28 26 C28.33 17.42 28.66 8.84 29 0 C32.3 0 35.6 0 39 0 C39 14.52 39 29.04 39 44 C34.71 44 30.42 44 26 44 C21.05 35.42 16.1 26.84 11 18 C10.67 26.58 10.34 35.16 10 44 C6.7 44 3.4 44 0 44 C0 29.48 0 14.96 0 0 Z M9 14 C10 16 10 16 10 16 Z " fill="#FFFFFF" transform="translate(356,91)"/>
<path d="M0 0 C3.06882221 1.27915393 3.84979764 2.26866187 6 5 C7.125 8.4375 7.125 8.4375 7 12 C5.25 15.1875 5.25 15.1875 3 18 C2.4225 18.78375 1.845 19.5675 1.25 20.375 C0.8375 20.91125 0.425 21.4475 0 22 C1.65 23.65 3.3 25.3 5 27 C5.99 24.69 6.98 22.38 8 20 C11.63 20 15.26 20 19 20 C17.41384826 25.06057937 15.996935 29.57595309 13 34 C13.78375 34.78375 14.5675 35.5675 15.375 36.375 C16.91666667 37.91666667 18.45833333 39.45833333 20 41 C20 41.99 20 42.98 20 44 C16.04 44 12.08 44 8 44 C7.67 43.34 7.34 42.68 7 42 C3.39007621 42.65585189 3.39007621 42.65585189 0 44 C-12.33628967 45.03938352 -12.33628967 45.03938352 -16.625 42.1875 C-17.40875 41.465625 -18.1925 40.74375 -19 40 C-19.53238281 39.56816406 -20.06476563 39.13632813 -20.61328125 38.69140625 C-23.05444293 35.71387666 -22.57768599 32.51233656 -22.50390625 28.80859375 C-21.71146441 24.3918055 -19.30657108 21.88340871 -16 19 C-16.495 18.319375 -16.99 17.63875 -17.5 16.9375 C-19.39124497 13.23381194 -19.57769481 11.11607555 -19 7 C-14.31632388 -0.75408603 -8.44636914 -0.95806273 0 0 Z M-8 8 C-9.00217064 11.58327753 -9.00217064 11.58327753 -8 15 C-5.9837767 14.28436734 -5.9837767 14.28436734 -4 13 C-3.19471111 10.94999129 -3.19471111 10.94999129 -3 9 C-4.65 8.67 -6.3 8.34 -8 8 Z M-10 26 C-12.30075262 28.76745084 -12.30075262 28.76745084 -11.75 31.625 C-11.5025 32.40875 -11.255 33.1925 -11 34 C-8.04335481 35.4783226 -5.25770263 35.06032783 -2 35 C-2 34.01 -2 33.02 -2 32 C-2.99 31.67 -3.98 31.34 -5 31 C-5.66666667 29.66666667 -6.33333333 28.33333333 -7 27 C-7.99 26.67 -8.98 26.34 -10 26 Z " fill="#FFFFFF" transform="translate(168,91)"/>
<path d="M0 0 C24.8375 0 24.8375 0 29.9765625 4.875 C31.19676574 7.40855176 31.40067214 9.19317934 31.375 12 C31.38273437 12.845625 31.39046875 13.69125 31.3984375 14.5625 C30.9291142 17.43365432 29.89489101 18.83441027 28 21 C28.639375 21.53625 29.27875 22.0725 29.9375 22.625 C32.48735626 25.56119812 32.84836968 27.13342692 33 31 C32.29613134 35.08243822 31.6546234 37.32719262 28.75 40.3125 C19.21209852 46.16530318 12.25121925 44 0 44 C0 29.48 0 14.96 0 0 Z M10 9 C10 11.64 10 14.28 10 17 C15.28513335 17.46312039 15.28513335 17.46312039 20.0625 15.75 C21.19697742 14.01619861 21.19697742 14.01619861 20.8125 11.875 C20.1564434 9.81035868 20.1564434 9.81035868 18 9 C16.62657169 8.9310528 15.24997898 8.91532292 13.875 8.9375 C11.956875 8.9684375 11.956875 8.9684375 10 9 Z M10 25 C10 28.3 10 31.6 10 35 C15.71337373 35.59236584 15.71337373 35.59236584 20.5 33 C20.995 32.34 21.49 31.68 22 31 C21.34 29.35 20.68 27.7 20 26 C16.7 25.67 13.4 25.34 10 25 Z " fill="#FFFFFF" transform="translate(146,27)"/>
<path d="M0 0 C3.63 0 7.26 0 11 0 C11 5.61 11 11.22 11 17 C15.95 17 20.9 17 26 17 C26 11.39 26 5.78 26 0 C29.3 0 32.6 0 36 0 C36 14.52 36 29.04 36 44 C32.7 44 29.4 44 26 44 C26 38.06 26 32.12 26 26 C21.05 26 16.1 26 11 26 C11 31.94 11 37.88 11 44 C7.37 44 3.74 44 0 44 C0 29.48 0 14.96 0 0 Z " fill="#FFFFFF" transform="translate(277,27)"/>
<path d="M0 0 C22.25 0 22.25 0 28.5 5 C30.79365621 9.58731242 30.91517777 13.97786745 30 19 C27.5 22 27.5 22 25 24 C25 28.30112872 27.50174047 30.70499824 30 34 C35 40.59459459 35 40.59459459 35 44 C31.04420207 44.93164587 27.91857 45.18561862 24 44 C19.98524336 40.16392516 17.3994629 34.94111619 15 30 C15 29.34 15 28.68 15 28 C13.68 28 12.36 28 11 28 C11 33.28 11 38.56 11 44 C7.37 44 3.74 44 0 44 C0 29.48 0 14.96 0 0 Z M11 9 C11 12.3 11 15.6 11 19 C16.01535052 18.67039784 16.01535052 18.67039784 20 16 C20.16687448 13.41645782 20.16687448 13.41645782 20 11 C16.53785351 8.94835763 15.40610765 9 11 9 Z " fill="#FFFFFF" transform="translate(436,91)"/>
<path d="M0 0 C3.63 0 7.26 0 11 0 C11 5.28 11 10.56 11 16 C17.93 16.495 17.93 16.495 25 17 C25 11.39 25 5.78 25 0 C28.3 0 31.6 0 35 0 C35 14.52 35 29.04 35 44 C31.7 44 28.4 44 25 44 C25 38.06 25 32.12 25 26 C20.38 26.33 15.76 26.66 11 27 C11 32.61 11 38.22 11 44 C7.37 44 3.74 44 0 44 C0 29.48 0 14.96 0 0 Z " fill="#FFFFFF" transform="translate(465,27)"/>
<path d="M0 0 C22.36363636 0 22.36363636 0 28.5 5.0625 C30.72380436 9.4174502 30.99848232 13.21741438 30 18 C28.32048609 21.01438769 26.30016466 23.44779004 24 26 C24.33322266 26.47421387 24.66644531 26.94842773 25.00976562 27.43701172 C26.51135304 29.57966145 28.00574182 31.72723333 29.5 33.875 C30.02464844 34.62136719 30.54929687 35.36773437 31.08984375 36.13671875 C31.58613281 36.85214844 32.08242188 37.56757813 32.59375 38.3046875 C33.05458984 38.96452637 33.51542969 39.62436523 33.99023438 40.30419922 C35 42 35 42 35 44 C31.04420207 44.93164587 27.91857 45.18561862 24 44 C19.98524336 40.16392516 17.3994629 34.94111619 15 30 C15 29.34 15 28.68 15 28 C13.68 28.33 12.36 28.66 11 29 C11 33.95 11 38.9 11 44 C7.37 44 3.74 44 0 44 C0 29.48 0 14.96 0 0 Z M10 9 C10 12.3 10 15.6 10 19 C14.42664564 19.30495485 14.42664564 19.30495485 18.375 17.5 C18.91125 17.005 19.4475 16.51 20 16 C19.67 14.02 19.34 12.04 19 10 C16.03 9.67 13.06 9.34 10 9 Z " fill="#FFFFFF" transform="translate(284,91)"/>
<path d="M0 0 C4.29 0 8.58 0 13 0 C15.00180523 5.62057016 16.99540157 11.24395829 18.98144531 16.87011719 C19.65823099 18.78367515 20.33725338 20.69644356 21.01855469 22.60839844 C21.99743275 25.35667708 22.96823292 28.10769438 23.9375 30.859375 C24.24373291 31.71368103 24.54996582 32.56798706 24.86547852 33.44818115 C25.14576904 34.24870911 25.42605957 35.04923706 25.71484375 35.87402344 C25.96355225 36.57573669 26.21226074 37.27744995 26.46850586 38.00042725 C27 40 27 40 27 44 C23.37 44 19.74 44 16 44 C15.34 40.7 14.68 37.4 14 34 C9.05 34 4.1 34 -1 34 C-1.66 37.3 -2.32 40.6 -3 44 C-6.63 44 -10.26 44 -14 44 C-13.40040674 38.40271593 -11.96641843 33.5061198 -10.05859375 28.22265625 C-9.77146011 27.41130722 -9.48432648 26.59995819 -9.18849182 25.76402283 C-8.27761599 23.19462417 -7.35771918 20.62856526 -6.4375 18.0625 C-5.81515457 16.31206239 -5.19340361 14.56141331 -4.57226562 12.81054688 C-3.05504276 8.53788758 -1.52972574 4.26819806 0 0 Z M6 11 C4.68 15.62 3.36 20.24 2 25 C4.97 25 7.94 25 11 25 C10.54857225 23.22739369 10.08859477 21.4569632 9.625 19.6875 C9.24214844 18.20830078 9.24214844 18.20830078 8.8515625 16.69921875 C8.08086826 13.8194184 8.08086826 13.8194184 6 11 Z " fill="#FFFFFF" transform="translate(253,91)"/>
<path d="M0 0 C3.96 0 7.92 0 12 0 C15.54621053 8.27449123 18.73333109 16.61624346 21.6496582 25.13061523 C22.32326628 27.09387886 23.00605791 29.05379636 23.68945312 31.01367188 C24.11806641 32.25826172 24.54667969 33.50285156 24.98828125 34.78515625 C25.56896362 36.46943726 25.56896362 36.46943726 26.16137695 38.18774414 C27 41 27 41 27 44 C23.37 44 19.74 44 16 44 C14.515 39.545 14.515 39.545 13 35 C6.07 34.505 6.07 34.505 -1 34 C-1.309375 35.464375 -1.61875 36.92875 -1.9375 38.4375 C-2.875 42.875 -2.875 42.875 -4 44 C-5.85287502 44.07226502 -7.70833878 44.0838122 -9.5625 44.0625 C-10.57441406 44.05347656 -11.58632812 44.04445312 -12.62890625 44.03515625 C-13.41136719 44.02355469 -14.19382813 44.01195312 -15 44 C-14.23897608 39.29554157 -12.68256358 34.96158669 -11.09375 30.48828125 C-10.66660706 29.27412788 -10.66660706 29.27412788 -10.23083496 28.03544617 C-9.63057244 26.33125859 -9.02869184 24.62764017 -8.42529297 22.92456055 C-7.49993182 20.31230753 -6.57962722 17.69831574 -5.66015625 15.08398438 C-5.07581491 13.4269796 -4.49118936 11.77007502 -3.90625 10.11328125 C-3.49215881 8.93829826 -3.49215881 8.93829826 -3.06970215 7.73957825 C-1.11671918 2.23343835 -1.11671918 2.23343835 0 0 Z M6 11 C5.32968281 12.9570868 4.66385317 14.91571113 4 16.875 C3.62875 17.96554688 3.2575 19.05609375 2.875 20.1796875 C1.901228 22.82620854 1.901228 22.82620854 2 25 C4.97 25 7.94 25 11 25 C9.68 20.38 8.36 15.76 7 11 C6.67 11 6.34 11 6 11 Z " fill="#FFFFFF" transform="translate(198,27)"/>
<path d="M0 0 C3.96 0 7.92 0 12 0 C13.98316378 5.36693697 15.96040565 10.73601257 17.93408203 16.10644531 C19.03348955 19.09091118 20.13972329 22.07279669 21.24609375 25.0546875 C21.97678333 27.03637692 22.70725673 29.01814607 23.4375 31 C23.79134766 31.94891113 24.14519531 32.89782227 24.50976562 33.87548828 C24.83525391 34.76220215 25.16074219 35.64891602 25.49609375 36.5625 C25.78669678 37.34753906 26.0772998 38.13257813 26.37670898 38.94140625 C27 41 27 41 27 44 C23.37 44 19.74 44 16 44 C14.515 39.05 14.515 39.05 13 34 C8.38 34 3.76 34 -1 34 C-1.99 37.3 -2.98 40.6 -4 44 C-7.63 44 -11.26 44 -15 44 C-14.35528024 40.77640118 -13.77629704 38.09481463 -12.70898438 35.06762695 C-12.45201782 34.33369217 -12.19505127 33.59975739 -11.93029785 32.84358215 C-11.65423706 32.06633286 -11.37817627 31.28908356 -11.09375 30.48828125 C-10.66660706 29.27412788 -10.66660706 29.27412788 -10.23083496 28.03544617 C-9.63057244 26.33125859 -9.02869184 24.62764017 -8.42529297 22.92456055 C-7.49993182 20.31230753 -6.57962722 17.69831574 -5.66015625 15.08398438 C-5.07581491 13.4269796 -4.49118936 11.77007502 -3.90625 10.11328125 C-3.49215881 8.93829826 -3.49215881 8.93829826 -3.06970215 7.73957825 C-1.11671918 2.23343835 -1.11671918 2.23343835 0 0 Z M5 12 C4.49487756 13.60256108 3.99608373 15.20711792 3.5 16.8125 C3.2215625 17.70582031 2.943125 18.59914063 2.65625 19.51953125 C1.87211649 22.05573395 1.87211649 22.05573395 2 25 C4.64 25 7.28 25 10 25 C9.68817931 23.58318366 9.37551263 22.16655349 9.0625 20.75 C8.88847656 19.96109375 8.71445312 19.1721875 8.53515625 18.359375 C8.052444 16.23121297 7.53836822 14.11467158 7 12 C6.34 12 5.68 12 5 12 Z " fill="#FFFFFF" transform="translate(394,27)"/>
<path d="M0 0 C3.3 0 6.6 0 10 0 C10.33 5.28 10.66 10.56 11 16 C12.09054688 14.2675 12.09054688 14.2675 13.203125 12.5 C21.12751493 0.57355398 21.12751493 0.57355398 26.46875 -1.0625 C29.46152447 -1.00549477 32.10330347 -0.73958209 35 0 C33.71927089 2.72829934 32.31942161 5.03468135 30.43359375 7.3828125 C29.94826172 7.99253906 29.46292969 8.60226563 28.96289062 9.23046875 C28.45951172 9.85566406 27.95613281 10.48085938 27.4375 11.125 C23.89475212 15.34757363 23.89475212 15.34757363 21 20 C22.19600022 22.3463794 22.19600022 22.3463794 23.96484375 24.9375 C24.59970703 25.91460937 25.23457031 26.89171875 25.88867188 27.8984375 C26.56478516 28.92195313 27.24089844 29.94546875 27.9375 31 C29.26307888 33.01823515 30.58489816 35.03894629 31.90234375 37.0625 C32.79167603 38.41021484 32.79167603 38.41021484 33.69897461 39.78515625 C35 42 35 42 35 44 C31.17083682 44.62319111 27.80655083 44.84134007 24 44 C20.90220459 41.09370467 19.01968762 37.7082789 17 34 C15.72288787 31.94376915 14.40288227 29.9744269 13 28 C12.34 28 11.68 28 11 28 C10.67 33.28 10.34 38.56 10 44 C6.7 44 3.4 44 0 44 C0 29.48 0 14.96 0 0 Z " fill="#FFFFFF" transform="translate(234,27)"/>
<path d="M0 0 C22.74285714 0 22.74285714 0 28.375 5.1875 C31.06846994 9.84927489 31.40370299 13.94111474 30.375 19.1875 C28.20148592 23.63332425 25.63551283 26.25335284 21.125 28.3125 C18 29 18 29 11 29 C11 33.95 11 38.9 11 44 C7.37 44 3.74 44 0 44 C0 29.48 0 14.96 0 0 Z M11 9 C11 12.63 11 16.26 11 20 C16.01535052 19.67039784 16.01535052 19.67039784 20 17 C20.41666667 14 20.41666667 14 20 11 C16.5647952 8.70986347 15.014669 8.82157027 11 9 Z " fill="#FFFFFF" transform="translate(207,91)"/>
<path d="M0 0 C8.25 0 16.5 0 25 0 C25 2.97 25 5.94 25 9 C20.05 9 15.1 9 10 9 C10 11.64 10 14.28 10 17 C14.62 17 19.24 17 24 17 C24 19.64 24 22.28 24 25 C19.38 25 14.76 25 10 25 C10 28.3 10 31.6 10 35 C14.95 35 19.9 35 25 35 C25 37.97 25 40.94 25 44 C16.75 44 8.5 44 0 44 C0 29.48 0 14.96 0 0 Z " fill="#FFFFFF" transform="translate(404,91)"/>
<path d="M0 0 C-0.875 6.75 -0.875 6.75 -2 9 C-2.639375 8.835 -3.27875 8.67 -3.9375 8.5 C-7.97586652 7.84067485 -11.91807258 7.91996221 -16 8 C-15.91190224 10.40829705 -15.91190224 10.40829705 -15 13 C-12.62606229 14.76631414 -12.62606229 14.76631414 -9.6875 16.0625 C-5.79191787 17.94007697 -2.66555986 19.52857321 0 23 C0.8090879 27.05659935 0.6526206 30.92251573 0 35 C-2.50996528 38.48606289 -5.04545692 40.42911069 -9 42 C-12.27734375 42.265625 -12.27734375 42.265625 -15.9375 42.25 C-17.14277344 42.25515625 -18.34804688 42.2603125 -19.58984375 42.265625 C-22.84123725 42.0123664 -25.07966971 41.39643877 -28 40 C-28 36.7 -28 33.4 -28 30 C-25.23723823 30.52268466 -22.6739124 31.10869587 -20 32 C-18.43881572 32.06740865 -16.8749748 32.08514456 -15.3125 32.0625 C-14.50425781 32.05347656 -13.69601562 32.04445312 -12.86328125 32.03515625 C-12.24839844 32.02355469 -11.63351562 32.01195312 -11 32 C-10.67 31.01 -10.34 30.02 -10 29 C-12.23411852 26.53108558 -14.40413571 25.16279268 -17.375 23.6875 C-22.67973861 20.80186043 -25.99219266 17.96043407 -28 12.0625 C-28 6.77097176 -26.28957897 3.32351526 -22.625 -0.4375 C-15.28710894 -3.60038408 -7.35983177 -2.771021 0 0 Z " fill="#FFFFFF" transform="translate(500,93)"/>
<path d="M0 0 C-0.55728913 3.34373475 -1.35173889 6.03312999 -3 9 C-3.825 8.835 -4.65 8.67 -5.5 8.5 C-12.80128444 7.23478689 -12.80128444 7.23478689 -19.4375 9.75 C-22.46578585 14.11073162 -22.56245767 18.78272024 -22 24 C-21.23853381 26.58107371 -20.27549216 28.59618786 -19 31 C-14.2418865 33.37905675 -7.00367323 32.33431286 -2 31 C-2 33.97 -2 36.94 -2 40 C-8.68144247 43.12298335 -16.44148739 43.0999039 -23.4375 40.9375 C-28.8197797 36.86797145 -32.498438 32.71716872 -33.75390625 25.9609375 C-34.7393798 18.10843396 -33.37923721 10.90874684 -29.25 4.125 C-20.91118261 -3.75054975 -10.58334525 -4.02714812 0 0 Z " fill="#FFFFFF" transform="translate(457,29)"/>
<path d="M0 0 C10.89 0 21.78 0 33 0 C33 2.97 33 5.94 33 9 C29.37 9 25.74 9 22 9 C22 20.55 22 32.1 22 44 C18.7 44 15.4 44 12 44 C12 32.45 12 20.9 12 9 C8.04 9 4.08 9 0 9 C0 6.03 0 3.06 0 0 Z " fill="#FFFFFF" transform="translate(318,91)"/>
</svg>
