<svg width="53" height="26" viewBox="0 0 53 26" fill="none" xmlns="http://www.w3.org/2000/svg">
<g id="eba_logo_white 1" clip-path="url(#clip0_270_448)">
<g id="Page-1">
<g id="eba_logo_white">
<path id="Path" d="M0 19.4447L4.52566 0.0102539H19.0569L18.195 3.65255H8.06548L7.11124 7.76079H17.0244L16.1626 11.4031H6.24938L5.23314 15.8024H15.3627L14.5312 19.4447H0Z" fill="white"/>
<g id="Rectangle-+-Rectangle-Mask">
<g id="Mask">
<path id="path-1" d="M52.7567 19.1812H46.8161L38.7251 0.0447672L44.6852 0.0102539L52.7567 19.1812Z" fill="white"/>
</g>
</g>
<path id="Path_2" d="M52.7571 8.60411V3.61694L30.7998 19.1813L36.7295 19.1617L52.7571 8.60411Z" fill="white"/>
<path id="Path_3" d="M44.6856 0.0102539L38.7255 0.0447672L30.7998 19.1812L36.7295 19.1617L44.6856 0.0102539Z" fill="white"/>
<path id="Shape" d="M15.3579 19.4424L19.8836 0.0102539H29.8575C33.429 0.0102539 35.4298 2.19609 35.4298 4.67185C35.4298 7.29371 33.2418 9.50371 30.7498 9.74185C32.6583 10.2078 33.7049 11.9564 33.7049 13.6752C33.7049 16.3845 31.704 19.4435 26.5621 19.4435L15.3579 19.4424ZM29.3373 13.3243C29.3373 12.1589 28.4754 11.3433 27.0896 11.3433H21.6073L20.5607 15.8588H26.2253C28.1958 15.8588 29.3348 14.6934 29.3348 13.3278M30.7547 5.37247C30.7547 4.35317 29.8624 3.56627 28.6614 3.56627H23.4586L22.474 7.7907H27.9843C30.0776 7.7907 30.7547 6.5091 30.7547 5.37477" fill="white"/>
<g id="plate">
<path id="Rectangle" d="M52.9258 20.5549H0V25.9309H52.9258V20.5549Z" fill="white"/>
<path id="Path_4" d="M3.27107 23.7382V24.2525H1.71875V21.9148H3.25405V22.429H2.28279V22.8167H3.16531V23.3241H2.28279V23.7382H3.27107Z" fill="#00A3FF"/>
<path id="Path_5" d="M5.24044 22.582V24.2524H4.71044V24.0948C4.58604 24.2347 4.39876 24.3103 4.20597 24.2984C3.8498 24.2984 3.5459 24.058 3.5459 23.6082V22.5831H4.07468V23.5345C4.06554 23.6152 4.09449 23.6955 4.1538 23.7541C4.2131 23.8127 4.2967 23.8435 4.38223 23.8382C4.57672 23.8382 4.71044 23.7313 4.71044 23.4931V22.5808L5.24044 22.582Z" fill="#00A3FF"/>
<path id="Path_6" d="M6.68574 22.5487V23.1171C6.46693 23.0837 6.15695 23.1665 6.15695 23.4979V24.2526H5.62695V22.5821H6.15574V22.8789C6.23559 22.6699 6.45128 22.5355 6.68574 22.5487Z" fill="#00A3FF"/>
<path id="Shape_2" d="M6.79153 23.4173C6.79055 23.0593 7.01768 22.736 7.36691 22.5983C7.71614 22.4606 8.11861 22.5358 8.38646 22.7886C8.65431 23.0414 8.73474 23.4221 8.59019 23.753C8.44565 24.0839 8.10464 24.2997 7.72633 24.2997C7.47803 24.3022 7.23911 24.2101 7.0633 24.0441C6.88749 23.8782 6.78956 23.6523 6.79153 23.4173ZM8.12869 23.4173C8.12134 23.2064 7.9357 23.0406 7.71283 23.0458C7.48997 23.0511 7.31324 23.2254 7.31695 23.4363C7.32065 23.6473 7.5034 23.816 7.72633 23.8142C7.83679 23.8169 7.94343 23.7758 8.02051 23.7009C8.0976 23.626 8.13814 23.524 8.13234 23.4196" fill="#00A3FF"/>
<path id="Shape_3" d="M10.8602 23.4173C10.8602 23.9154 10.4785 24.2997 10.0166 24.2997C9.81769 24.3101 9.6244 24.2353 9.49021 24.096V24.9209H8.96143V22.582H9.49021V22.7385C9.6245 22.5993 9.81772 22.5246 10.0166 22.5349C10.4785 22.5349 10.8602 22.9191 10.8602 23.4161M10.3314 23.4161C10.3261 23.1975 10.1355 23.024 9.90447 23.0273C9.67349 23.0307 9.48859 23.2097 9.49033 23.4283C9.49207 23.6469 9.6798 23.8233 9.91081 23.8234C10.0257 23.8289 10.1375 23.7876 10.2181 23.71C10.2987 23.6324 10.3404 23.5258 10.3326 23.4173" fill="#00A3FF"/>
<path id="Shape_4" d="M12.0549 23.852C12.1815 23.8556 12.3041 23.8099 12.394 23.7255L12.8171 23.9556C12.6386 24.1862 12.3492 24.3159 12.0476 24.3007C11.4398 24.3007 11.0751 23.9164 11.0751 23.4195C11.0675 23.1824 11.1642 22.953 11.3421 22.7859C11.52 22.6189 11.7631 22.5292 12.0136 22.5382C12.2578 22.5367 12.4921 22.6302 12.6614 22.7968C12.8308 22.9634 12.9205 23.1885 12.9095 23.4195C12.91 23.4867 12.903 23.5538 12.8888 23.6196H11.6319C11.6987 23.7934 11.8616 23.8497 12.0549 23.8497M12.3795 23.2423C12.3275 23.0855 12.1739 22.9787 12.0002 22.9787C11.8265 22.9787 11.6729 23.0855 11.6209 23.2423H12.3795Z" fill="#00A3FF"/>
<path id="Shape_5" d="M14.9981 22.5821V24.2526H14.4657V24.0961C14.3315 24.2354 14.1382 24.3102 13.9393 24.2997C13.4774 24.2997 13.0957 23.9155 13.0957 23.4173C13.0957 22.9192 13.4774 22.5361 13.9393 22.5361C14.1382 22.5258 14.3314 22.6006 14.4657 22.7397V22.5833L14.9981 22.5821ZM14.4657 23.4173C14.4603 23.1988 14.2697 23.0252 14.0388 23.0285C13.8078 23.0319 13.6229 23.2109 13.6246 23.4295C13.6264 23.6482 13.8141 23.8245 14.0451 23.8246C14.16 23.8298 14.2717 23.7882 14.3521 23.7104C14.4325 23.6326 14.4738 23.5259 14.4657 23.4173Z" fill="#00A3FF"/>
<path id="Path_7" d="M17.0791 23.2275V24.2525H16.5503V23.3011C16.5594 23.2204 16.5305 23.1401 16.4712 23.0815C16.4119 23.023 16.3283 22.9922 16.2427 22.9974C16.0482 22.9974 15.9145 23.1044 15.9145 23.3425V24.2537H15.3857V22.5821H15.9145V22.7385C16.0389 22.5986 16.2262 22.523 16.419 22.5349C16.7752 22.5349 17.0791 22.7753 17.0791 23.2252" fill="#00A3FF"/>
<path id="Shape_6" d="M20.1791 23.568C20.1791 23.9821 19.8229 24.2582 19.3816 24.2582H18.3447V21.9148H19.3172C19.7475 21.9148 20.0976 22.1782 20.0976 22.5832C20.1027 22.7594 20.0237 22.9285 19.8825 23.0434C20.0757 23.1558 20.1914 23.3568 20.1864 23.5714M18.9161 22.421V22.8351H19.3184C19.4393 22.8351 19.5372 22.7424 19.5372 22.6281C19.5372 22.5137 19.4393 22.421 19.3184 22.421H18.9161ZM19.6223 23.5335C19.6258 23.4737 19.6024 23.4154 19.558 23.3728C19.5135 23.3303 19.4521 23.3076 19.3889 23.3103H18.9161V23.7578H19.3889C19.4523 23.7605 19.5139 23.7376 19.5584 23.6949C19.603 23.6521 19.6262 23.5934 19.6223 23.5335Z" fill="#00A3FF"/>
<path id="Path_8" d="M22.146 22.582V24.2524H21.6172V24.0948C21.4928 24.2347 21.3055 24.3103 21.1127 24.2984C20.7565 24.2984 20.4526 24.058 20.4526 23.6082V22.5831H20.9814V23.5345C20.9723 23.6152 21.0012 23.6955 21.0605 23.7541C21.1198 23.8127 21.2034 23.8435 21.289 23.8382C21.4835 23.8382 21.6172 23.7313 21.6172 23.4931V22.5808L22.146 22.582Z" fill="#00A3FF"/>
<path id="Path_9" d="M23.8854 23.752C23.8854 24.1363 23.5328 24.2996 23.156 24.2996C22.8035 24.2996 22.5348 24.1731 22.3975 23.9027L22.8557 23.6554C22.8939 23.78 23.0193 23.8621 23.156 23.8521C23.2776 23.8521 23.3468 23.8153 23.3468 23.7486C23.3468 23.5645 22.4789 23.6623 22.4789 23.0836C22.4789 22.7201 22.8035 22.536 23.1706 22.536C23.4517 22.5277 23.7153 22.6648 23.8586 22.8938L23.4064 23.1239C23.366 23.0345 23.2732 22.9766 23.1706 22.9766C23.0794 22.9766 23.0223 23.01 23.0223 23.0698C23.0223 23.2596 23.8902 23.1331 23.8902 23.7509" fill="#00A3FF"/>
<path id="Shape_7" d="M24.0967 22.1345C24.0967 21.9687 24.2387 21.8342 24.414 21.8342C24.5892 21.8342 24.7312 21.9687 24.7312 22.1345C24.7312 22.3003 24.5892 22.4348 24.414 22.4348C24.2395 22.4329 24.0987 22.2995 24.0967 22.1345ZM24.1502 22.582H24.6765V24.2513H24.1477L24.1502 22.582Z" fill="#00A3FF"/>
<path id="Path_10" d="M26.7602 23.2275V24.2525H26.2314V23.3011C26.2406 23.2204 26.2116 23.1401 26.1523 23.0815C26.093 23.023 26.0094 22.9922 25.9239 22.9974C25.7294 22.9974 25.5957 23.1044 25.5957 23.3425V24.2537H25.0669V22.5821H25.5957V22.7385C25.7201 22.5986 25.9074 22.523 26.1002 22.5349C26.4563 22.5349 26.7602 22.7753 26.7602 23.2252" fill="#00A3FF"/>
<path id="Shape_8" d="M28.0197 23.852C28.1463 23.8556 28.269 23.8099 28.3589 23.7255L28.7819 23.9556C28.6033 24.186 28.314 24.3157 28.0124 24.3007C27.4046 24.3007 27.04 23.9164 27.04 23.4195C27.0324 23.1824 27.1291 22.953 27.3069 22.7859C27.4848 22.6189 27.728 22.5292 27.9784 22.5382C28.2227 22.5367 28.4569 22.6302 28.6263 22.7968C28.7956 22.9634 28.8853 23.1885 28.8743 23.4195C28.8748 23.4867 28.8679 23.5538 28.8536 23.6196H27.5943C27.6611 23.7934 27.824 23.8497 28.0173 23.8497M28.3419 23.2423C28.2899 23.0855 28.1363 22.9787 27.9626 22.9787C27.7889 22.9787 27.6353 23.0855 27.5833 23.2423H28.3419Z" fill="#00A3FF"/>
<path id="Path_11" d="M30.4679 23.752C30.4679 24.1363 30.1153 24.2996 29.7385 24.2996C29.386 24.2996 29.1173 24.1731 28.98 23.9027L29.4383 23.6554C29.4764 23.78 29.6018 23.8621 29.7385 23.8521C29.8601 23.8521 29.9294 23.8153 29.9294 23.7486C29.9294 23.5645 29.0614 23.6623 29.0614 23.0836C29.0614 22.7201 29.386 22.536 29.7531 22.536C30.0342 22.5277 30.2978 22.6648 30.4411 22.8938L29.9889 23.1239C29.9485 23.0345 29.8558 22.9766 29.7531 22.9766C29.6619 22.9766 29.6048 23.01 29.6048 23.0698C29.6048 23.2596 30.4727 23.1331 30.4727 23.7509" fill="#00A3FF"/>
<path id="Path_12" d="M32.0138 23.752C32.0138 24.1363 31.6612 24.2996 31.2844 24.2996C30.9319 24.2996 30.6632 24.1731 30.5259 23.9027L30.9842 23.6554C31.0223 23.78 31.1477 23.8621 31.2844 23.8521C31.406 23.8521 31.4753 23.8153 31.4753 23.7486C31.4753 23.5645 30.6073 23.6623 30.6073 23.0836C30.6073 22.7201 30.9319 22.536 31.299 22.536C31.5801 22.5277 31.8437 22.6648 31.987 22.8938L31.5348 23.1239C31.4943 23.0342 31.4009 22.9762 31.2978 22.9766C31.2066 22.9766 31.1495 23.01 31.1495 23.0698C31.1495 23.2596 32.0174 23.1331 32.0174 23.7509" fill="#00A3FF"/>
<path id="Shape_9" d="M34.6447 23.8855H33.7269L33.6053 24.2525H32.9878L33.8278 21.9148H34.5474L35.3874 24.2525H34.7662L34.6447 23.8855ZM34.4757 23.3839L34.1864 22.5257L33.8971 23.3839H34.4757Z" fill="#00A3FF"/>
<path id="Path_13" d="M36.9273 23.752C36.9273 24.1363 36.5748 24.2996 36.198 24.2996C35.8455 24.2996 35.5768 24.1731 35.4395 23.9027L35.8977 23.6554C35.9359 23.78 36.0613 23.8621 36.198 23.8521C36.3195 23.8521 36.3888 23.8153 36.3888 23.7486C36.3888 23.5645 35.5209 23.6623 35.5209 23.0836C35.5209 22.7201 35.8455 22.536 36.2126 22.536C36.4937 22.5277 36.7572 22.6648 36.9006 22.8938L36.4484 23.1239C36.408 23.0345 36.3152 22.9766 36.2126 22.9766C36.1214 22.9766 36.0643 23.01 36.0643 23.0698C36.0643 23.2596 36.9322 23.1331 36.9322 23.7509" fill="#00A3FF"/>
<path id="Path_14" d="M38.4737 23.752C38.4737 24.1363 38.1212 24.2996 37.7444 24.2996C37.3918 24.2996 37.1232 24.1731 36.9858 23.9027L37.4441 23.6554C37.4823 23.78 37.6077 23.8621 37.7444 23.8521C37.8659 23.8521 37.9352 23.8153 37.9352 23.7486C37.9352 23.5645 37.0673 23.6623 37.0673 23.0836C37.0673 22.7201 37.3918 22.536 37.759 22.536C38.04 22.5277 38.3036 22.6648 38.447 22.8938L37.9948 23.1239C37.9544 23.0345 37.8616 22.9766 37.759 22.9766C37.6678 22.9766 37.6107 23.01 37.6107 23.0698C37.6107 23.2596 38.4786 23.1331 38.4786 23.7509" fill="#00A3FF"/>
<path id="Shape_10" d="M38.6319 23.4173C38.6309 23.0593 38.858 22.736 39.2072 22.5983C39.5565 22.4606 39.9589 22.5358 40.2268 22.7886C40.4946 23.0414 40.5751 23.4221 40.4305 23.753C40.286 24.0839 39.945 24.2997 39.5667 24.2997C39.3184 24.3022 39.0794 24.2101 38.9036 24.0441C38.7278 23.8782 38.6299 23.6523 38.6319 23.4173ZM39.969 23.4173C39.963 23.2065 39.7787 23.0397 39.5559 23.0435C39.3332 23.0472 39.1552 23.2202 39.1572 23.431C39.1591 23.6418 39.3402 23.8118 39.563 23.8119C39.6735 23.8146 39.7801 23.7735 39.8572 23.6986C39.9343 23.6237 39.9748 23.5217 39.969 23.4173Z" fill="#00A3FF"/>
<path id="Path_15" d="M40.7126 23.4171C40.7141 23.0212 40.9936 22.6746 41.3968 22.5688C41.7999 22.463 42.2282 22.624 42.4448 22.9627L41.9829 23.2169C41.9172 23.0965 41.7831 23.0236 41.6401 23.0306C41.4228 23.0418 41.2527 23.2118 41.2527 23.4177C41.2527 23.6236 41.4228 23.7936 41.6401 23.8048C41.7834 23.8116 41.9175 23.7382 41.9829 23.6173L42.4448 23.8681C42.2823 24.139 41.9765 24.3044 41.6474 24.2995C41.3982 24.3049 41.1575 24.2137 40.981 24.0471C40.8045 23.8806 40.7076 23.653 40.7126 23.4171Z" fill="#00A3FF"/>
<path id="Shape_11" d="M42.604 22.1345C42.604 21.9687 42.746 21.8342 42.9213 21.8342C43.0965 21.8342 43.2385 21.9687 43.2385 22.1345C43.2385 22.3003 43.0965 22.4348 42.9213 22.4348C42.7469 22.4329 42.606 22.2995 42.604 22.1345ZM42.6563 22.582H43.1851V24.2513H42.6563V22.582Z" fill="#00A3FF"/>
<path id="Shape_12" d="M45.3841 22.5819V24.2523H44.8553V24.0959C44.7211 24.2352 44.5279 24.31 44.329 24.2995C43.867 24.2995 43.4854 23.9153 43.4854 23.4171C43.4854 22.919 43.867 22.5359 44.329 22.5359C44.5279 22.5254 44.7211 22.6002 44.8553 22.7395V22.583L45.3841 22.5819ZM44.8553 23.4171C44.85 23.1985 44.6594 23.025 44.4284 23.0283C44.1974 23.0317 44.0125 23.2107 44.0143 23.4293C44.016 23.6479 44.2037 23.8243 44.4347 23.8244C44.5496 23.8296 44.6613 23.788 44.7417 23.7102C44.8221 23.6323 44.8634 23.5257 44.8553 23.4171Z" fill="#00A3FF"/>
<path id="Path_16" d="M46.4429 23.0641V23.6554C46.4429 23.7992 46.573 23.8119 46.8076 23.7992V24.2537C46.1159 24.3204 45.9153 24.1237 45.9153 23.6554V23.0641H45.6333V22.5832H45.9153V22.2657L46.4441 22.115V22.5821H46.8088V23.063L46.4429 23.0641Z" fill="#00A3FF"/>
<path id="Shape_13" d="M47.0522 22.1345C47.0522 21.9687 47.1943 21.8342 47.3695 21.8342C47.5447 21.8342 47.6868 21.9687 47.6868 22.1345C47.6868 22.3003 47.5447 22.4348 47.3695 22.4348C47.1951 22.4329 47.0542 22.2995 47.0522 22.1345ZM47.1045 22.582H47.6333V24.2513H47.1045V22.582Z" fill="#00A3FF"/>
<path id="Shape_14" d="M47.9346 23.4173C47.9336 23.0593 48.1607 22.736 48.51 22.5983C48.8592 22.4606 49.2617 22.5358 49.5295 22.7886C49.7974 23.0414 49.8778 23.4221 49.7333 23.753C49.5887 24.0839 49.2477 24.2997 48.8694 24.2997C48.6211 24.3022 48.3822 24.2101 48.2064 24.0441C48.0306 23.8782 47.9326 23.6523 47.9346 23.4173ZM49.2718 23.4173C49.2644 23.2067 49.0793 23.041 48.8567 23.0458C48.6342 23.0506 48.4572 23.2241 48.46 23.4348C48.4628 23.6455 48.6443 23.8147 48.867 23.8142C48.9775 23.8173 49.0844 23.7763 49.1616 23.7013C49.2387 23.6263 49.2791 23.5241 49.273 23.4196" fill="#00A3FF"/>
<path id="Path_17" d="M51.7976 23.2275V24.2525H51.2688V23.3011C51.2779 23.2204 51.249 23.1401 51.1897 23.0815C51.1304 23.023 51.0468 22.9922 50.9612 22.9974C50.7667 22.9974 50.633 23.1044 50.633 23.3425V24.2537H50.103V22.5821H50.633V22.7385C50.7574 22.5986 50.9447 22.523 51.1375 22.5349C51.4937 22.5349 51.7976 22.7753 51.7976 23.2252" fill="#00A3FF"/>
</g>
</g>
</g>
</g>
<defs>
<clipPath id="clip0_270_448">
<rect width="53" height="26" fill="white"/>
</clipPath>
</defs>
</svg>
