<svg width="20" height="20" viewBox="0 0 20 20" fill="none" xmlns="http://www.w3.org/2000/svg">
<g id="mail 1">
<path id="Vector" d="M2 18.3332C1.45 18.3332 0.979167 18.1292 0.5875 17.7212C0.195833 17.3132 0 16.8228 0 16.2498V3.74984C0 3.17692 0.195833 2.68647 0.5875 2.27848C0.979167 1.8705 1.45 1.6665 2 1.6665H18C18.55 1.6665 19.0208 1.8705 19.4125 2.27848C19.8042 2.68647 20 3.17692 20 3.74984V16.2498C20 16.8228 19.8042 17.3132 19.4125 17.7212C19.0208 18.1292 18.55 18.3332 18 18.3332H2ZM10 11.0415L18 5.83317V3.74984L10 8.95817L2 3.74984V5.83317L10 11.0415Z" fill="#00A3FF"/>
</g>
</svg>
