<svg width="28" height="28" viewBox="0 0 28 28" fill="none" xmlns="http://www.w3.org/2000/svg">
<g id="handshake_FILL1_wght400_GRAD0_opsz24 1">
<path id="Vector" d="M14.1168 24.5C13.7863 24.5 13.5092 24.3882 13.2856 24.1646C13.062 23.941 12.9502 23.6639 12.9502 23.3333C12.9502 23.1972 12.9793 23.0562 13.0377 22.9104C13.096 22.7646 13.1835 22.6333 13.3002 22.5167L18.696 17.1208L17.8502 16.275L12.4835 21.6708C12.3668 21.7875 12.2404 21.875 12.1043 21.9333C11.9682 21.9917 11.8224 22.0208 11.6668 22.0208C11.3363 22.0208 11.0592 21.909 10.8356 21.6854C10.612 21.4618 10.5002 21.1847 10.5002 20.8542C10.5002 20.6597 10.5293 20.4993 10.5877 20.3729C10.646 20.2465 10.7238 20.1347 10.821 20.0375L16.2168 14.6417L15.4002 13.825L10.0043 19.1917C9.88766 19.3083 9.76127 19.3958 9.62516 19.4542C9.48905 19.5125 9.3335 19.5417 9.1585 19.5417C8.84738 19.5417 8.57516 19.425 8.34183 19.1917C8.1085 18.9583 7.99183 18.6861 7.99183 18.375C7.99183 18.2194 8.021 18.0736 8.07933 17.9375C8.13766 17.8014 8.22516 17.675 8.34183 17.5583L13.7377 12.1625L12.8918 11.3458L7.52516 16.7417C7.42794 16.8389 7.31127 16.9167 7.17516 16.975C7.03905 17.0333 6.87377 17.0625 6.67933 17.0625C6.34877 17.0625 6.07169 16.9507 5.84808 16.7271C5.62447 16.5035 5.51266 16.2264 5.51266 15.8958C5.51266 15.7403 5.54183 15.5944 5.60016 15.4583C5.6585 15.3222 5.746 15.1958 5.86266 15.0792L12.3668 8.575L16.7418 12.9792C16.9557 13.1931 17.2085 13.3632 17.5002 13.4896C17.7918 13.616 18.0835 13.6792 18.3752 13.6792C18.9974 13.6792 19.5418 13.4604 20.0085 13.0229C20.4752 12.5854 20.7085 12.0264 20.7085 11.3458C20.7085 11.0736 20.6599 10.7917 20.5627 10.5C20.4654 10.2083 20.2904 9.93611 20.0377 9.68333L14.8168 4.4625C15.1474 4.15139 15.5168 3.91319 15.9252 3.74792C16.3335 3.58264 16.7418 3.5 17.1502 3.5C17.6557 3.5 18.1224 3.58264 18.5502 3.74792C18.9779 3.91319 19.3668 4.17083 19.7168 4.52083L24.646 9.47917C24.996 9.82917 25.2536 10.2181 25.4189 10.6458C25.5842 11.0736 25.6668 11.5694 25.6668 12.1333C25.6668 12.5222 25.5793 12.916 25.4043 13.3146C25.2293 13.7132 24.9766 14.0778 24.646 14.4083L14.9335 24.15C14.7779 24.3056 14.6418 24.4028 14.5252 24.4417C14.4085 24.4806 14.2724 24.5 14.1168 24.5ZM4.11266 15.1667L3.35433 14.4083C3.02377 14.0972 2.771 13.7278 2.596 13.3C2.421 12.8722 2.3335 12.425 2.3335 11.9583C2.3335 11.4528 2.43072 10.9861 2.62516 10.5583C2.81961 10.1306 3.06266 9.77083 3.35433 9.47917L8.2835 4.52083C8.59461 4.20972 8.96405 3.96181 9.39183 3.77708C9.81961 3.59236 10.2377 3.5 10.646 3.5C11.171 3.5 11.6377 3.57292 12.046 3.71875C12.4543 3.86458 12.8529 4.13194 13.2418 4.52083L19.221 10.5C19.3377 10.6167 19.4252 10.7431 19.4835 10.8792C19.5418 11.0153 19.571 11.1611 19.571 11.3167C19.571 11.6278 19.4543 11.9 19.221 12.1333C18.9877 12.3667 18.7154 12.4833 18.4043 12.4833C18.2293 12.4833 18.0835 12.459 17.9668 12.4104C17.8502 12.3618 17.7238 12.2694 17.5877 12.1333L12.3377 6.94167L4.11266 15.1667Z" fill="white"/>
</g>
</svg>
