<svg width="92" height="18" viewBox="0 0 92 18" fill="none" xmlns="http://www.w3.org/2000/svg">
<g id="&#208;&#160;&#208;&#142;&#208;&#160;&#194;&#187;&#208;&#160;&#209;&#149;&#208;&#160;&#226;&#132;&#150;_1" clip-path="url(#clip0_270_357)">
<path id="Vector" d="M91.8393 8.54048C91.732 7.99527 91.6406 7.44615 91.5432 6.89899C91.3684 5.915 91.1929 4.93101 91.0167 3.94702C91.0151 3.91583 91.0069 3.88531 90.9925 3.85746C90.9781 3.8296 90.9578 3.80504 90.9331 3.78538C90.9083 3.76571 90.8796 3.75139 90.8488 3.74334C90.818 3.73529 90.7859 3.7337 90.7544 3.73867L89.3636 3.75035C89.141 3.75035 89.0536 3.82824 89.0179 4.05022C88.996 4.18068 88.9741 4.31115 88.9543 4.43966C88.7993 5.37432 88.6463 6.31093 88.4874 7.24754C88.4558 7.41873 88.4133 7.58781 88.3602 7.75381C88.3602 7.78302 88.2966 7.80054 88.2628 7.82391C88.243 7.79276 88.2092 7.76549 88.2012 7.73239C88.1754 7.61751 88.1575 7.50262 88.1416 7.38774C88.033 6.62443 87.9244 5.86177 87.8158 5.09977C87.7621 4.7298 87.7125 4.35983 87.6548 3.9918C87.627 3.8224 87.5535 3.77177 87.3767 3.77372L86.0315 3.79124C85.9537 3.78064 85.8746 3.79921 85.8102 3.84326C85.7457 3.8873 85.7006 3.95356 85.6838 4.0288C85.6715 4.07029 85.6622 4.11259 85.656 4.15537C85.3778 5.53919 85.0957 6.92625 84.8096 8.31656C84.7579 8.55996 84.7063 8.80336 84.6645 9.04871C84.6367 9.21617 84.6923 9.27458 84.8632 9.27458H85.5427C85.7613 9.27458 85.8567 9.19864 85.8944 8.99029C86.0401 8.19323 86.1839 7.39682 86.3256 6.60106C86.4051 6.16878 86.4845 5.7365 86.568 5.30617C86.5862 5.24789 86.6108 5.19173 86.6415 5.13871H86.6952C86.7369 5.23589 86.7708 5.33616 86.7965 5.43858C86.8621 5.82802 86.9177 6.20773 86.9773 6.59133C87.1005 7.39163 87.2217 8.19193 87.3469 8.99029C87.3846 9.22395 87.4283 9.2629 87.6747 9.26679C88.0721 9.26679 88.4695 9.26679 88.8669 9.26679C89.1351 9.26679 89.2086 9.20253 89.2642 8.9455C89.4762 7.79535 89.6894 6.6439 89.904 5.49115C89.904 5.45221 89.9259 5.41521 89.9418 5.36069C89.9846 5.39619 90.0195 5.4399 90.0445 5.48912C90.0694 5.53835 90.0838 5.59205 90.0868 5.64693C90.2577 6.49786 90.4306 7.34684 90.5975 8.19777C90.6433 8.50173 90.7357 8.79714 90.8716 9.07402C90.8982 9.13684 90.944 9.19004 91.0027 9.2263C91.0615 9.26256 91.1302 9.28011 91.1995 9.27653C91.3982 9.26874 91.5969 9.26874 91.7956 9.27653C91.8372 9.28345 91.88 9.27571 91.9163 9.25469C91.9527 9.23366 91.9803 9.2007 91.9943 9.16164V8.96692C91.9308 8.82917 91.8789 8.68655 91.8393 8.54048Z" fill="white"/>
<path id="Vector_2" d="M18.0807 14.6645C18.0807 14.6139 18.0708 14.5633 18.0629 14.4932C18.041 14.5185 18.0311 14.5263 18.0291 14.5341C17.9893 14.6528 17.9536 14.6606 17.8642 14.5789C17.7747 14.4971 17.8423 14.4211 17.8264 14.3432C17.8264 14.3296 17.8085 14.316 17.8105 14.3199C17.7708 14.3958 17.737 14.4659 17.6953 14.5496L17.59 14.3549C17.433 14.3939 17.5343 14.2478 17.4926 14.2011L17.4012 14.1622C17.3975 14.1767 17.3928 14.191 17.3873 14.205L17.0873 14.1329C17.0456 14.1933 17.0992 14.2829 16.982 14.2712C16.9537 14.2753 16.9271 14.2863 16.9044 14.3034C16.8818 14.3204 16.8641 14.3429 16.8528 14.3686C16.829 14.4912 16.7376 14.5224 16.6541 14.5633C16.6261 14.5841 16.5939 14.5989 16.5597 14.6066C16.5254 14.6143 16.4899 14.6148 16.4554 14.6081C16.4316 14.6081 16.372 14.5672 16.3402 14.6451C16.3084 14.7229 16.2329 14.7249 16.1733 14.7541C16.1177 14.7777 16.0606 14.7979 16.0024 14.8145C15.9905 14.8145 15.9587 14.7658 15.9508 14.7697C15.8873 14.7997 15.8284 14.8384 15.7759 14.8846C15.737 14.9272 15.7024 14.9735 15.6726 15.0228L15.5534 14.9488C15.4381 15.1766 15.1878 15.2156 15.0586 15.3908L14.9275 15.5583C14.9134 15.5439 14.8957 15.5332 14.8761 15.5274C14.8566 15.5216 14.8358 15.5208 14.8159 15.5251C14.796 15.5294 14.7775 15.5387 14.7622 15.552C14.747 15.5653 14.7355 15.5822 14.7288 15.6011C14.6871 15.7297 14.6076 15.6771 14.5301 15.6712C14.4533 15.6586 14.3755 15.6528 14.2977 15.6537C14.2089 15.6643 14.1212 15.6819 14.0354 15.7063C13.9906 15.7236 13.9479 15.7458 13.9082 15.7725C13.8566 15.7998 13.7771 15.7881 13.7373 15.8212C13.6915 15.8574 13.6371 15.8818 13.5792 15.8924C13.5213 15.9029 13.4616 15.8992 13.4055 15.8815V15.9808C13.3221 16.0042 13.2068 15.9808 13.2207 16.1366L13.179 16.0665C13.1631 16.086 13.1413 16.121 13.1373 16.1191C13.0459 16.0743 13.0062 16.1483 12.9505 16.1911C12.9218 16.2059 12.8887 16.21 12.8571 16.2028C12.7955 16.2028 12.7359 16.1756 12.6743 16.1678C12.6434 16.1651 12.6124 16.1711 12.5849 16.1853C12.5452 16.2048 12.5114 16.2496 12.4697 16.2554C12.3955 16.2787 12.3163 16.2823 12.2403 16.2659C12.1642 16.2495 12.0939 16.2136 12.0365 16.1619L12.0028 16.232C11.9312 16.232 11.8617 16.2106 11.8319 16.232C11.7047 16.3411 11.5458 16.3041 11.4067 16.3177C11.3173 16.3177 11.3093 16.345 11.3054 16.4073H11.1067C11.1067 16.3722 11.1067 16.3411 11.1067 16.345C11.1067 16.3489 11.055 16.38 11.0292 16.3781C11.0034 16.3761 10.9358 16.343 10.8861 16.3391C10.759 16.3274 10.608 16.2768 10.5086 16.3255C10.4773 16.3492 10.4389 16.362 10.3993 16.362C10.3598 16.362 10.3214 16.3492 10.2901 16.3255C10.2583 16.34 10.2249 16.3511 10.1907 16.3586C10.098 16.3586 10.0046 16.3586 9.91055 16.3586C9.8706 16.3572 9.83078 16.3533 9.79134 16.3469L9.76948 16.4326C9.72179 16.4112 9.65623 16.4014 9.63834 16.3664C9.62046 16.3313 9.60059 16.3177 9.55688 16.3391C9.51657 16.36 9.47132 16.3701 9.42574 16.3683C9.30653 16.3547 9.1893 16.3333 9.07009 16.3138C9.00253 16.3021 8.88133 16.3002 8.8714 16.2729C8.83961 16.1483 8.78397 16.2379 8.73827 16.2496V16.2165L8.42434 16.1503C8.38135 16.1323 8.34067 16.1094 8.30314 16.0821C8.26596 16.0703 8.22695 16.065 8.1879 16.0665L8.16604 16.1055C8.11637 16.0665 8.07067 16.0003 8.03491 16.0062C7.93953 16.0217 7.88589 16.0062 7.87198 15.8757L7.82429 15.9731C7.75475 15.9438 7.69713 15.9166 7.6256 15.8952C7.51822 15.8668 7.41479 15.8256 7.31763 15.7725C7.19047 15.6868 7.0335 15.681 6.90634 15.5778C6.8105 15.522 6.70763 15.4788 6.60036 15.4493C6.5617 15.4373 6.5261 15.4174 6.49594 15.3909C6.46579 15.3644 6.44177 15.3318 6.42551 15.2954C6.39372 15.2954 6.34603 15.3227 6.34603 15.3207C6.30033 15.2117 6.12946 15.2721 6.10164 15.1416C6.10164 15.1416 6.08376 15.126 6.07382 15.1221C6.00679 15.107 5.94293 15.0807 5.88507 15.0442C5.81751 14.98 5.72015 14.9722 5.65856 14.8982C5.6055 14.8421 5.54299 14.7953 5.47378 14.7599C5.38436 14.7035 5.29098 14.6528 5.19759 14.6042C5.15388 14.5827 5.1062 14.5672 5.04262 14.5419L5.02076 14.4698C4.91545 14.5224 4.79823 14.4873 4.77637 14.4133C4.74259 14.2848 4.60549 14.2868 4.54986 14.1875C4.49423 14.0882 4.39091 14.0531 4.31143 13.9927C4.29951 13.9927 4.29752 13.9635 4.28958 13.9519C4.28163 13.9402 4.22997 13.8545 4.20613 13.8564C4.10479 13.872 4.1644 13.7922 4.12864 13.7727C4.08566 13.7579 4.04733 13.7324 4.01737 13.6987C3.9677 13.6384 3.96968 13.5293 3.85444 13.5235C3.83855 13.5235 3.82066 13.4923 3.81073 13.4728C3.8008 13.4534 3.77099 13.393 3.74914 13.3482L3.7849 13.3268C3.66569 13.3034 3.61403 13.3911 3.53058 13.4709C3.53569 13.4191 3.53569 13.3669 3.53058 13.3151C3.52125 13.258 3.50103 13.2032 3.47097 13.1535C3.42255 13.0973 3.36937 13.0452 3.31202 12.9977L3.33188 12.9802H3.19876C3.31202 12.8517 3.15704 12.7972 3.13915 12.7076C3.10762 12.6169 3.0576 12.5334 2.99212 12.4622C2.93848 12.3882 2.87688 12.322 2.81727 12.25L2.86695 12.1818C2.79143 12.1144 2.71979 12.0429 2.65236 11.9676C2.61848 11.9096 2.58925 11.849 2.56494 11.7866C2.53998 11.7557 2.50972 11.7293 2.47552 11.7087C2.45367 11.6931 2.40797 11.6834 2.40797 11.6678C2.40797 11.5743 2.40797 11.4731 2.40797 11.3874H2.47354L2.4338 11.327C2.4338 11.327 2.4338 11.327 2.4338 11.3153C2.41989 11.2336 2.37817 11.2043 2.29074 11.218C2.24223 11.2184 2.19524 11.2014 2.15864 11.1702C2.12204 11.139 2.09836 11.0957 2.09205 11.0486H2.00661C2.00661 10.9609 1.99072 10.9006 1.89733 10.8831C1.88917 10.8804 1.88181 10.8758 1.87591 10.8697C1.87002 10.8636 1.86577 10.8561 1.86356 10.848C1.82382 10.6844 1.78607 10.5209 1.7503 10.3612C1.73043 10.3398 1.68473 10.3067 1.69069 10.293C1.72845 10.2015 1.60923 10.1392 1.65096 10.0438C1.6534 10.0164 1.64908 9.98883 1.63836 9.96341C1.62764 9.93799 1.61083 9.91548 1.58936 9.89776C1.45823 9.77899 1.48008 9.59789 1.39067 9.45964C1.35048 9.37895 1.31981 9.29402 1.29927 9.2065C1.25159 9.07604 1.20191 8.94363 1.15224 8.81706L1.07873 8.86185C1.07873 8.80538 1.05886 8.74307 1.07873 8.71776C1.21781 8.57561 1.07873 8.44125 1.07873 8.30495C1.05706 8.18021 1.02854 8.0567 0.993288 7.93498C0.965471 7.71689 0.95355 7.49686 0.92772 7.27877C0.909838 7.1152 0.878047 6.95358 0.850231 6.78807L0.76678 6.77444C0.933681 6.60698 0.76678 6.422 0.826388 6.24285H0.681343C0.637631 6.14355 0.641605 6.0676 0.806518 6.04813L0.653526 6.01114V5.98582H0.816453C0.816453 5.758 0.816453 5.53602 0.816453 5.31403C0.825137 5.27506 0.83988 5.23763 0.860165 5.20304L0.816453 5.17384L0.866126 5.11931C0.798571 5.05116 0.812479 5.03364 0.852217 4.95185C0.882081 4.86613 0.901424 4.77723 0.909838 4.68703C0.925733 4.61888 0.947589 4.55073 0.963485 4.49231L0.858178 4.36574H0.983354C0.963485 4.3229 0.945602 4.2898 0.923746 4.24502C1.0529 4.2898 0.8701 4.0795 1.0072 4.12039V3.71927C1.07674 3.69785 1.11052 3.52455 1.05488 3.41745C1.05488 3.51871 1.03501 3.55765 0.967458 3.55376L0.993288 3.32788H0.951563C0.983354 3.47782 0.790623 3.57323 0.856191 3.7329C0.834335 3.75043 0.788636 3.7699 0.784662 3.79716C0.760819 3.93346 0.744924 4.07171 0.733003 4.20997C0.733003 4.29564 0.687304 4.31122 0.60584 4.29564C0.559993 4.29015 0.513623 4.30047 0.474704 4.32485C0.367411 4.39885 0.264091 4.48063 0.166733 4.55462C0.190576 4.58578 0.228327 4.61109 0.22634 4.63446C0.216179 4.74578 0.226954 4.85798 0.258131 4.96548C0.270101 5.10479 0.270101 5.24483 0.258131 5.38413C0.26221 5.4295 0.270186 5.47444 0.281974 5.51849C0.258964 5.55601 0.247896 5.5994 0.250183 5.64311C0.262104 5.80084 0.281974 5.96051 0.299856 6.11823C0.30979 6.22533 0.234288 6.27401 0.156798 6.31295C0.232301 6.348 0.218392 6.40252 0.17468 6.44926C0.1422 6.49692 0.126905 6.55385 0.131225 6.611C0.135545 6.66816 0.159232 6.72226 0.198523 6.76471C0.0773216 6.84454 0.198523 6.98084 0.126994 7.0821L0.0514918 6.90296H0.0097666C0.00409062 6.97816 0.0107994 7.05377 0.0296357 7.12689C0.0672378 7.21941 0.0672378 7.32254 0.0296357 7.41507C0.00178776 7.52043 0.00178776 7.631 0.0296357 7.73636C0.0721856 7.85831 0.0864401 7.98803 0.0713609 8.11607C0.0693843 8.13093 0.0693843 8.14599 0.0713609 8.16085C0.10598 8.2877 0.118078 8.41943 0.107125 8.5503C0.107519 8.63841 0.125052 8.72565 0.158785 8.80733C0.158785 8.83069 0.206471 8.84627 0.208458 8.86769C0.230314 9.0001 0.242235 9.13251 0.260118 9.25713C0.277698 9.33277 0.289651 9.40957 0.295882 9.4869C0.290027 9.57866 0.276739 9.66982 0.256144 9.75951L0.125008 9.80625C0.147894 9.90415 0.181191 9.99944 0.224353 10.0905C0.274842 10.1778 0.301529 10.2764 0.301843 10.3768C0.305987 10.4425 0.316634 10.5078 0.333633 10.5715C0.344456 10.6217 0.363942 10.6698 0.391254 10.7136C0.46477 10.8207 0.369398 10.994 0.536298 11.0622C0.536298 11.0622 0.536298 11.0758 0.536298 11.0817C0.566102 11.179 0.591932 11.2764 0.627696 11.3679C0.663461 11.4594 0.71512 11.4984 0.713134 11.5626C0.713134 11.7573 0.842283 11.8859 0.935668 12.0339C0.967458 12.0845 0.995275 12.1468 1.04296 12.1721C1.09065 12.1974 1.12045 12.2305 1.04296 12.2792L1.12442 12.2967C1.15423 12.2967 1.2039 12.2967 1.21185 12.322C1.23768 12.3824 1.23967 12.4506 1.26748 12.5168C1.29438 12.5682 1.32703 12.6165 1.36484 12.6609C1.42307 12.7284 1.4762 12.8 1.52379 12.875C1.61718 13.0464 1.61122 13.2645 1.78408 13.3988C1.796 13.3988 1.8119 13.4339 1.80594 13.4436C1.76421 13.5566 1.8715 13.5176 1.91124 13.539C1.95098 13.5605 1.98476 13.539 2.0245 13.539L2.0384 13.5663L1.93111 13.6676C2.01257 13.798 2.01456 14.0005 2.21325 14.0044C2.27077 14.0896 2.33738 14.1686 2.41194 14.24C2.49341 14.3024 2.50135 14.4114 2.61064 14.4659C2.67422 14.4971 2.72588 14.5983 2.78946 14.6606C2.85304 14.7229 2.89874 14.793 2.96629 14.8787C3.03186 14.867 3.09942 14.8924 3.11332 15.0014C3.11332 15.0209 3.15902 15.0384 3.18684 15.052C3.21466 15.0657 3.3299 15.089 3.33784 15.1221C3.35228 15.1707 3.38271 15.2133 3.42439 15.2433C3.46607 15.2732 3.51667 15.2888 3.56833 15.2876C3.67165 15.2876 3.65575 15.3402 3.64979 15.3831L4.03128 15.6946L4.16043 15.5797V15.8114C4.29156 15.7628 4.35912 15.9555 4.50814 15.8991C4.50814 15.8991 4.52999 15.9185 4.53794 15.9322C4.54589 15.9458 4.56774 15.9828 4.58165 16.0081L4.60549 16.0295L4.65517 16.0821L4.62735 16.1366V16.1775L4.64722 16.2067L4.71478 16.2943L4.74259 16.1814C4.7601 16.2032 4.78086 16.2222 4.80419 16.2379C4.87572 16.269 4.95122 16.2924 5.02275 16.3236C5.05255 16.3352 5.09626 16.3528 5.10024 16.3742C5.12011 16.4599 5.13203 16.4793 5.20157 16.454C5.27111 16.4287 5.30687 16.4209 5.31284 16.5066C5.33779 16.5165 5.36378 16.5237 5.39033 16.528C5.43642 16.5645 5.49111 16.5892 5.5494 16.5997C5.6077 16.6103 5.66776 16.6064 5.72413 16.5884C5.72582 16.6549 5.73857 16.7206 5.76188 16.7831C5.79939 16.8306 5.84959 16.867 5.90692 16.8882C6.01223 16.9408 6.12548 16.9759 6.22682 17.0343C6.32815 17.0927 6.47121 17.081 6.53876 17.2037C6.53876 17.2173 6.59042 17.2037 6.61625 17.2173C6.72354 17.2368 6.83084 17.2524 6.93614 17.2816C7.04145 17.3108 7.13483 17.3556 7.23418 17.3828C7.37346 17.4052 7.50784 17.4506 7.63156 17.5172C7.73225 17.5788 7.84552 17.6181 7.96338 17.6321C8.16207 17.6593 8.36076 17.6087 8.53958 17.6924C8.58329 17.7119 8.63694 17.71 8.67867 17.7333C8.72039 17.7567 8.73827 17.8073 8.77801 17.8229C8.90458 17.8621 9.02809 17.9103 9.14758 17.967C9.1729 17.9886 9.20537 18.0006 9.23897 18.0006C9.27258 18.0006 9.30504 17.9886 9.33037 17.967C9.36018 17.9475 9.37607 17.9047 9.39991 17.8696L9.44561 17.9495L9.48734 17.8229C9.52215 17.8451 9.55358 17.872 9.58072 17.9027C9.5891 17.9202 9.60149 17.9355 9.61692 17.9475C9.63236 17.9594 9.65041 17.9677 9.66967 17.9717C9.68894 17.9757 9.70887 17.9752 9.72791 17.9703C9.74696 17.9654 9.76459 17.9563 9.77942 17.9436C9.83902 17.895 9.87876 17.8813 9.93439 17.9436C9.93439 17.9436 9.98009 17.9436 10.0039 17.9436C10.0278 17.9436 10.0675 17.9183 10.0993 17.9066L10.1212 17.8891V17.9086V17.9865L10.2642 17.9495L10.2801 17.9943C10.294 17.9514 10.304 17.9164 10.3159 17.8833L10.3834 17.9475C10.4629 17.8872 10.5364 17.8852 10.5642 17.9475L10.596 17.8618C10.606 17.9027 10.6099 17.9203 10.6139 17.9397L10.6358 17.9183C10.6358 17.8774 10.6497 17.8346 10.6596 17.7762C10.7113 17.821 10.751 17.8521 10.7967 17.8891L10.9457 17.7684L10.9278 17.7372H11.0232C11.0232 17.7684 11.0133 17.7995 11.0232 17.819C11.053 17.8735 11.1305 17.7742 11.1563 17.856C11.1703 17.856 11.1921 17.8365 11.1981 17.8229C11.2299 17.7197 11.2299 17.7197 11.3252 17.7586L11.5537 17.8424C11.5835 17.7781 11.6034 17.7333 11.6253 17.6827L11.7584 17.7976C11.7802 17.6516 11.7981 17.6418 11.9293 17.6613C11.9537 17.6641 11.9783 17.6641 12.0028 17.6613C12.0645 17.6644 12.1263 17.6571 12.1856 17.6399C12.2531 17.6107 12.3545 17.673 12.3843 17.5639C12.3843 17.5503 12.428 17.5445 12.4518 17.5406L12.6108 17.523C12.6426 17.523 12.6743 17.523 12.6962 17.523L12.877 17.4257V17.449C13.1174 17.4335 13.3837 17.5075 13.5585 17.2972C13.6041 17.3017 13.65 17.3017 13.6956 17.2972C13.7115 17.1959 13.793 17.2154 13.8566 17.2056H13.9142C13.9142 17.2056 13.9142 17.1881 13.9142 17.1589L13.9579 17.2037H13.9042C13.9162 17.2037 13.944 17.2037 13.9619 17.2037C14.0453 17.1706 14.1606 17.1589 14.2043 17.0985C14.248 17.0382 14.2977 17.0538 14.3453 17.0421C14.375 17.0382 14.4051 17.0382 14.4347 17.0421C14.4765 17.0421 14.5261 17.0207 14.5361 17.0927C14.5471 17.1021 14.5601 17.1091 14.5742 17.1131C14.5883 17.1172 14.6031 17.1182 14.6175 17.1161C14.6871 17.0732 14.705 17.0713 14.7447 17.1336C14.7505 17.1442 14.7591 17.153 14.7696 17.1592C14.7801 17.1654 14.7921 17.1686 14.8043 17.1686C14.8166 17.1686 14.8286 17.1654 14.8391 17.1592C14.8496 17.153 14.8582 17.1442 14.8639 17.1336C14.8696 17.1253 14.8776 17.1189 14.8869 17.1151C14.8963 17.1113 14.9066 17.1102 14.9165 17.1121C14.9265 17.114 14.9357 17.1187 14.9429 17.1256C14.9502 17.1325 14.9552 17.1414 14.9573 17.1511C14.9661 17.1674 14.976 17.183 14.9871 17.1979H15.007V17.0304C15.0765 17.0421 15.1421 17.0771 15.1898 17.0596C15.3043 17.0249 15.4269 17.0249 15.5415 17.0596C15.5536 17.0613 15.566 17.0602 15.5777 17.0565C15.5894 17.0528 15.6001 17.0465 15.609 17.0382C15.6139 17.0271 15.6165 17.0152 15.6165 17.0031C15.6165 16.9911 15.6139 16.9791 15.609 16.9681C15.609 16.9486 15.5752 16.935 15.5474 16.9116C15.5812 16.896 15.613 16.8727 15.6189 16.8785C15.6706 16.9233 15.7183 16.9739 15.7719 17.0284C15.7858 17.0109 15.8216 16.9817 15.8176 16.9642C15.7739 16.7909 15.8971 16.7987 16.0044 16.7909C16.0322 16.7461 15.9686 16.6371 16.1038 16.6702L16.0938 16.7461L16.1196 16.7695L16.1991 16.6974L16.3064 16.604L16.4376 16.5027V16.4112L16.4535 16.3216H16.4912V16.4326H16.4654L16.4892 16.456H16.6045L16.5826 16.4345L16.4892 16.456V16.4345L16.5905 16.4092V16.4326H16.6104V16.4092C16.6263 16.3313 16.6402 16.2535 16.6561 16.1756H16.6879L16.7197 16.232L16.8926 16.1055L16.9065 16.2573C16.9263 16.2204 16.9442 16.1834 16.9701 16.1308L16.9979 16.1872H17.1171C17.1648 16.1074 17.1846 16.0938 17.2522 16.0957C17.3095 16.0972 17.3662 16.0837 17.4165 16.0567C17.4667 16.0297 17.5088 15.9901 17.5383 15.9419C17.6496 16.0315 17.6297 15.9185 17.6476 15.8679C17.8463 15.8991 17.8721 15.8952 17.888 15.718C17.9039 15.5408 17.743 15.6109 17.6317 15.5856C17.7688 15.4921 17.7092 15.3792 17.6893 15.276C17.6615 15.1319 17.733 15.0481 17.888 15.052C17.9337 15.052 18.0152 15.0228 18.0211 14.9975C18.037 14.8962 18.1105 14.9196 18.1721 14.8943C18.2337 14.869 18.3867 14.8943 18.3172 14.7366L18.0807 14.6645ZM0.198523 6.54467C0.2046 6.5282 0.214634 6.51341 0.227776 6.50155C0.240918 6.48969 0.256782 6.4811 0.274026 6.47652C0.274026 6.54272 0.274026 6.60698 0.285947 6.68292C0.198523 6.6615 0.17468 6.62061 0.198523 6.54467ZM2.33247 12.285L2.30068 12.2656C2.3271 12.2235 2.33887 12.1742 2.33421 12.125C2.32955 12.0759 2.30872 12.0295 2.27485 11.993C2.26834 11.9947 2.26148 11.9947 2.25498 11.993C2.24784 11.995 2.24026 11.995 2.23312 11.993H2.20133L2.12782 11.9326L2.24107 11.8528L2.22716 11.7457C2.36227 11.7457 2.37022 11.7457 2.32849 11.8644C2.31817 11.8968 2.31085 11.9301 2.30664 11.9638C2.36426 11.9462 2.42585 11.9151 2.41194 12.028C2.41194 12.0728 2.44175 12.1215 2.45764 12.1682L2.33247 12.285ZM17.0614 15.8114C17.0376 15.8309 16.9879 15.8114 16.9522 15.8114C16.9164 15.8114 16.9263 15.7783 16.9144 15.7608C16.9296 15.75 16.9455 15.7402 16.9621 15.7316L17.1926 15.6342L17.2144 15.6518C17.1682 15.7092 17.117 15.7626 17.0614 15.8114Z" fill="white"/>
<path id="Vector_3" d="M4.0332 5.56516C4.08617 5.76727 4.08957 5.97879 4.04314 6.18243H4.17229C4.08288 6.48814 4.24779 6.78217 4.17229 7.06257C4.21401 7.07425 4.25971 7.0762 4.26766 7.09567C4.27841 7.12727 4.27841 7.16143 4.26766 7.19303C4.26766 7.21056 4.23587 7.22224 4.23388 7.23782C4.21443 7.29112 4.20808 7.34816 4.21532 7.40432C4.22257 7.46048 4.24323 7.51418 4.27561 7.56105C4.27561 7.57274 4.27561 7.59805 4.27561 7.61558C4.26724 7.65445 4.25459 7.69232 4.23786 7.72851C4.20209 7.80251 4.28355 7.82587 4.29945 7.87455C4.35111 8.05175 4.29945 8.24647 4.44251 8.41588C4.53788 8.52492 4.53788 8.70796 4.60742 8.85011C4.65143 8.9765 4.68206 9.10701 4.69882 9.23955C4.69882 9.26291 4.73657 9.28044 4.75843 9.29796C4.78028 9.31549 4.80015 9.31744 4.80015 9.32328C4.78028 9.44206 4.90347 9.49463 4.93526 9.59978C4.99586 9.74851 5.09032 9.88171 5.21144 9.98922C5.26168 10.0408 5.30206 10.1008 5.33066 10.1664C5.37585 10.2612 5.42626 10.3535 5.48166 10.4429C5.50615 10.4744 5.5334 10.5037 5.56313 10.5305C5.58675 10.5591 5.60864 10.589 5.62869 10.6201L5.69824 10.7194C5.74393 10.7915 5.78963 10.8635 5.83732 10.9336C5.88501 11.0037 5.92673 11.0602 5.9764 11.1283L6.08966 11.105L6.10754 11.253L6.26252 11.3133C6.21086 11.3932 6.27444 11.3971 6.32809 11.4204C6.38173 11.4438 6.3718 11.4749 6.39366 11.508C6.45525 11.4886 6.45525 11.4886 6.49101 11.5781L6.52877 11.4886C6.54665 11.6035 6.52876 11.7222 6.69368 11.7359L6.71355 11.7651C6.72746 11.7884 6.74335 11.8332 6.75527 11.8313C6.82879 11.8313 6.90032 11.8118 6.97185 11.8021V11.7651L7.02549 11.8371C7.14868 11.8371 7.22418 11.9209 7.18445 12.0318C7.18445 12.0455 7.14471 12.0494 7.12285 12.0572C7.13676 12.1584 7.22816 12.1273 7.28777 12.1467C7.28777 12.1467 7.28777 12.1467 7.28777 12.135H7.3136V12.1604H7.30167H7.28975C7.29088 12.1655 7.29088 12.1708 7.28975 12.1759H7.30763C7.39506 12.1759 7.4348 12.209 7.41095 12.3006C7.40695 12.3459 7.40695 12.3915 7.41095 12.4369L7.43678 12.3453L7.53017 12.4817C7.55203 12.5245 7.56991 12.5654 7.59375 12.6063C7.65137 12.7056 7.67124 12.7075 7.74476 12.5868V12.7289L7.91166 12.6686L7.81032 12.7952C7.85889 12.7957 7.90737 12.7996 7.95537 12.8068C7.96729 12.8068 7.97325 12.8399 7.98319 12.8575L8.03683 12.838H8.06664L8.10637 12.6978L8.19976 12.6744C8.21367 12.8341 8.36269 12.8321 8.466 12.8886L8.55542 12.8263V13.0463C8.59714 13.0093 8.61105 12.9412 8.66668 13.0366C8.72232 13.132 8.78788 13.2313 8.93492 13.2313C8.97664 13.2313 9.02035 13.2956 9.06208 13.3326C9.1038 13.3696 9.16738 13.4416 9.17732 13.4358C9.26872 13.3754 9.26077 13.4708 9.29455 13.4981L9.3323 13.4416C9.35742 13.4645 9.38547 13.4842 9.41575 13.5C9.51112 13.5292 9.65418 13.4689 9.66809 13.6383C9.66809 13.65 9.69988 13.6597 9.72173 13.6733L9.75352 13.537L9.82505 13.5877C9.83896 13.5254 9.85287 13.4669 9.86479 13.4202L10.0754 13.5234L9.91645 13.5799C9.94029 13.5955 9.97606 13.613 9.97407 13.6169C9.94029 13.7142 10.0377 13.6967 10.0615 13.6909C10.0801 13.683 10.1001 13.679 10.1204 13.679C10.1406 13.679 10.1606 13.683 10.1792 13.6909C10.1978 13.6987 10.2146 13.7102 10.2285 13.7246C10.2424 13.739 10.2532 13.756 10.2602 13.7746L10.2979 13.7064L10.3436 13.798L10.439 13.7103V13.7376H11.0351C11.049 13.6597 11.0351 13.5799 11.0689 13.5682C11.1386 13.5348 11.216 13.52 11.2934 13.5254C11.4364 13.537 11.3431 13.6617 11.3788 13.7201C11.3927 13.7084 11.4106 13.685 11.4265 13.685C11.4975 13.6979 11.5691 13.707 11.6411 13.7123C11.7166 13.7123 11.814 13.7415 11.8577 13.6383L11.8795 13.6169H11.9212C11.9201 13.6098 11.9201 13.6026 11.9212 13.5955C11.9352 13.5779 11.9471 13.5507 11.965 13.5468C12.0126 13.5468 12.0623 13.5468 12.1239 13.5468C12.1239 13.6305 12.0901 13.7415 12.2431 13.7123C12.3961 13.6831 12.3027 13.5916 12.2968 13.5331C12.3882 13.463 12.4955 13.6286 12.571 13.4884C12.6862 13.5779 12.6922 13.576 12.7557 13.465L12.7776 13.4436L12.9326 13.4767C12.9167 13.3579 13.179 13.4572 13.1313 13.282L13.481 13.1865C13.2704 13.0386 13.2207 13.0347 13.1372 13.1203C13.014 13.1203 12.9048 13.1203 12.7955 13.1203C12.7776 13.1203 12.7637 13.1593 12.7438 13.1749C12.7269 13.1862 12.7067 13.1917 12.6862 13.1904C12.6624 13.1904 12.6445 13.1515 12.6226 13.1495C12.4359 13.132 12.2471 13.1203 12.0603 13.1028C11.9726 13.0818 11.8824 13.072 11.7921 13.0736C11.6292 13.1009 11.4722 13.1593 11.3113 13.2021C11.2889 13.2019 11.2667 13.1979 11.2457 13.1904L11.1523 13.1749L10.9099 13.1281L10.4629 13.0463C10.4322 13.02 10.3997 12.9959 10.3655 12.9743C10.2185 12.8925 10.0237 12.9529 9.89261 12.8224C9.67007 12.8672 9.60848 12.6608 9.47734 12.5673H9.66411L9.67802 12.5284C9.60851 12.4941 9.53683 12.4642 9.46343 12.4388C9.35217 12.4096 9.34223 12.4232 9.36409 12.5459C9.30416 12.5873 9.23617 12.616 9.16438 12.6304C9.09258 12.6448 9.01852 12.6446 8.94684 12.6296C8.9071 12.6296 8.8316 12.6686 8.80775 12.581C8.79385 12.5303 8.72232 12.4855 8.7243 12.4408C8.7243 12.3239 8.66072 12.2811 8.57528 12.246C8.56739 12.1814 8.56341 12.1164 8.56336 12.0513C8.56336 12.0338 8.61304 12.0065 8.63887 12.0046C8.69123 12.007 8.74318 12.0148 8.79384 12.028C8.58323 11.7339 8.58323 11.7339 8.55542 11.7631L8.27725 11.5314C8.24554 11.5113 8.21622 11.4878 8.18982 11.4613C8.12028 11.3815 8.06067 11.2919 7.99113 11.214C7.92159 11.1361 7.8441 11.1011 7.79244 11.0349C7.66528 10.8947 7.55203 10.7447 7.42685 10.6045C7.33111 10.5234 7.2396 10.4376 7.15266 10.3475C7.00788 10.1955 6.88245 10.0268 6.77912 9.84513C6.76719 9.81787 6.77912 9.76529 6.75925 9.75556C6.58639 9.66599 6.59831 9.47711 6.5228 9.33691C6.4473 9.19671 6.42346 9.06625 6.36385 8.93189C6.34597 8.88905 6.29431 8.85984 6.25656 8.82479C6.22278 8.74496 6.27643 8.63007 6.13337 8.57944C6.12287 8.575 6.1135 8.56832 6.10595 8.55991C6.09839 8.55149 6.09282 8.54154 6.08966 8.53076C6.07774 8.46456 6.05191 8.34967 6.06979 8.33604C6.17509 8.29126 6.11946 8.25621 6.08767 8.19974C6.07061 8.15263 6.05993 8.10353 6.05588 8.0537C6.0221 7.90766 5.98832 7.76356 5.95256 7.61752C5.91398 7.51566 5.88732 7.40983 5.87308 7.30207C5.86315 6.94184 5.89295 6.57966 5.85719 6.22332C5.83565 6.0501 5.82305 5.87593 5.81944 5.70147C5.81944 5.62553 5.80553 5.52817 5.84527 5.47559C5.9168 5.38213 5.91481 5.31787 5.82341 5.24777L5.96846 5.13288C5.84328 5.08031 5.94859 5.00047 5.93667 4.95958C5.98038 4.944 6.01614 4.94011 6.03402 4.91869C6.05242 4.88895 6.06646 4.85684 6.07575 4.82328C6.11151 4.79602 6.17509 4.76876 6.17708 4.7376C6.17907 4.70645 6.1294 4.65971 6.10555 4.61882C6.08171 4.57793 6.07376 4.54288 6.08171 4.53704C6.19099 4.46889 6.14132 4.36763 6.14132 4.27806C6.07813 4.32278 6.00499 4.35211 5.92794 4.36363C5.85089 4.37514 5.77215 4.3685 5.69824 4.34426C5.72009 4.25469 5.89693 4.34426 5.84725 4.20017C5.87706 4.15539 5.89693 4.08723 5.96647 4.1768V4.03076L5.82739 3.99961C5.8552 3.92951 5.83732 3.82825 5.95852 3.82436C5.95852 3.82436 5.97243 3.78542 5.97839 3.764C5.98247 3.7215 5.99181 3.67965 6.00621 3.63937C6.01813 3.60822 6.05985 3.5868 6.06979 3.55564C6.09363 3.46413 6.10555 3.36092 6.12542 3.27914C6.13775 3.24264 6.15372 3.20742 6.17311 3.17399L6.23073 3.27525C6.23073 3.05911 6.23073 3.05716 6.38173 3.06105L6.41154 2.94033H6.50095C6.50095 2.89749 6.48704 2.8527 6.50095 2.82739C6.55062 2.75339 6.61222 2.68914 6.66984 2.61904L6.64599 2.59372H6.75527C6.75127 2.52888 6.75127 2.46385 6.75527 2.399C6.76497 2.34968 6.77961 2.30141 6.79899 2.25491H6.83078L6.80892 2.35227L6.90429 2.436L6.97185 2.28412V2.2588L6.95396 2.23738H6.97185L6.95396 2.2296L7.02549 2.1926L7.04536 2.17313V2.14392H7.07119V2.16534H7.08311V2.14197H7.05927H7.04536L7.09305 2.09329V2.05824C7.10894 2.0485 7.12683 2.03098 7.13875 2.03293C7.15067 2.03487 7.16259 2.05824 7.17451 2.07187L7.15266 2.14197L7.27584 2.16534V2.07966V2.04461C7.27696 2.03817 7.27696 2.03158 7.27584 2.02514C7.28235 2.02688 7.28921 2.02688 7.29571 2.02514C7.29456 2.01804 7.29456 2.01081 7.29571 2.00372L7.31558 1.9823H7.2977V2.00372H7.27187V1.96477H7.29571V1.9492H7.27187V1.91025H7.2977V1.93167H7.31558L7.29571 1.90831L7.26988 1.89273V1.86157L7.29174 1.84015L7.3136 1.81873H7.35135V1.93557H7.32949V1.95309L7.35135 1.93362L7.39705 1.95114L7.42288 1.87715L7.68515 1.94725C7.68515 1.89273 7.69906 1.84599 7.70502 1.80705L7.85602 1.85378C7.85602 1.85378 7.85602 1.85378 7.85602 1.86547L7.88583 1.88494L7.94941 1.83042L8.26334 1.88883C8.26248 1.88498 8.26248 1.881 8.26334 1.87715V1.82263L8.33487 1.86547L8.35474 1.84599L8.38454 1.81873L8.42031 1.79731V1.82068H8.45806H8.50773V1.77395L8.54349 1.71358C8.6031 1.77784 8.66271 1.84794 8.74219 1.71358L8.78987 1.82847L8.82365 1.77784L8.94088 1.84989L9.06208 1.68827L9.13758 1.74085L9.09586 1.78953C9.14809 1.77263 9.19811 1.74976 9.24487 1.72137C9.30249 1.67659 9.39787 1.61622 9.39191 1.57144C9.37601 1.45266 9.45747 1.45266 9.52304 1.42345C9.54291 1.42345 9.56874 1.40982 9.58066 1.3923C9.61193 1.34897 9.65699 1.31704 9.70878 1.30154C9.76057 1.28603 9.81614 1.28782 9.86678 1.30662C9.94427 1.34751 9.98202 1.32609 10.0078 1.28325C9.98798 1.23847 9.97407 1.20731 9.94625 1.14889L10.0933 1.21705L10.1151 1.18979L10.0237 1.12942L10.1648 1.07685C10.1847 1.10606 10.2006 1.13526 10.2224 1.17031L10.2503 1.07295H10.3814L10.3595 1.0418L10.4827 0.917176C10.4819 0.921025 10.4819 0.925011 10.4827 0.92886H10.5066L10.5741 1.03206H10.6019C10.586 0.919124 10.5701 0.806185 10.5562 0.693247H10.5105V0.792555C10.4588 0.761143 10.42 0.712974 10.4008 0.656416C10.3815 0.599857 10.3831 0.538481 10.4052 0.482949C10.4162 0.440121 10.4162 0.395313 10.4052 0.352486C10.382 0.286054 10.3548 0.221033 10.3238 0.157765L10.133 0.194762L10.0913 0.0506684L9.94824 0.233706L9.93433 0.112979C9.90324 0.0797573 9.86704 0.0515058 9.82704 0.0292491C9.7742 0.00786028 9.71727 -0.00210248 9.66014 4.0959e-05C9.61273 0.0129372 9.56679 0.0305539 9.52304 0.0526156L9.4694 4.0959e-05H9.33826C9.3164 4.0959e-05 9.29256 4.0959e-05 9.2707 4.0959e-05C9.15149 0.019513 9.03227 0.0448268 8.91306 0.0604044C8.75826 0.0675428 8.60419 0.0857653 8.4521 0.114926C8.31502 0.17036 8.18221 0.235437 8.05471 0.309647C7.9653 0.350539 7.87192 0.3778 7.77257 0.414796L7.76264 0.512157C7.71046 0.50716 7.65779 0.512329 7.60767 0.527368C7.55754 0.542406 7.51094 0.567017 7.47056 0.599781C7.43776 0.612061 7.40383 0.621191 7.36923 0.627042L7.21822 0.667934C7.20432 0.667934 7.14669 0.685458 7.14471 0.702983C7.12881 0.812027 7.0553 0.821763 6.96589 0.829552C6.92452 0.828025 6.88362 0.838477 6.84828 0.859602C6.81294 0.880727 6.78474 0.911589 6.76719 0.948332C6.75059 0.986647 6.72296 1.01939 6.68767 1.04256C6.65239 1.06573 6.61098 1.07832 6.5685 1.07879C6.50833 1.08 6.45073 1.10292 6.40674 1.14316C6.36274 1.1834 6.33544 1.23814 6.33007 1.29688L6.37379 1.35335L6.26053 1.54807L6.08767 1.43124C6.06383 1.47018 5.96846 1.50718 6.05191 1.59286C6.05191 1.59286 6.02608 1.62985 6.01813 1.64154C5.98236 1.61233 5.96051 1.57728 5.9307 1.57144C5.9009 1.5656 5.86116 1.61428 5.86315 1.62401C5.8843 1.67024 5.90957 1.71455 5.93865 1.75642C5.91282 1.92973 5.75586 1.97256 5.65254 2.02124C5.6496 2.087 5.63961 2.15226 5.62273 2.21596C5.62273 2.23349 5.56511 2.23738 5.53332 2.24517L5.55518 2.26075L5.28297 2.55478L5.27105 2.66188L5.17369 2.6093C5.15306 2.6279 5.1304 2.64422 5.10614 2.65798C5.09038 2.66093 5.0742 2.66093 5.05845 2.65798C5.07236 2.78844 4.87963 2.81765 4.90347 2.95396C4.90347 2.95396 4.87168 2.96759 4.85579 2.97538C4.83989 2.98317 4.81009 2.99095 4.80015 3.00653C4.79022 3.02211 4.7624 3.09416 4.74253 3.13699C4.66504 3.3103 4.56967 3.50502 4.48821 3.69974C4.47038 3.74078 4.45576 3.78309 4.44449 3.82631C4.43214 3.87627 4.41553 3.92512 4.39482 3.97235C4.37495 4.01129 4.32727 4.03466 4.31336 4.0736C4.26754 4.17972 4.23227 4.28992 4.20805 4.40268C4.17427 4.57598 4.16037 4.75318 4.1405 4.92843C4.13886 5.03286 4.12486 5.13676 4.09877 5.23803C4.07493 5.30619 4.11268 5.35097 4.10871 5.40744C4.10473 5.46391 4.10871 5.51843 4.09877 5.57295L4.0332 5.56516ZM7.28578 12.1292V12.1019H7.25796V12.0727H7.28578V12.0494L7.30763 12.026V12.1448L7.28578 12.1292ZM7.28578 12.0377V12.0591H7.25995L7.28578 12.0377ZM7.28578 12.0377V12.0221L7.29969 12.0377H7.28578ZM8.15207 11.6482C8.16598 11.6482 8.18784 11.6599 8.1938 11.6716C8.21565 11.7183 8.23155 11.767 8.25142 11.8157C8.20281 11.8097 8.15571 11.7952 8.11233 11.7729C8.04093 11.7132 7.97449 11.6481 7.91364 11.5781C7.89973 11.5626 7.91364 11.5334 7.89775 11.4964L8.15207 11.6482ZM7.95338 12.4641C7.93152 12.5245 8.00107 12.5946 7.89973 12.618C7.83814 12.6063 7.7686 12.618 7.76065 12.5206C7.76065 12.4953 7.69508 12.4758 7.66727 12.4466C7.6504 12.4243 7.63762 12.3992 7.62951 12.3726L7.72886 12.3142C7.77059 12.4096 7.82622 12.4836 7.95934 12.4622L7.95338 12.4641ZM7.35135 11.2121C7.39903 11.1595 7.44473 11.1595 7.4944 11.2121C7.54408 11.2646 7.61362 11.3367 7.67323 11.4068C7.70097 11.4317 7.72625 11.459 7.74873 11.4886C7.76497 11.512 7.77582 11.5385 7.78052 11.5665C7.78251 11.5989 7.78251 11.6314 7.78052 11.6638C7.75122 11.6593 7.72255 11.6514 7.69508 11.6405C7.6474 11.619 7.59971 11.5626 7.55997 11.5704C7.46063 11.5879 7.45069 11.5275 7.43281 11.4613C7.40102 11.4847 7.35532 11.5217 7.35333 11.5197C7.30366 11.4652 7.25995 11.4087 7.22418 11.364C7.26988 11.2939 7.30763 11.2549 7.35135 11.2121ZM7.2679 1.86547L7.28777 1.84599V1.86547H7.2679ZM7.31161 1.8421H7.29174V1.82652L7.31161 1.8421ZM7.26392 1.86936V1.88883L7.24604 1.8752L7.26392 1.86936ZM5.18363 6.01886C5.13924 6.05745 5.08895 6.08899 5.03461 6.11233C5.05249 6.04612 5.07037 5.97603 5.08825 5.90593C5.10614 5.83583 5.15183 5.84751 5.17568 5.89035C5.18666 5.90985 5.19307 5.9315 5.19444 5.95373C5.19582 5.97596 5.19212 5.99821 5.18363 6.01886ZM5.16574 5.29061L5.15382 5.53206H5.12799L5.04255 5.3646L5.16574 5.29061ZM5.0048 2.85075H5.06044V2.92085L4.96705 2.89944L5.0048 2.85075Z" fill="white"/>
<path id="Vector_4" d="M70.1082 3.62188C69.9294 3.62188 69.7506 3.62188 69.5717 3.62188C69.5198 3.61609 69.4672 3.62152 69.4177 3.63778C69.3682 3.65405 69.3229 3.68075 69.285 3.71602C69.2471 3.75128 69.2176 3.79425 69.1984 3.84191C69.1793 3.88956 69.1711 3.94074 69.1743 3.99184C69.1743 4.1593 69.1585 4.32676 69.1585 4.49422C69.1585 5.39773 69.1585 6.30123 69.1585 7.20474C69.1585 7.51824 69.1306 7.83369 69.1167 8.15108C69.0015 8.12187 68.9836 8.1024 68.9598 7.98946C68.941 7.83906 68.9118 7.69008 68.8723 7.54355C68.4849 6.36355 68.0875 5.18743 67.706 4.00548C67.6781 3.9143 67.6245 3.83269 67.5514 3.77001C67.4783 3.70732 67.3887 3.6661 67.2927 3.65108C67.2078 3.63357 67.1212 3.62573 67.0344 3.62772C66.6728 3.62772 66.3112 3.64135 65.9496 3.64719C65.7012 3.64719 65.6516 3.69782 65.6496 3.94316C65.6376 5.60998 65.6251 7.27679 65.6118 8.9436C65.6098 8.98999 65.6139 9.03644 65.6237 9.08185C65.6535 9.22984 65.6973 9.26489 65.8502 9.26294C66.0032 9.26099 66.1999 9.26294 66.3748 9.25126C66.4271 9.25646 66.4799 9.25043 66.5296 9.23358C66.5793 9.21673 66.6246 9.18947 66.6624 9.15369C66.7003 9.11792 66.7297 9.07449 66.7486 9.02644C66.7676 8.97838 66.7756 8.92685 66.7722 8.87545C66.796 8.06541 66.8165 7.25537 66.8338 6.44533C66.8338 6.12793 66.8338 5.80859 66.8338 5.48925C66.8338 5.36463 66.8338 5.24195 66.8338 5.11733C66.8338 5.07839 66.8854 5.04334 66.9132 5.00634C66.9401 5.04135 66.9615 5.08007 66.9768 5.12123C67.0205 5.31595 67.0424 5.51067 67.1 5.70539C67.4298 6.76467 67.7696 7.822 68.1054 8.87934C68.1142 8.90844 68.1299 8.93511 68.1511 8.95723C68.2296 9.05532 68.3297 9.13479 68.4439 9.18974C68.5581 9.24469 68.6835 9.27371 68.8107 9.27462C69.1883 9.26099 69.5658 9.26294 69.9433 9.25904C70.1877 9.25904 70.2453 9.20258 70.2532 8.96502C70.2532 8.67683 70.2671 8.38085 70.2731 8.10046L70.3367 4.85641C70.3367 4.52538 70.3486 4.19435 70.3486 3.86333C70.3526 3.68419 70.287 3.62382 70.1082 3.62188Z" fill="white"/>
<path id="Vector_5" d="M49.7085 5.21454C49.5555 4.71216 49.3966 4.21173 49.2416 3.70935C49.2312 3.66742 49.2048 3.63097 49.1679 3.60745C49.131 3.58393 49.0863 3.5751 49.0429 3.58278C48.3555 3.59641 47.67 3.60809 46.9825 3.62951C46.8865 3.61939 46.7901 3.6459 46.7136 3.70356C46.637 3.76122 46.586 3.84558 46.5712 3.93912C46.4659 4.46681 46.3308 4.99256 46.2473 5.52415C46.146 6.14726 46.0804 6.77426 46.0129 7.40126C45.9513 7.97374 45.9096 8.54816 45.8559 9.12259C45.846 9.23163 45.8877 9.26863 45.995 9.26863C46.2255 9.26863 46.456 9.26863 46.6864 9.26863C46.7097 9.2719 46.7335 9.27053 46.7562 9.2646C46.7789 9.25867 46.8002 9.2483 46.8188 9.23412C46.8373 9.21994 46.8528 9.20223 46.8642 9.18207C46.8756 9.1619 46.8827 9.13968 46.8851 9.11675C46.9368 8.9045 46.9964 8.6942 47.052 8.48391C47.0977 8.32034 47.1414 8.27945 47.3143 8.26582C47.8011 8.22103 48.2859 8.18014 48.7727 8.13925C48.9853 8.11978 49.0449 8.17625 49.0429 8.38655C49.0409 8.59684 49.0429 8.86166 49.0429 9.09922C49.0429 9.20437 49.0767 9.255 49.1959 9.25111C49.4608 9.25111 49.7191 9.25111 49.9708 9.25111C50.0821 9.25111 50.1198 9.20632 50.1278 9.10896C50.1536 8.73704 50.1814 8.36513 50.2092 7.97958C50.1874 7.67971 50.1735 7.36816 50.1377 7.0605C50.0512 6.43384 49.9076 5.81605 49.7085 5.21454ZM48.8383 7.08386C48.4031 7.12086 47.968 7.15202 47.5329 7.18512H47.3779C47.2468 7.18512 47.207 7.13838 47.2348 7.00987C47.3799 6.34003 47.5229 5.67214 47.672 5.00424C47.6772 4.95128 47.6935 4.89995 47.7198 4.8534C47.7461 4.80685 47.7819 4.76608 47.8249 4.7336C47.8679 4.70112 47.9173 4.67762 47.9699 4.66456C48.0225 4.6515 48.0773 4.64914 48.1309 4.65764C48.1874 4.65772 48.242 4.67727 48.2853 4.71287C48.3285 4.74848 48.3576 4.79786 48.3674 4.85236C48.5442 5.38005 48.721 5.90775 48.8939 6.43544C48.9396 6.57175 48.9754 6.71195 49.0091 6.85214C49.0429 6.99234 48.9952 7.07218 48.8383 7.08386Z" fill="white"/>
<path id="Vector_6" d="M28.9435 5.40925C28.7786 4.85819 28.5978 4.30907 28.4289 3.75996C28.3852 3.61587 28.3514 3.58276 28.1965 3.58276H27.203V3.6256C26.8613 3.6256 26.5195 3.6256 26.1778 3.6256C25.9115 3.6256 25.832 3.69765 25.7486 3.94105C25.7267 4.00336 25.7069 4.06762 25.689 4.13577C25.46 5.13772 25.302 6.154 25.2161 7.17731C25.1446 7.81794 25.0949 8.46247 25.0333 9.10505C25.0214 9.2433 25.0333 9.26861 25.1724 9.27056C25.4108 9.27056 25.6492 9.27056 25.8877 9.27056C25.9297 9.27387 25.9713 9.26112 26.0039 9.23498C26.0365 9.20885 26.0575 9.17135 26.0625 9.13036L26.2354 8.4761C26.2751 8.32617 26.3228 8.28138 26.4798 8.26775C26.9825 8.22296 27.4732 8.17818 27.9859 8.13729C28.1547 8.12366 28.2203 8.18597 28.2203 8.34953C28.2203 8.60656 28.2203 8.8636 28.2203 9.12842C28.2203 9.21409 28.2481 9.26083 28.3435 9.25888H29.178C29.1928 9.2609 29.2078 9.25971 29.222 9.25538C29.2363 9.25105 29.2494 9.24369 29.2604 9.23384C29.2714 9.22398 29.28 9.21186 29.2857 9.19835C29.2914 9.18484 29.294 9.17027 29.2932 9.15568C29.3032 9.06026 29.323 8.96096 29.325 8.86749C29.335 8.38069 29.3628 7.89388 29.3429 7.40903C29.2939 6.72891 29.1598 6.05728 28.9435 5.40925ZM28.0335 7.08385L26.8414 7.17536C26.3665 7.17536 26.3606 7.17537 26.4301 6.86186C26.5626 6.25823 26.695 5.65395 26.8275 5.04901C26.8871 4.76861 26.9884 4.67515 27.2586 4.65957C27.3141 4.64849 27.3717 4.65813 27.4202 4.6866C27.4688 4.71506 27.5047 4.7603 27.5209 4.8134C27.7448 5.50271 27.9653 6.19202 28.1826 6.88134C28.2283 6.99817 28.1667 7.07216 28.0335 7.08385Z" fill="white"/>
<path id="Vector_7" d="M78.3895 7.20464C78.3716 7.16375 78.3557 7.12091 78.3338 7.06833C78.4749 7.06833 78.6021 7.05275 78.7312 7.03718C78.8212 7.03857 78.9099 7.01566 78.9875 6.97097C79.0791 6.89102 79.1523 6.79291 79.2024 6.68314C79.2524 6.57337 79.278 6.45445 79.2776 6.33423C79.2712 6.19425 79.2539 6.05495 79.226 5.91753C79.075 5.21841 78.8758 4.53012 78.6299 3.85739C78.5544 3.64319 78.4987 3.60425 78.2643 3.60425H75.1051C75.1316 3.6753 75.1496 3.74914 75.1587 3.82428C75.1428 4.91861 75.121 6.01295 75.1031 7.10728C75.0912 7.78491 75.0832 8.47032 75.0693 9.14016C75.0693 9.24531 75.1051 9.2862 75.2124 9.2862C75.4588 9.2862 75.7051 9.2862 75.9515 9.2862C76.0529 9.2862 76.0906 9.24336 76.0906 9.14406C76.0906 8.61052 76.0906 8.07699 76.1144 7.54345C76.1343 6.70226 76.1601 5.86301 76.186 5.01208C76.1839 4.93735 76.2101 4.86451 76.2597 4.80767C76.3092 4.75083 76.3786 4.71404 76.4542 4.70442C76.5655 4.67911 76.6767 4.646 76.788 4.62459C76.9867 4.58759 77.2013 4.54864 77.4079 4.52138C77.4556 4.5123 77.505 4.51835 77.549 4.53866C77.5929 4.55897 77.6291 4.59248 77.6523 4.63432C77.7914 4.89719 77.9345 5.15812 78.0497 5.42684C78.0994 5.54062 78.1297 5.66168 78.1391 5.78512C78.1488 5.84631 78.1334 5.90878 78.0961 5.9588C78.0588 6.00882 78.0028 6.0423 77.9404 6.05189C77.857 6.0772 77.7735 6.10057 77.6881 6.11809C77.3424 6.18819 76.9947 6.25245 76.6509 6.32839C76.6012 6.33813 76.5277 6.3946 76.5238 6.43549C76.5019 6.63021 76.4959 6.83856 76.492 7.04107C76.4892 7.06186 76.4916 7.08298 76.499 7.10266C76.5063 7.12234 76.5184 7.14 76.5342 7.15414C76.55 7.16827 76.569 7.17847 76.5897 7.18387C76.6103 7.18927 76.632 7.18972 76.6529 7.18517C76.7324 7.18517 76.8099 7.16764 76.8893 7.15985C77.1178 7.13454 77.1159 7.13454 77.2212 7.33121L78.3279 9.39719C78.3376 9.43214 78.3553 9.46445 78.3797 9.49165C78.4041 9.51885 78.4346 9.54022 78.4687 9.55412C78.5028 9.56802 78.5397 9.5741 78.5766 9.57187C78.6135 9.56965 78.6494 9.55919 78.6815 9.54129L79.1385 9.36993C79.3034 9.30762 79.3193 9.27063 79.2458 9.10901L78.3895 7.20464Z" fill="white"/>
<path id="Vector_8" d="M33.579 9.54134L34.0221 9.37388C34.2049 9.30572 34.2208 9.27262 34.1393 9.09932L33.2849 7.20468C33.2671 7.16185 33.2512 7.11901 33.2293 7.06838C33.4061 7.0528 33.5671 7.03528 33.728 7.02554C33.7794 7.02017 33.8288 7.00311 33.8723 6.97573C33.9157 6.94835 33.9521 6.9114 33.9784 6.86782C34.0677 6.7483 34.1288 6.61085 34.1573 6.46538C34.1858 6.31992 34.181 6.17006 34.1433 6.02662C33.9872 5.30013 33.7821 4.58458 33.5293 3.88469C33.4499 3.65687 33.3962 3.61987 33.1459 3.61987H30.0026C30.0289 3.68832 30.0469 3.75956 30.0562 3.83212C30.0463 4.53311 30.0324 5.23216 30.0204 5.93316L29.9668 9.1441C29.9668 9.2843 29.9807 9.29988 30.1238 9.29988H30.7973C30.9682 9.29988 30.9781 9.29988 30.9801 9.12269C30.996 8.11014 31.0079 7.09759 31.0278 6.08504C31.0278 5.73649 31.0556 5.38599 31.0775 5.03549C31.0764 4.96091 31.1033 4.88853 31.1531 4.83216C31.203 4.77578 31.2722 4.73934 31.3477 4.72978C31.455 4.70447 31.5623 4.67331 31.6716 4.65384C31.8822 4.6149 32.0908 4.57401 32.3034 4.54674C32.3593 4.53902 32.4161 4.55001 32.4648 4.57793C32.5135 4.60585 32.5511 4.64907 32.5716 4.70057C32.6173 4.79988 32.6869 4.8953 32.7326 4.98681C32.8339 5.21074 32.9313 5.43272 33.0187 5.6625C33.043 5.70717 33.0554 5.75718 33.0545 5.80782C33.0536 5.85846 33.0396 5.90804 33.0138 5.9519C32.9879 5.99575 32.9511 6.03241 32.9067 6.05844C32.8624 6.08446 32.812 6.09898 32.7604 6.10062C32.363 6.17656 31.9656 6.26224 31.5682 6.35181C31.5146 6.36349 31.4331 6.41801 31.4292 6.46085C31.4076 6.66202 31.397 6.86416 31.3974 7.06643C31.3951 7.08712 31.3978 7.10804 31.4053 7.12751C31.4128 7.14698 31.4249 7.16443 31.4406 7.17847C31.4562 7.1925 31.4751 7.20272 31.4955 7.20829C31.516 7.21386 31.5375 7.21463 31.5583 7.21053L31.7828 7.18716C32.0233 7.1599 32.0232 7.16185 32.1385 7.38188L33.2313 9.42645C33.2447 9.45784 33.2648 9.48606 33.2902 9.50925C33.3156 9.53243 33.3458 9.55005 33.3786 9.56092C33.4115 9.57179 33.4464 9.57566 33.481 9.57229C33.5155 9.56891 33.5489 9.55836 33.579 9.54134Z" fill="white"/>
<path id="Vector_9" d="M84.128 3.59847L83.5081 3.61794C83.3094 3.61794 83.2717 3.66273 83.2677 3.85355C83.2518 4.46498 83.2399 5.0764 83.226 5.68782C83.226 6.01106 83.226 6.33624 83.1962 6.66143C83.1465 7.08981 83.0551 7.51236 82.9855 7.9388C82.9677 8.05174 82.91 8.079 82.8047 8.06147C82.4511 7.99721 82.0954 7.93296 81.7398 7.87649C81.6962 7.874 81.6552 7.85527 81.6253 7.82413C81.5954 7.79299 81.5787 7.7518 81.5788 7.70903L81.3404 5.99938C81.2397 5.27502 81.139 4.55065 81.0384 3.82629C81.0145 3.66467 80.947 3.6121 80.7761 3.61015H80.2277C80.029 3.61015 80.0111 3.63157 80.0151 3.82824C80.0151 4.09695 80.029 4.36567 80.035 4.63438C80.0469 5.05303 80.035 5.47558 80.0747 5.89423C80.1284 6.57965 80.2039 7.25728 80.2734 7.95048C80.3092 8.29708 80.343 8.64758 80.3966 8.99224C80.4324 9.2259 80.5218 9.28043 80.7662 9.28043H83.7465C83.8141 9.28043 83.8836 9.28043 83.9452 9.28043C83.9846 9.28203 84.0238 9.27572 84.0605 9.26188C84.0973 9.24804 84.1308 9.22697 84.1589 9.19997C84.187 9.17296 84.2092 9.1406 84.224 9.10487C84.2389 9.06914 84.2461 9.03081 84.2452 8.99224C84.2671 8.11599 84.289 7.23975 84.3029 6.69064C84.3029 5.50089 84.3029 4.63633 84.3029 3.76982C84.3049 3.59458 84.3029 3.59263 84.128 3.59847Z" fill="white"/>
<path id="Vector_10" d="M45.6732 3.62963C45.4308 3.62963 45.1884 3.62963 44.946 3.62963C44.88 3.62276 44.8135 3.63683 44.7563 3.66978C44.699 3.70273 44.6541 3.75282 44.6281 3.81266C44.5079 4.04855 44.407 4.29336 44.3261 4.54481C44.1274 5.25165 43.9665 5.96433 43.7896 6.67311C43.7201 6.94962 43.6545 7.22417 43.575 7.49873C43.5655 7.52585 43.5495 7.55038 43.5284 7.57034C43.5074 7.5903 43.4818 7.60512 43.4538 7.61362C43.4221 7.61362 43.3724 7.54741 43.3346 7.50652C43.3221 7.48647 43.3146 7.46377 43.3128 7.44031L42.8538 5.33149C42.7445 4.84079 42.6352 4.35788 42.524 3.86134C42.4862 3.70167 42.4107 3.62963 42.2577 3.62573C41.9915 3.62573 41.7252 3.62573 41.463 3.62573C41.3199 3.62573 41.2643 3.70946 41.306 3.84577C41.3213 3.88976 41.3339 3.93463 41.3437 3.98012C41.5822 5.11535 41.8226 6.24862 42.0551 7.38384C42.1723 7.94269 42.2756 8.50544 42.3869 9.06623C42.3898 9.10038 42.3998 9.13359 42.4162 9.16382C42.4327 9.19404 42.4553 9.22064 42.4827 9.24198C42.51 9.26332 42.5416 9.27895 42.5753 9.28791C42.6091 9.29686 42.6443 9.29896 42.6789 9.29406H43.4062V9.27458H44.0976C44.344 9.27458 44.4334 9.20643 44.495 8.97277C44.7732 7.76031 45.05 6.54655 45.3255 5.33149C45.4049 4.84813 45.5478 4.37688 45.7507 3.9295C45.7751 3.87603 45.7924 3.81977 45.8024 3.76204C45.8123 3.66857 45.7785 3.62768 45.6732 3.62963Z" fill="white"/>
<path id="Vector_11" d="M20.4932 9.14017C20.4932 9.25505 20.5389 9.28816 20.6462 9.28621C20.8806 9.28621 21.1151 9.28621 21.3495 9.28621C21.5124 9.28621 21.578 9.24142 21.5919 9.07786C21.6277 8.67479 21.6515 8.27171 21.6754 7.86864C21.6786 7.75552 21.674 7.64232 21.6615 7.52983C21.6615 7.4461 21.6774 7.4091 21.7767 7.40326C22.5691 7.3523 23.352 7.20513 24.1074 6.96514C24.1732 6.95247 24.2347 6.92367 24.2862 6.88141C24.3855 6.78827 24.4637 6.67557 24.5154 6.55072C24.5671 6.42587 24.5912 6.2917 24.5862 6.15704C24.5783 6.02895 24.5584 5.90184 24.5266 5.77734C24.3359 5.13736 24.1372 4.49802 23.9305 3.85934C23.863 3.64515 23.7974 3.6062 23.5649 3.6062H20.523C20.5505 3.66817 20.5686 3.73378 20.5766 3.80092C20.5766 4.27604 20.5647 4.75116 20.5567 5.22628C20.5369 6.52701 20.5157 7.83164 20.4932 9.14017ZM21.6019 5.7715C21.6217 5.47357 21.6396 5.14644 21.6635 4.82126C21.6637 4.75396 21.6855 4.68844 21.7258 4.63394C21.7661 4.57943 21.8228 4.5387 21.888 4.51749C22.1568 4.42196 22.4432 4.38282 22.7284 4.40261C22.7876 4.40585 22.8447 4.42453 22.894 4.45672C22.9432 4.4889 22.9828 4.53342 23.0086 4.58565C23.2222 4.95445 23.3751 5.35401 23.4616 5.76955C23.473 5.80535 23.4761 5.84316 23.4709 5.8803C23.4656 5.91743 23.4521 5.95298 23.4312 5.9844C23.4103 6.01582 23.3826 6.04234 23.3501 6.06209C23.3176 6.08183 23.2811 6.09431 23.2431 6.09863C22.7688 6.20378 22.2926 6.30503 21.8145 6.40239C21.6476 6.43744 21.5999 6.38876 21.6019 6.21936V5.7715Z" fill="white"/>
<path id="Vector_12" d="M35.2798 9.25115H37.7476H38.8543C38.9536 9.25115 39.0053 9.2161 38.9954 9.1129C38.9775 8.91818 38.9695 8.72345 38.9417 8.52873C38.9417 8.47709 38.9208 8.42756 38.8835 8.39104C38.8463 8.35453 38.7957 8.33401 38.743 8.33401L37.0939 8.18992C36.8197 8.1685 36.8018 8.1354 36.9349 7.89979C37.5403 6.81065 38.1436 5.73514 38.745 4.67326C38.8464 4.48642 38.8892 4.2744 38.8682 4.06378C38.872 3.99067 38.8493 3.91859 38.8043 3.8602C38.7592 3.8018 38.6946 3.76082 38.6218 3.74444C38.5045 3.71191 38.3839 3.69168 38.2622 3.68408C37.7337 3.68408 37.2051 3.68408 36.6727 3.68408H35.0831C35.0325 3.67699 34.981 3.68098 34.9321 3.69576C34.8924 3.71523 34.8427 3.77365 34.8487 3.8087C34.8745 4.00342 34.9182 4.19814 34.954 4.39286C34.9589 4.4497 34.9852 4.50271 35.0278 4.54158C35.0704 4.58045 35.1263 4.6024 35.1845 4.60316C35.4149 4.62069 35.6434 4.64405 35.8719 4.66158C36.2693 4.69468 36.6806 4.71999 37.082 4.75699C37.2806 4.77646 37.3343 4.88745 37.2429 5.06075C37.1316 5.27105 37.0243 5.48525 36.8992 5.68776C36.2249 6.7704 35.5494 7.85175 34.8725 8.93181C34.8396 8.97995 34.8123 9.03155 34.791 9.08564C34.7374 9.21999 34.803 9.29788 34.948 9.28036C35.0672 9.26283 35.1686 9.25309 35.2798 9.25115Z" fill="white"/>
<path id="Vector_13" d="M60.8907 8.30301C60.3423 8.25433 59.7919 8.20371 59.2416 8.15892C58.9634 8.13555 58.9455 8.1044 59.0846 7.861L60.8927 4.65395C61.0028 4.44905 61.0405 4.21419 61 3.98605C60.9975 3.93471 60.9791 3.88534 60.9471 3.8446C60.9151 3.80386 60.8712 3.77371 60.8211 3.75823C60.6866 3.71478 60.5471 3.68732 60.4059 3.67645C59.8774 3.66671 59.3488 3.67645 58.8164 3.67645H57.2427C57.1911 3.67353 57.1394 3.67353 57.0877 3.67645C57.0717 3.67665 57.056 3.68065 57.0419 3.6881C57.0278 3.69555 57.0157 3.70624 57.0067 3.71925C56.9978 3.73225 56.9921 3.7472 56.9903 3.7628C56.9885 3.7784 56.9906 3.79421 56.9963 3.80886C57.0321 4.00358 57.0619 4.18467 57.0977 4.3716C57.0992 4.42928 57.1238 4.48405 57.1662 4.52411C57.2086 4.56417 57.2653 4.58632 57.3242 4.58579C57.5527 4.61111 57.7832 4.63058 58.0117 4.6481C58.419 4.68121 58.8283 4.70652 59.2356 4.74352C59.4343 4.76299 59.48 4.87398 59.3926 5.03949C59.2813 5.25563 59.172 5.47177 59.0449 5.67818C58.3786 6.75563 57.705 7.83049 57.0242 8.90276C56.9897 8.95472 56.9598 9.00944 56.9347 9.06632C56.8811 9.20847 56.9487 9.2883 57.0997 9.26104C57.1791 9.26104 57.2586 9.24352 57.3361 9.24157H59.8754C60.2449 9.24157 60.6145 9.24157 60.9841 9.24157C61.0814 9.24157 61.1391 9.20457 61.1311 9.10526C61.1172 8.91054 61.1033 8.71582 61.0814 8.53473C61.0715 8.38674 60.998 8.31275 60.8907 8.30301Z" fill="white"/>
<path id="Vector_14" d="M10.483 4.46496C10.4114 4.50391 10.4134 4.45523 10.3916 4.41628C10.3715 4.38505 10.3403 4.36217 10.3041 4.35203C10.2674 4.35124 10.2309 4.35787 10.1968 4.3715V4.39876L10.3558 4.43381L10.3657 4.46886L10.2465 4.5117C10.2266 4.66747 10.175 4.69668 9.97828 4.65384L9.94847 4.67331C9.94754 4.66751 9.94754 4.6616 9.94847 4.65579C9.94197 4.65753 9.93511 4.65753 9.9286 4.65579C9.92767 4.64998 9.92767 4.64407 9.9286 4.63827V4.64995L9.95245 4.67331C9.91867 4.72784 9.88688 4.78236 9.85509 4.83688H9.81535C9.81535 4.76483 9.81535 4.69279 9.81535 4.62269C9.81535 4.62269 9.8531 4.611 9.87297 4.60711L9.80541 4.58958C9.78937 4.62995 9.77011 4.66902 9.74779 4.70642C9.64447 4.84662 9.4577 4.9284 9.42989 5.12312C9.42824 5.12836 9.42542 5.13317 9.42164 5.13721C9.41786 5.14125 9.41321 5.14442 9.40803 5.14649C9.33958 5.17649 9.28256 5.22692 9.2451 5.29058L9.06628 5.52619C9.04588 5.54889 9.03034 5.57538 9.02058 5.60408C9.02018 5.62715 9.01412 5.6498 9.00293 5.6701C8.99173 5.6904 8.97572 5.70777 8.95625 5.72075C8.93678 5.73372 8.91441 5.74193 8.89103 5.74467C8.86765 5.74741 8.84394 5.7446 8.82189 5.73649L8.70268 5.71312L8.68281 6.0091H8.83183C8.81553 6.05503 8.79628 6.09991 8.77421 6.14346C8.75831 6.16682 8.72453 6.17851 8.70069 6.19603V6.20772L8.6848 6.2194V6.24471V6.26613H8.70864V6.31286L8.6848 6.2856C8.65897 6.31092 8.5934 6.32065 8.65499 6.37518L8.6848 6.34791L8.7146 6.32065V6.35181C8.73844 6.38881 8.78215 6.42775 8.78017 6.4628C8.76875 6.56042 8.7515 6.6573 8.72851 6.75293C8.72851 6.81135 8.70665 6.87171 8.69473 6.94766L8.57949 6.85419C8.56558 7.00412 8.54969 7.1229 8.54571 7.24363C8.54174 7.36436 8.54571 7.48508 8.54571 7.60776H8.56359L8.58545 7.41304H8.63512C8.65102 7.46172 8.6689 7.51235 8.6848 7.56297C8.70069 7.6136 8.70466 7.74406 8.74838 7.75769C8.84574 7.80053 8.81792 7.89595 8.87355 7.95241C8.90178 7.98324 8.92401 8.01888 8.93912 8.05756C8.98482 8.15298 9.02853 8.25229 9.06231 8.32044L9.24709 8.42948L9.44578 8.53658L9.36233 8.68262C9.36233 8.68262 9.36233 8.69625 9.37624 8.6943C9.53519 8.67872 9.48552 8.79945 9.50142 8.87734C9.50142 8.88708 9.50142 8.90071 9.50142 8.90655C9.56301 8.9747 9.62858 9.0409 9.6862 9.10127C9.70842 9.13322 9.72458 9.16884 9.73389 9.20642C9.75375 9.27457 9.76965 9.34467 9.78952 9.41282L9.81336 9.40114C9.81336 9.36609 9.83124 9.33104 9.84714 9.26678L9.92066 9.44008L10.3319 9.54134L10.5724 9.73606C10.5724 9.73606 10.5902 9.72437 10.5902 9.72048C10.5902 9.58807 10.5763 9.45761 10.5664 9.33104C10.5664 9.31741 10.5406 9.29015 10.5287 9.29015C10.4293 9.29015 10.4432 9.21421 10.4114 9.16163C10.3561 9.07946 10.3316 8.98108 10.3419 8.88318C10.3419 8.86955 10.3161 8.84813 10.2982 8.8345C10.2301 8.78221 10.1739 8.71658 10.1332 8.64182C10.0925 8.56705 10.0682 8.48478 10.0617 8.40027C10.0617 8.34186 10.0617 8.25229 10.0399 8.23281C9.93655 8.16855 9.97828 8.07314 9.95046 7.99331C9.90277 7.85116 9.97828 7.69149 9.87098 7.55324C9.84714 7.52208 9.85111 7.44614 9.81932 7.39357C9.80939 7.37409 9.81932 7.3371 9.83522 7.30594L9.93258 7.37994C9.93258 7.28647 9.90476 7.16185 9.92264 7.15601C10.0697 7.10733 10.0379 6.97881 10.0717 6.8795C10.0811 6.82986 10.1037 6.78353 10.1372 6.74515C10.2256 6.64911 10.2932 6.5365 10.3359 6.41412C10.3679 6.35575 10.4081 6.30201 10.4551 6.25445C10.477 6.23303 10.5247 6.23303 10.5386 6.22913C10.5902 6.13372 10.6399 6.03441 10.6956 5.93316L10.8346 5.83775C10.8525 5.64302 11.0015 5.60213 11.1347 5.53788L11.1585 5.64497L11.2638 5.53009C11.3552 5.60992 11.389 5.59629 11.4506 5.49504C11.4849 5.46486 11.5297 5.44882 11.5758 5.45025C11.6016 5.45025 11.6294 5.48141 11.6393 5.48725C11.6704 5.45687 11.7043 5.42949 11.7407 5.40547C11.7407 5.40547 11.7824 5.43857 11.8062 5.45609L11.7963 5.42688L12.0129 5.39962C12.0467 5.35749 12.0869 5.32071 12.1321 5.29058C12.2031 5.26099 12.2761 5.23627 12.3506 5.21659L12.4957 5.17375C12.5192 5.16468 12.5418 5.1536 12.5632 5.14065L12.5215 5.09196C12.5017 5.09196 12.4679 5.09196 12.4659 5.09196C12.444 5.01408 12.4262 4.93814 12.4063 4.86025H12.3685C12.3427 4.9284 12.3407 5.01992 12.2215 4.98292C12.2042 5.01276 12.1895 5.04403 12.1778 5.07639L12.142 5.01797L12.0129 5.13675C11.999 5.07055 11.991 5.03744 11.9851 5.00629H11.9493L11.9016 5.15038L11.7148 5.18154H11.7029C11.6101 5.1686 11.5165 5.16145 11.4228 5.16012C11.3385 5.17037 11.2554 5.18796 11.1744 5.21269L11.1049 4.98682C11.0512 5.07639 11.0075 5.14649 10.9697 5.21659C10.932 5.28669 10.8883 5.25943 10.8406 5.21659C10.8406 5.28863 10.8525 5.35094 10.8565 5.41131L10.5843 5.51451C10.568 5.49655 10.5527 5.4777 10.5386 5.45804L10.6896 5.38989L10.6439 5.37042C10.6598 5.29058 10.6757 5.21074 10.6916 5.12312L10.7969 5.14649C10.7981 5.12073 10.8046 5.09548 10.8159 5.0722C10.8272 5.04891 10.8431 5.02806 10.8627 5.01085C10.8823 4.99364 10.9052 4.98042 10.9301 4.97195C10.9549 4.96348 10.9812 4.95992 11.0075 4.9615C11.0353 4.9615 11.0611 4.8953 11.0969 4.84856H11.2201C11.234 4.90114 11.2499 4.95566 11.2698 5.02381L11.3691 4.94592L11.3254 4.7882C11.3588 4.75635 11.3947 4.72706 11.4327 4.70058C11.4883 4.66747 11.5519 4.64216 11.6115 4.61295L11.6433 4.65579C11.6075 4.71226 11.5698 4.76678 11.5281 4.83104C11.563 4.82589 11.5985 4.82589 11.6334 4.83104C11.6796 4.85001 11.7298 4.85812 11.7798 4.85474C11.8298 4.85136 11.8783 4.83658 11.9215 4.81157C11.9572 4.79209 12.0685 4.72978 12.1202 4.83104C12.1202 4.83104 12.1758 4.80183 12.2056 4.79015C12.2354 4.77846 12.293 4.76483 12.3367 4.7512V4.78041L12.3924 4.64216C12.4281 4.722 12.456 4.77846 12.4818 4.83688L12.5692 4.85635L12.8215 4.66163L12.8335 4.84272L12.8891 4.66942H12.9189C12.9189 4.70252 12.9189 4.74341 12.9189 4.76483C12.8672 4.82714 12.909 4.8583 12.9487 4.89724C12.9189 4.96345 12.8931 5.0355 12.7838 5.00045C12.8494 5.09196 12.9328 5.06081 13.0123 5.05107C13.0918 5.14259 13.1772 5.07639 13.2607 5.05107C13.2663 5.07449 13.2779 5.09613 13.2944 5.11396C13.3109 5.13178 13.3317 5.14522 13.3549 5.153C13.3781 5.16078 13.403 5.16266 13.4272 5.15846C13.4514 5.15425 13.474 5.1441 13.4931 5.12896C13.5587 5.08612 13.5746 5.07639 13.5666 5.16206C13.5666 5.16206 13.5845 5.18738 13.5964 5.18933C13.6109 5.1895 13.625 5.18467 13.6362 5.17569C13.664 5.15428 13.6859 5.12896 13.7097 5.10754L13.6859 4.99071L13.7097 5.00434C13.7335 5.05107 13.7812 5.09781 13.7812 5.14649C13.7812 5.25553 13.8289 5.25358 13.9044 5.23411C13.9422 5.26332 14.0157 5.27111 14.0236 5.29837C14.0614 5.4191 14.1587 5.39768 14.2442 5.40936C14.2621 5.41233 14.2787 5.42047 14.2919 5.43273C14.3566 5.47804 14.4171 5.52886 14.4727 5.58461C14.5502 5.66834 14.6157 5.7618 14.7071 5.88058C14.7071 5.89227 14.7369 5.93511 14.7647 5.9721C14.7926 6.0091 14.8005 6.01105 14.8144 6.0091C14.9237 5.98379 14.9316 6.03636 14.9197 6.12204C14.915 6.16475 14.915 6.20784 14.9197 6.25055L15.031 6.33428C15.0469 6.33428 15.0588 6.31286 15.0727 6.29339C15.0588 6.31286 15.0469 6.33234 15.031 6.33428L15.0131 6.37712H15.0787L15.1601 6.48032V6.30897L15.2635 6.2895L15.2317 6.37323C15.2416 6.4258 15.2535 6.48032 15.2674 6.54264H15.1224L15.1025 6.58547H15.0727H15.0489V6.56016H15.0608C15.0131 6.54264 14.9793 6.56016 14.9773 6.60884C14.9754 6.65752 14.9773 6.74514 14.9773 6.81719L15.0528 6.79772C15.056 6.79912 15.0594 6.79984 15.0628 6.79984C15.0662 6.79984 15.0696 6.79912 15.0727 6.79772C15.0745 6.79135 15.0745 6.78462 15.0727 6.77825V6.7393H15.1005L15.0886 6.72957V6.70231C15.1582 6.70231 15.1999 6.70231 15.1939 6.79383C15.1952 6.84909 15.2032 6.904 15.2178 6.95739L15.3648 6.93013C15.3946 7.07617 15.5039 7.00607 15.5993 6.97881L15.6251 7.09759C15.6469 7.0236 15.796 7.03723 15.7503 6.9165C15.7503 6.89703 15.79 6.86198 15.8079 6.83082C15.8258 6.79967 15.8575 6.72373 15.8834 6.6692C15.796 6.64 15.8297 6.47448 15.6847 6.51537C15.7105 6.40828 15.7344 6.32065 15.7562 6.21161C15.6668 6.21161 15.6688 6.15709 15.7026 6.10451C15.7297 6.06855 15.7618 6.03644 15.7979 6.0091H15.7463C15.7639 5.96514 15.7765 5.91944 15.784 5.8728C15.7834 5.81793 15.7781 5.76322 15.7681 5.70923C15.6688 5.70923 15.7681 5.61771 15.7304 5.58071C15.693 5.53905 15.6578 5.4955 15.6251 5.45025L15.5834 5.49893L15.4403 5.21464C15.339 5.33731 15.2953 5.26332 15.2575 5.19711C15.2355 5.15065 15.2176 5.10245 15.2039 5.05302C15.2039 5.02187 15.2039 4.98097 15.186 4.95955C15.1085 4.87193 15.027 4.79015 14.9436 4.70447L14.8959 4.78431C14.8927 4.75827 14.8843 4.73312 14.8709 4.71037C14.8576 4.68762 14.8398 4.66774 14.8184 4.65192C14.7971 4.6361 14.7727 4.62466 14.7468 4.6183C14.7208 4.61194 14.6938 4.61078 14.6674 4.6149C14.6297 4.61964 14.5913 4.61437 14.5564 4.59965C14.5214 4.58492 14.4911 4.56127 14.4687 4.53117C14.3614 4.36955 14.1965 4.37344 14.0356 4.3676C13.8746 4.36176 13.7792 4.2683 13.815 4.10278C13.6819 4.04437 13.7534 4.17872 13.7137 4.20598C13.5666 4.21572 13.4693 4.17094 13.5031 3.99958C13.4743 4.01519 13.4426 4.02486 13.4099 4.028C13.3772 4.03114 13.3442 4.02767 13.3129 4.01782C13.2817 4.00797 13.2528 3.99193 13.2281 3.97071C13.2033 3.94949 13.1833 3.92353 13.1693 3.89443L13.0779 3.97232C13.0401 3.87106 13.0302 3.86717 12.9308 3.91196C12.9243 3.9148 12.9171 3.91627 12.91 3.91627C12.9028 3.91627 12.8957 3.9148 12.8891 3.91196C12.7739 3.86328 12.6368 3.85743 12.5553 3.74255C12.5553 3.73087 12.5156 3.71724 12.5036 3.72308C12.4251 3.74955 12.3421 3.76079 12.2593 3.75618C12.144 3.75618 12.0447 3.83407 11.9056 3.81654C11.7488 3.82009 11.5935 3.84633 11.4446 3.89443C11.4007 3.8952 11.3572 3.90242 11.3155 3.91585C11.232 3.96453 11.1545 4.02489 11.0751 4.08136L11.0611 4.09499L10.8485 4.17094L10.8704 4.18067L10.6081 4.51754C10.5565 4.49417 10.5048 4.45328 10.483 4.46496ZM9.4279 5.81048L9.39412 5.79491C9.43585 5.70728 9.47757 5.62161 9.51731 5.53398C9.61268 5.68392 9.44578 5.71312 9.4279 5.81048ZM14.1707 5.02381C14.1945 5.00434 14.2521 5.02381 14.2938 5.02381L14.3276 4.90503C14.3733 4.9906 14.4132 5.07907 14.4468 5.16985C14.4468 5.18738 14.3892 5.24969 14.3654 5.24579C14.3415 5.2419 14.2839 5.19906 14.2422 5.1718C14.2005 5.14454 14.1687 5.16012 14.1647 5.14454C14.1607 5.12896 14.1488 5.04328 14.1707 5.02381ZM13.9084 4.90893L14.0892 4.94592C14.0395 5.01797 13.9938 5.08807 13.9461 5.16012C13.8329 5.08418 13.96 4.9985 13.9084 4.90893ZM12.6407 4.47859C12.6407 4.56427 12.6407 4.62074 12.6288 4.7181L12.4679 4.55454L12.6407 4.47859ZM11.4784 4.00347C11.5185 3.98847 11.5607 3.97992 11.6036 3.97816C11.6453 3.97816 11.6771 3.97816 11.6691 3.92753C11.7097 3.91895 11.7517 3.91895 11.7923 3.92753C11.8394 3.95435 11.8823 3.98781 11.9195 4.02684C11.7903 4.23714 11.5003 4.12225 11.3353 4.29361C11.3095 4.14952 11.3473 4.0541 11.4784 4.00932V4.00347Z" fill="white"/>
<path id="Vector_15" d="M64.8628 3.63153H63.9926V3.61011C63.3846 3.65489 62.7746 3.69384 62.1666 3.74641C61.9003 3.76783 61.8427 3.83209 61.797 4.08912C61.6753 4.78013 61.6267 5.48159 61.652 6.18237C61.6738 6.88142 61.7295 7.58047 61.7791 8.27952C61.795 8.50734 61.8368 8.73321 61.8666 8.96104C61.8679 8.99651 61.8823 9.0303 61.9071 9.0561C61.932 9.0819 61.9656 9.09795 62.0017 9.10124C62.4429 9.17809 62.8879 9.23204 63.3349 9.26286C63.8276 9.27454 64.3283 9.21028 64.8211 9.18691C64.9363 9.18691 64.9761 9.1285 64.9721 9.02724C64.9721 8.85589 64.9522 8.68453 64.9443 8.51513C64.9443 8.40414 64.8906 8.35935 64.7714 8.36325C64.4774 8.36325 64.1754 8.38077 63.8892 8.36325C63.6796 8.35737 63.4714 8.32663 63.2693 8.27173C62.8719 8.15684 62.7269 7.88228 62.8064 7.49284C62.8182 7.44748 62.8261 7.40124 62.8302 7.35459C62.8321 7.3056 62.8504 7.25859 62.8824 7.2209C62.9144 7.18321 62.9582 7.15696 63.007 7.14624C63.0514 7.12817 63.0973 7.11384 63.1441 7.1034C63.5078 7.04693 63.8694 6.98657 64.235 6.93983C64.4436 6.91452 64.5092 6.86 64.5092 6.65554C64.5092 6.50366 64.5092 6.35178 64.5092 6.1999C64.5128 6.18044 64.5117 6.16041 64.5059 6.14146C64.5001 6.12251 64.4898 6.10519 64.4759 6.09091C64.4619 6.07664 64.4446 6.06584 64.4255 6.0594C64.4065 6.05295 64.3861 6.05105 64.3661 6.05385H63.6647H62.9276C62.9066 6.05644 62.8852 6.05448 62.8651 6.04813C62.8449 6.04177 62.8264 6.03117 62.8109 6.01707C62.7954 6.00297 62.7832 5.9857 62.7752 5.96649C62.7672 5.94728 62.7636 5.92659 62.7647 5.90587C62.7475 5.69405 62.7441 5.48137 62.7547 5.26913C62.7814 5.07679 62.873 4.89873 63.0148 4.76325C63.1567 4.62777 63.3407 4.54264 63.5376 4.5214C63.9171 4.49803 64.2966 4.45909 64.6761 4.43378C64.728 4.43746 64.7794 4.4222 64.8205 4.39092C64.8616 4.35964 64.8894 4.31456 64.8986 4.26437C64.9344 4.12612 64.982 3.98981 65.0218 3.85156C65.0615 3.71331 65.0397 3.63347 64.8628 3.63153Z" fill="white"/>
<path id="Vector_16" d="M74.3303 3.59462H71.1016C71.0543 3.5899 71.0066 3.59319 70.9605 3.60436C70.9208 3.61799 70.8691 3.65693 70.8651 3.69003C70.8313 3.93538 70.8055 4.18462 70.7856 4.43192C70.7856 4.5137 70.8294 4.56238 70.9188 4.58185C71.1651 4.63832 71.4115 4.70258 71.6559 4.76294C71.9003 4.82331 71.9738 4.90704 71.9778 5.15239C71.9937 6.03253 72.0102 6.91201 72.0275 7.79085C72.0354 8.22313 72.044 8.65542 72.0533 9.0877C72.0533 9.23374 72.101 9.28242 72.252 9.28242H72.9553C73.1064 9.28242 73.1381 9.25516 73.154 9.10717L73.2733 5.86507C73.2852 5.57688 73.2971 5.2809 73.315 5.00245C73.3153 4.94623 73.3355 4.89185 73.372 4.84855C73.4086 4.80524 73.4594 4.77569 73.5157 4.76489C73.8137 4.69869 74.1117 4.6208 74.4078 4.55849C74.4315 4.55699 74.4546 4.55055 74.4755 4.53961C74.4964 4.52867 74.5148 4.51348 74.5292 4.49505C74.5437 4.47663 74.554 4.45538 74.5595 4.43274C74.5649 4.41011 74.5653 4.38659 74.5608 4.36377C74.5608 4.18073 74.5608 3.99769 74.5608 3.81465C74.5608 3.60436 74.5508 3.59462 74.3303 3.59462Z" fill="white"/>
<path id="Vector_17" d="M53.2791 8.3925C52.9274 8.34577 52.5797 8.29709 52.228 8.2523C52.2112 8.25255 52.1945 8.24897 52.1793 8.24184C52.1641 8.23471 52.1507 8.22423 52.1404 8.21122C52.13 8.19821 52.1228 8.18302 52.1194 8.16684C52.116 8.15066 52.1164 8.13392 52.1207 8.11795C52.1525 7.81223 52.1823 7.50652 52.2141 7.20081C52.2817 6.53681 52.3592 5.87087 52.4128 5.20492C52.4545 4.70059 52.2896 4.22158 52.1943 3.73478C52.1907 3.71638 52.1834 3.69886 52.1729 3.68326C52.1623 3.66766 52.1486 3.65429 52.1327 3.64394C52.1168 3.6336 52.0989 3.62648 52.0801 3.62302C52.0614 3.61956 52.0421 3.61982 52.0234 3.62379C51.7373 3.65105 51.4531 3.67441 51.169 3.70362C51.02 3.7192 50.9703 3.77177 50.9862 3.91782C51.0061 4.14369 51.0299 4.36762 51.0518 4.59155C51.0887 4.83797 51.1099 5.08639 51.1154 5.33538C51.0955 6.03638 51.0538 6.73543 51.02 7.43447C51.0021 7.96801 50.9822 8.4996 50.9644 9.03313C50.9644 9.24343 50.9922 9.27459 51.2107 9.27459H52.7605C52.991 9.27459 53.2215 9.27459 53.452 9.27459C53.5911 9.27459 53.6407 9.22201 53.6228 9.09739C53.605 8.97277 53.5811 8.79752 53.5553 8.64759C53.5453 8.58081 53.5125 8.51931 53.4624 8.47301C53.4123 8.42672 53.3477 8.39836 53.2791 8.3925Z" fill="white"/>
<path id="Vector_18" d="M40.6798 8.92397C40.7037 8.08667 40.7176 7.25132 40.7374 6.29718C40.7573 5.57282 40.7792 4.73942 40.803 3.89238C40.803 3.69766 40.7454 3.62756 40.5566 3.65482C40.3161 3.69687 40.078 3.75147 39.8433 3.81839C39.7241 3.8476 39.6804 3.92159 39.6804 4.04816C39.6804 5.67213 39.6685 7.29416 39.6625 8.91618C39.6587 8.98103 39.6587 9.04605 39.6625 9.1109C39.6625 9.2141 39.7221 9.27447 39.8394 9.26862C40.0023 9.25889 40.1652 9.25694 40.3281 9.25305C40.6182 9.2511 40.6679 9.31731 40.6798 8.92397Z" fill="white"/>
<path id="Vector_19" d="M24.2682 10.5967C24.2572 10.5766 24.2416 10.5594 24.2227 10.5462C24.2037 10.533 24.1819 10.5243 24.159 10.5208C23.8649 10.5208 23.5629 10.5208 23.2768 10.5208C22.9907 10.5208 22.943 10.5402 22.8794 10.844C22.7959 11.2938 22.7284 11.7494 22.6688 12.207C22.6211 12.5575 22.6012 12.9119 22.5635 13.2644C22.5635 13.352 22.5853 13.3851 22.6747 13.3793C22.766 13.3734 22.8576 13.3734 22.9489 13.3793C23.0344 13.3793 23.0701 13.3462 23.086 13.2683C23.1019 13.1904 23.1357 13.0735 23.1596 12.9879C23.1652 12.9547 23.1827 12.9245 23.2089 12.9028C23.2351 12.881 23.2683 12.8691 23.3026 12.8691C23.547 12.8477 23.7914 12.8243 24.0378 12.8048C24.1331 12.8048 24.1749 12.8418 24.1709 12.9372C24.1669 13.0327 24.1709 13.1553 24.1709 13.2644C24.1709 13.3384 24.1987 13.3715 24.2742 13.3695C24.3855 13.3695 24.4967 13.3695 24.608 13.3695C24.6835 13.3695 24.7113 13.3403 24.7153 13.2663C24.7153 13.0911 24.7411 12.9178 24.757 12.6938C24.7514 12.4979 24.7308 12.3026 24.6954 12.1097C24.5683 11.6112 24.4173 11.0991 24.2682 10.5967ZM24.0417 12.2908L23.5569 12.3239L23.392 12.3394C23.2668 12.3394 23.241 12.3219 23.2668 12.2012C23.3245 11.9344 23.3841 11.6696 23.4417 11.4048C23.4576 11.3366 23.4735 11.2685 23.4914 11.2101C23.503 11.1676 23.529 11.1302 23.5651 11.1041C23.6011 11.0779 23.6452 11.0645 23.6901 11.066C23.7934 11.066 23.8232 11.1322 23.847 11.2081C23.9484 11.5216 24.0457 11.8371 24.149 12.1506C24.1848 12.244 24.1371 12.283 24.0417 12.2908Z" fill="white"/>
<path id="Vector_20" d="M39.2217 10.5461C39.0707 10.5461 39.0647 10.5461 39.0508 10.7C39.019 11.0329 38.9832 11.3659 38.9574 11.6989C38.9574 11.7963 38.9077 11.8294 38.8163 11.8255C38.6296 11.8255 38.4428 11.8099 38.256 11.806C38.0693 11.8021 38.0772 11.7885 38.0573 11.6268C38.0315 11.3017 37.9977 10.9765 37.9719 10.6532C37.9719 10.5734 37.9322 10.5422 37.8527 10.5481H37.5547C37.4732 10.5481 37.4454 10.5851 37.4474 10.6649C37.4474 11.1011 37.4474 11.5353 37.4474 11.9715C37.4474 12.3259 37.4474 12.6803 37.4474 13.0347C37.4474 13.3891 37.4474 13.3793 37.803 13.3832C37.9163 13.3832 37.956 13.3482 37.9679 13.2411C37.9938 13.0172 38.0315 12.7952 38.0613 12.5712C38.0613 12.5508 38.0655 12.5305 38.0738 12.5118C38.0822 12.493 38.0944 12.4761 38.1097 12.4622C38.125 12.4483 38.1431 12.4377 38.1628 12.431C38.1825 12.4243 38.2034 12.4216 38.2242 12.4233C38.4229 12.4233 38.6216 12.4018 38.8064 12.3882C38.8958 12.3882 38.9475 12.4077 38.9574 12.505C38.9852 12.7484 39.021 12.9899 39.0468 13.2352C39.0568 13.3404 39.0846 13.4027 39.2098 13.3852C39.289 13.3774 39.3689 13.3774 39.4482 13.3852C39.5555 13.3852 39.5932 13.3579 39.5912 13.2469C39.5912 12.468 39.5912 11.6892 39.5912 10.9103C39.5873 10.55 39.5873 10.55 39.2217 10.5461Z" fill="white"/>
<path id="Vector_21" d="M36.6903 10.5266C36.5274 10.5266 36.5254 10.5441 36.5174 10.7077C36.4856 11.3639 36.5353 12.024 36.3843 12.6724C36.3605 12.7659 36.3287 12.7854 36.2412 12.7678C36.0942 12.7386 35.9452 12.7114 35.7962 12.6938C35.7767 12.6936 35.7575 12.6895 35.7396 12.6819C35.7217 12.6743 35.7056 12.6633 35.6921 12.6496C35.6786 12.6358 35.668 12.6195 35.661 12.6017C35.654 12.5839 35.6506 12.5649 35.6511 12.5458C35.5677 11.9169 35.4783 11.2899 35.3928 10.6609C35.3809 10.5675 35.3372 10.5207 35.2379 10.5227C35.1631 10.5266 35.0881 10.5266 35.0133 10.5227C34.8981 10.511 34.8683 10.5597 34.8743 10.6648C34.91 11.249 34.9378 11.8526 34.9776 12.4465C34.9955 12.7133 35.0332 12.9801 35.067 13.2449C35.0679 13.2655 35.0732 13.2857 35.0825 13.3042C35.0917 13.3227 35.1048 13.3391 35.1208 13.3525C35.1368 13.3658 35.1555 13.3758 35.1757 13.3817C35.1958 13.3877 35.217 13.3895 35.2379 13.387H36.8274C36.9645 13.387 37.0161 13.3364 37.0161 13.204C37.0161 12.7756 37.0161 12.3479 37.0161 11.9208H37.04V10.844C37.038 10.5149 37.038 10.5149 36.6903 10.5266Z" fill="white"/>
<path id="Vector_22" d="M26.9804 12.579C26.9347 12.4797 26.893 12.3843 26.8453 12.2733L27.0241 12.25C27.1012 12.2461 27.1738 12.2138 27.2276 12.1597C27.2814 12.1055 27.3123 12.0334 27.3142 11.9579C27.3214 11.8763 27.3153 11.7942 27.2964 11.7145C27.203 11.3698 27.0977 11.0271 27.0043 10.6825C26.9955 10.6324 26.9671 10.5877 26.9252 10.5579C26.8832 10.528 26.831 10.5155 26.7798 10.5228C26.3128 10.5228 25.8439 10.5228 25.375 10.5228H25.2339C25.2339 10.8733 25.2339 11.2121 25.2339 11.549C25.226 12.1253 25.2154 12.7017 25.2021 13.2781C25.2021 13.3638 25.228 13.3969 25.3174 13.391C25.4068 13.3852 25.5161 13.391 25.6154 13.391C25.7148 13.391 25.7187 13.3618 25.7187 13.2878C25.7187 13.1476 25.7187 13.0074 25.7187 12.8672C25.7327 12.3337 25.7485 11.8002 25.7605 11.2686C25.7526 11.2261 25.7616 11.1823 25.7856 11.1461C25.8096 11.1099 25.8468 11.0841 25.8896 11.0739C26.0269 11.0364 26.1662 11.0065 26.3069 10.9843C26.3705 10.9843 26.4738 10.996 26.5056 11.0369C26.604 11.2002 26.6865 11.3723 26.7519 11.5509C26.8016 11.6853 26.7519 11.7456 26.6069 11.7749C26.4619 11.8041 26.3208 11.8372 26.1777 11.8664C25.9532 11.9073 25.9532 11.9073 25.9393 12.1312C25.9254 12.3551 25.9274 12.3395 26.138 12.3084C26.1696 12.2993 26.2036 12.3028 26.2326 12.3181C26.2616 12.3334 26.2833 12.3593 26.293 12.3902C26.444 12.6861 26.5996 12.9795 26.7599 13.2703C26.9188 13.5565 26.8473 13.5819 27.2328 13.4358C27.3242 13.4008 27.348 13.3638 27.3043 13.2742C27.1891 13.0464 27.0857 12.8127 26.9804 12.579Z" fill="white"/>
<path id="Vector_23" d="M33.8748 12.2673L34.0595 12.244C34.1367 12.2391 34.2092 12.2059 34.2626 12.1511C34.3159 12.0963 34.3463 12.0238 34.3476 11.948C34.3542 11.8704 34.3488 11.7923 34.3317 11.7163C34.2364 11.3677 34.1331 11.0211 34.0357 10.6726C34.026 10.6232 33.9972 10.5795 33.9554 10.5504C33.9136 10.5214 33.8619 10.5094 33.8112 10.5168C33.3303 10.5168 32.8495 10.5168 32.3687 10.5168H32.2693C32.2693 10.5849 32.2693 10.6414 32.2693 10.6998C32.2561 11.5462 32.2409 12.3946 32.2236 13.2448C32.2236 13.3441 32.2415 13.3909 32.3528 13.3792C32.4401 13.3724 32.5278 13.3724 32.6151 13.3792C32.7065 13.3792 32.7422 13.3558 32.7402 13.2604C32.7402 13.0657 32.7402 12.8554 32.7402 12.6529C32.7522 12.1875 32.77 11.7202 32.782 11.2528C32.777 11.2119 32.7876 11.1705 32.8118 11.1367C32.836 11.1029 32.8721 11.0791 32.9131 11.0698C33.0504 11.0323 33.1897 11.0024 33.3303 10.9802C33.3939 10.9802 33.4953 10.9939 33.5191 11.0367C33.6167 11.2049 33.6997 11.3807 33.7675 11.5624C33.8092 11.6773 33.7675 11.7357 33.6403 11.7572C33.5131 11.7786 33.376 11.8136 33.2429 11.8428C32.9528 11.9032 32.9548 11.9032 32.9429 12.1914C32.9419 12.1992 32.9419 12.207 32.9429 12.2148C32.9429 12.2868 32.9747 12.3258 33.0542 12.3141L33.1595 12.2965C33.1742 12.2917 33.1898 12.2898 33.2053 12.2909C33.2208 12.292 33.2359 12.2961 33.2498 12.303C33.2637 12.3099 33.276 12.3194 33.2861 12.331C33.2961 12.3426 33.3038 12.356 33.3085 12.3705C33.4661 12.6795 33.629 12.9865 33.7973 13.2916C33.9205 13.5155 33.8668 13.5759 34.2086 13.4396C34.3715 13.3733 34.3735 13.3772 34.3019 13.2176L33.8748 12.2673Z" fill="white"/>
<path id="Vector_24" d="M31.4787 12.0221C31.1171 11.7963 30.7674 11.5548 30.4157 11.3133C30.38 11.29 30.3362 11.216 30.3482 11.1985C30.3819 11.1498 30.4396 11.0875 30.4932 11.0836C30.7992 11.0505 31.1072 11.0252 31.4151 11.0135C31.7231 11.0018 31.7052 10.9356 31.7529 10.7C31.7768 10.5792 31.7529 10.5461 31.6337 10.5461C31.0992 10.5461 30.5627 10.5461 30.0263 10.5461C29.8057 10.5461 29.7084 10.6493 29.7064 10.8655C29.7044 11.0816 29.7064 11.2861 29.7064 11.4944C29.6979 11.5518 29.7089 11.6103 29.7376 11.6609C29.7663 11.7115 29.8112 11.7516 29.8653 11.7748C30.2091 11.9696 30.5449 12.1643 30.8926 12.3395C31.0197 12.4092 31.1243 12.5124 31.1946 12.6374C31.2681 12.7582 31.2363 12.8205 31.0952 12.8322C30.7634 12.8575 30.4316 12.8828 30.1018 12.9023C29.772 12.9217 29.7561 12.8828 29.7243 13.2508C29.7243 13.356 29.7441 13.391 29.8494 13.391C30.1475 13.391 30.4455 13.391 30.7436 13.391H31.6138C31.7628 13.391 31.8026 13.3521 31.8026 13.1963C31.8026 13.0016 31.8026 12.8069 31.8026 12.6004C31.8104 12.4838 31.7841 12.3674 31.7267 12.265C31.6694 12.1625 31.5833 12.0783 31.4787 12.0221Z" fill="white"/>
<path id="Vector_25" d="M21.9812 12.9821L21.5838 12.1253C21.8938 12.061 21.9812 11.8274 22.009 11.5781C22.0507 11.2783 22.0726 10.9745 22.0984 10.6746C22.0984 10.6104 22.0984 10.5422 22.001 10.5422C21.9037 10.5422 21.8024 10.5422 21.6931 10.5422C21.6295 10.5422 21.5878 10.5773 21.5977 10.6493C21.5977 10.6844 21.5977 10.7194 21.5977 10.7545C21.6403 11.0537 21.5787 11.3583 21.4229 11.619C21.403 11.6612 21.3685 11.695 21.3255 11.7144C21.1387 11.7729 20.95 11.8215 20.7552 11.8741C20.7477 11.8459 20.7417 11.8173 20.7374 11.7884C20.7533 11.399 20.7672 11.0096 20.789 10.6337C20.789 10.5481 20.789 10.5111 20.6877 10.513C20.5307 10.513 20.3718 10.513 20.2168 10.513C20.2168 10.5909 20.2287 10.6591 20.2287 10.7272C20.2287 11.5671 20.2287 12.407 20.2287 13.2469C20.2287 13.3462 20.2526 13.3929 20.3618 13.3813C20.4491 13.3744 20.5368 13.3744 20.6241 13.3813C20.7195 13.3813 20.7473 13.3462 20.7453 13.2566C20.7453 13.0269 20.7453 12.7971 20.7453 12.5693C20.7453 12.3414 20.7453 12.3551 20.944 12.2986C21.0354 12.2733 21.0771 12.2986 21.1169 12.3804C21.252 12.6744 21.3911 12.9645 21.5401 13.2547C21.7388 13.6305 21.6911 13.5877 22.0666 13.4377C22.1501 13.4046 22.154 13.3637 22.1203 13.2956C22.0785 13.1943 22.0308 13.0872 21.9812 12.9821Z" fill="white"/>
<path id="Vector_26" d="M41.5939 10.5403C41.3317 10.5403 41.0694 10.5403 40.7992 10.5403C40.6184 10.5403 40.4356 10.5617 40.2547 10.5812C40.0739 10.6006 40.066 10.6318 40.0421 10.7759C40.0243 10.8947 40.0064 11.0154 39.9965 11.1342C39.9584 11.7988 39.981 12.4655 40.064 13.1262C40.0759 13.2391 40.1296 13.282 40.2408 13.3014C40.6045 13.3666 40.9759 13.3803 41.3436 13.3423C41.7151 13.3053 41.6456 13.3793 41.6357 13.023C41.6357 12.9373 41.5999 12.9081 41.5125 12.91C41.3344 12.9198 41.156 12.9198 40.978 12.91C40.8797 12.9021 40.7839 12.8756 40.6958 12.8321C40.6381 12.804 40.5917 12.7575 40.5643 12.7002C40.5369 12.6429 40.53 12.5783 40.5448 12.5167C40.5707 12.322 40.5746 12.3122 40.7654 12.2675C40.8729 12.2398 40.9825 12.2209 41.0932 12.211C41.427 12.1818 41.4389 12.172 41.4171 11.8488C41.4171 11.7807 41.3833 11.7476 41.3158 11.7476H40.9899C40.8786 11.7476 40.7674 11.7476 40.6561 11.7476C40.6203 11.7476 40.5607 11.7222 40.5508 11.695C40.4515 11.3951 40.5786 10.9998 40.9243 10.9687L41.3217 10.9297C41.6058 10.9064 41.6039 10.9064 41.6734 10.6357C41.6992 10.5617 41.6734 10.5403 41.5939 10.5403Z" fill="white"/>
<path id="Vector_27" d="M29.0346 12.9431C28.8816 12.9275 28.7306 12.8964 28.5756 12.8808C28.4921 12.8808 28.4683 12.838 28.4782 12.7601C28.508 12.4797 28.5299 12.1954 28.5657 11.915C28.6423 11.4971 28.6301 11.0682 28.5299 10.6551C28.5041 10.5675 28.4723 10.5286 28.3769 10.5422C28.2815 10.5558 28.1623 10.5597 28.057 10.5695C27.9159 10.5812 27.9 10.5948 27.912 10.735C27.9298 10.9628 27.9716 11.1906 27.9716 11.4204C27.9716 11.7417 27.9418 12.0649 27.9259 12.394C27.9139 12.6783 27.902 12.9606 27.8921 13.2449C27.8921 13.3754 27.904 13.3949 28.0391 13.3949C28.3471 13.3949 28.657 13.3949 28.967 13.3949C29.277 13.3949 29.2472 13.4143 29.1975 13.1008C29.1965 13.059 29.1789 13.0192 29.1485 12.9897C29.1181 12.9603 29.0773 12.9436 29.0346 12.9431Z" fill="white"/>
<path id="Vector_28" d="M56.2952 6.55029H56.2296L54.6957 6.57171C54.6323 6.57456 54.5691 6.58237 54.507 6.59508C54.4694 6.60072 54.4347 6.61822 54.4081 6.64492C54.3816 6.67163 54.3647 6.70608 54.3599 6.74307C54.3341 6.87158 54.3003 7.0001 54.2646 7.13251C54.2288 7.26492 54.2367 7.3097 54.3957 7.31749H56.1442C56.321 7.31749 56.3906 7.26102 56.4243 7.07993C56.4442 6.97868 56.4541 6.87353 56.478 6.77033C56.5217 6.56198 56.5177 6.55419 56.2952 6.55029Z" fill="white"/>
<path id="Vector_29" d="M13.9582 12.9333L13.9343 12.9041L13.7356 12.9372C13.676 13.0384 13.7774 13.0326 13.8171 13.0657C13.8568 13.0988 13.8568 13.0657 13.8866 13.0481C13.8754 13.0348 13.8654 13.0205 13.8568 13.0053C13.8568 12.9917 13.8568 12.9761 13.8568 12.9839L13.9582 12.9333Z" fill="white"/>
<path id="Vector_30" d="M5.99854 3.89435L6.07205 4.01118L6.19723 3.92745L6.09192 3.83398L5.99854 3.89435Z" fill="white"/>
<path id="Vector_31" d="M6.2608 3.92749L6.17139 4.1962C6.33431 4.05795 6.35816 4.00927 6.2608 3.92749Z" fill="white"/>
<path id="Vector_32" d="M12.2173 10.2637C12.2968 10.2423 12.3762 10.3923 12.4438 10.2637C12.3186 10.1839 12.2372 10.1859 12.2173 10.2637Z" fill="white"/>
<path id="Vector_33" d="M16.5112 16.52C16.539 16.5434 16.5549 16.6154 16.6086 16.5414L16.5112 16.52Z" fill="white"/>
<path id="Vector_34" d="M8.83579 5.56519H8.85764H8.8338C8.828 5.56711 8.82172 5.56711 8.81592 5.56519V5.6275L8.85963 5.59245L8.83579 5.56519Z" fill="white"/>
<path id="Vector_35" d="M8.83368 5.6742L8.81183 5.63525H8.79395L8.83368 5.6742Z" fill="white"/>
<path id="Vector_36" d="M8.71875 5.62756H8.78432L8.75849 5.58472L8.71875 5.62756Z" fill="white"/>
<path id="Vector_37" d="M9.99633 7.23193H9.99023L9.99227 7.23838L9.99633 7.23193Z" fill="white"/>
<path id="Vector_38" d="M6.99777 11.9714V11.9861C6.99684 11.9813 6.99684 11.9763 6.99777 11.9714Z" fill="white"/>
<path id="Vector_39" d="M6.98787 12.0284L6.99194 12.022H6.98584L6.98787 12.0284Z" fill="white"/>
<path id="Vector_40" d="M8.00539 12.9041H7.97559L8.0034 12.9313V12.9079L8.00539 12.9041Z" fill="white"/>
<path id="Vector_41" d="M7.12517 2.17303H7.13709V2.15161H7.11523L7.12517 2.17303Z" fill="white"/>
<path id="Vector_42" d="M6.9979 2.26266C6.99685 2.26088 6.9963 2.25887 6.9963 2.25682C6.9963 2.25477 6.99685 2.25275 6.9979 2.25098H6.97803V2.27045L6.9979 2.26266Z" fill="white"/>
<path id="Vector_43" d="M16.631 16.4469L16.6104 16.4326V16.451L16.631 16.4469Z" fill="white"/>
<path id="Vector_44" d="M4.5718 16.098L4.57775 16.0918L4.56982 16.098H4.5718Z" fill="white"/>
</g>
<defs>
<clipPath id="clip0_270_357">
<rect width="92" height="18" fill="white"/>
</clipPath>
</defs>
</svg>
