<svg width="51" height="50" viewBox="0 0 51 50" fill="none" xmlns="http://www.w3.org/2000/svg">
<g id="logo-walaarzneimittel 1" clip-path="url(#clip0_270_439)">
<g id="Ebene 2">
<g id="Ebene 1">
<path id="Vector" d="M31.9093 31.3884C31.7677 31.9541 31.6898 32.5339 31.677 33.1169C31.7394 34.3145 32.026 35.4896 32.5217 36.581C33.1112 37.8999 33.4411 39.3205 33.4931 40.7647C33.4912 41.8076 33.2816 42.8396 32.8767 43.8003C32.4717 44.761 31.8796 45.631 31.1349 46.3595C29.6399 47.8536 27.6148 48.6926 25.5035 48.6926C23.3922 48.6926 21.367 47.8536 19.872 46.3595C19.1273 45.631 18.5352 44.761 18.1303 43.8003C17.7253 42.8396 17.5158 41.8076 17.5138 40.7647C17.5659 39.3205 17.8957 37.8999 18.4853 36.581C18.9811 35.4896 19.2677 34.3145 19.33 33.1169C19.3227 32.532 19.2495 31.9498 19.1118 31.3813H18.0559C18.2748 32.4699 18.2143 33.5963 17.8799 34.6549C17.3308 36.5881 16.1904 38.1331 16.1904 40.7718C16.1904 43.2398 17.1687 45.6068 18.9099 47.352C20.6512 49.0971 23.0128 50.0776 25.4753 50.0776C27.9378 50.0776 30.2995 49.0971 32.0407 47.352C33.782 45.6068 34.7602 43.2398 34.7602 40.7718C34.7602 38.1402 33.648 36.5951 33.113 34.662C32.7786 33.6034 32.718 32.4769 32.937 31.3884H31.9093Z" fill="white"/>
<path id="Vector_2" d="M29.713 32.7642C29.6418 33.4692 29.6608 34.1805 29.7693 34.8807C29.9215 35.6407 30.1576 36.3813 30.4733 37.089C31.0321 38.2414 31.3438 39.4983 31.3884 40.7788C31.3675 42.3007 30.7624 43.7561 29.6989 44.8426C29.154 45.4155 28.4986 45.8716 27.7726 46.1832C27.0466 46.4948 26.2651 46.6554 25.4753 46.6554C24.6856 46.6554 23.904 46.4948 23.178 46.1832C22.452 45.8716 21.7967 45.4155 21.2517 44.8426C20.1882 43.7561 19.5832 42.3007 19.5623 40.7788C19.6068 39.4983 19.9186 38.2414 20.4774 37.089C20.793 36.3813 21.0291 35.6407 21.1813 34.8807C21.2902 34.1805 21.3091 33.4692 21.2376 32.7642H20.1817C20.2781 33.8219 20.1162 34.8873 19.7101 35.8684C19.1822 37.5052 18.3022 38.9586 18.3022 40.7718C18.3525 42.6643 19.1279 44.4647 20.4675 45.7994C21.807 47.1341 23.608 47.9006 25.4964 47.9398C27.3849 47.9006 29.1859 47.1341 30.5254 45.7994C31.865 44.4647 32.6404 42.6643 32.6907 40.7718C32.6907 38.9657 31.8178 37.5052 31.2406 35.8755C30.8371 34.8937 30.6777 33.8284 30.776 32.7712L29.713 32.7642Z" fill="white"/>
<path id="Vector_3" d="M27.7772 34.1895C27.7375 35.0011 27.8424 35.8134 28.0869 36.5882C28.2173 37.0083 28.3773 37.4185 28.5656 37.8158C29.0448 38.7312 29.3209 39.7396 29.3751 40.7719C29.359 41.7799 28.9644 42.7447 28.27 43.4741C27.9195 43.8628 27.4916 44.1736 27.0139 44.3862C26.5361 44.5989 26.0192 44.7088 25.4965 44.7088C24.9737 44.7088 24.4568 44.5989 23.9791 44.3862C23.5013 44.1736 23.0734 43.8628 22.723 43.4741C22.0286 42.7447 21.634 41.7799 21.6178 40.7719C21.672 39.7396 21.9482 38.7312 22.4273 37.8158C22.6157 37.4185 22.7756 37.0083 22.906 36.5882C23.1505 35.8134 23.2554 35.0011 23.2157 34.1895H22.1809C22.1703 34.8747 22.0491 35.5537 21.8219 36.2002C21.294 37.717 20.4141 39.0999 20.4141 40.7719C20.4141 42.1229 20.9495 43.4185 21.9027 44.3738C22.8558 45.3291 24.1485 45.8658 25.4965 45.8658C26.8444 45.8658 28.1371 45.3291 29.0903 44.3738C30.0434 43.4185 30.5789 42.1229 30.5789 40.7719C30.5789 39.1069 29.6778 37.717 29.171 36.2002C28.951 35.5526 28.8369 34.8736 28.8331 34.1895H27.7772Z" fill="white"/>
<path id="Vector_4" d="M25.4966 43.5727C24.9619 43.5727 24.4393 43.4138 23.9948 43.1161C23.5503 42.8184 23.2038 42.3953 22.9992 41.9002C22.7946 41.4052 22.7411 40.8605 22.8454 40.3349C22.9497 39.8094 23.2071 39.3267 23.5852 38.9478C23.9632 38.5689 24.4449 38.3109 24.9692 38.2064C25.4936 38.1018 26.0371 38.1555 26.531 38.3605C27.0249 38.5656 27.4471 38.9128 27.7441 39.3583C28.0411 39.8039 28.1997 40.3277 28.1997 40.8635C28.1997 41.582 27.9149 42.2711 27.4079 42.7792C26.901 43.2872 26.2135 43.5727 25.4966 43.5727Z" fill="white"/>
<path id="Vector_5" d="M16.1905 0.112883L14.5151 9.12939L11.6783 0.112883H10.2282L7.41245 9.12234L5.70893 0.112883H4.22363L6.33543 11.4012H8.16566L10.9392 2.53281L13.7549 11.4012H15.5851L17.6969 0.112883H16.1905ZM22.9764 1.52392L24.5392 6.83646H21.3151L22.9764 1.52392ZM21.9628 0L18.0771 11.4082H19.8369L20.9421 8.15578H25.0178L26.1371 11.4082H27.8758L23.9901 0H21.9628ZM29.4949 0V11.4082H35.5135V10.0818H31.1491V0H29.4949ZM41.8771 1.51686L43.4398 6.82941H40.2299L41.8771 1.51686ZM40.8704 0L36.9918 11.4082H38.7164L39.8216 8.15578H43.9255L45.0518 11.4082H46.7976L42.9048 0H40.8704Z" fill="white"/>
<path id="Vector_6" d="M51 14.8936H50.2961V22.0757H51V14.8936ZM45.9458 18.5411C45.9739 18.2798 46.0986 18.0386 46.2953 17.8649C46.4921 17.6912 46.7466 17.5977 47.0087 17.6027C47.1345 17.5969 47.2601 17.617 47.3779 17.6618C47.4957 17.7065 47.603 17.7749 47.6934 17.8629C47.7837 17.9508 47.8552 18.0563 47.9033 18.1729C47.9514 18.2896 47.9751 18.4149 47.9731 18.5411H45.9458ZM48.6841 21.469C48.3601 21.5549 48.0266 21.5999 47.6915 21.603C46.4526 21.603 45.8965 20.5095 45.8965 19.423V19.1337H48.8037V18.8938C48.8341 18.6495 48.8104 18.4014 48.7345 18.1672C48.6585 17.9331 48.5321 17.7185 48.3642 17.5387C48.1962 17.359 47.9909 17.2185 47.7627 17.1271C47.5346 17.0357 47.2892 16.9958 47.0439 17.0101C45.5586 17.0101 45.0729 18.146 45.0729 19.4371C45.0729 21.0527 45.7768 22.1957 47.5296 22.1957C47.9196 22.204 48.3087 22.1541 48.6841 22.0475V21.469ZM44.1578 21.5113C44.0048 21.5782 43.8388 21.6096 43.6721 21.603C43.5585 21.625 43.4413 21.6187 43.3308 21.5845C43.2204 21.5503 43.12 21.4894 43.0386 21.4071C42.9571 21.3248 42.8972 21.2237 42.864 21.1126C42.8309 21.0016 42.8255 20.8841 42.8484 20.7705V17.7156H44.207V17.123H42.8344V15.5215L42.1304 15.9659V17.123H41.2857V17.7156H42.1093V20.9187C42.1093 21.8852 42.5528 22.2027 43.5172 22.2027C43.7293 22.2017 43.941 22.1852 44.1507 22.1533L44.1578 21.5113ZM40.5184 21.5113C40.3655 21.5782 40.1995 21.6096 40.0327 21.603C39.9187 21.6264 39.8006 21.621 39.6892 21.5875C39.5777 21.5539 39.4763 21.4932 39.394 21.4107C39.3117 21.3282 39.2511 21.2265 39.2176 21.1148C39.1841 21.0031 39.1788 20.8848 39.2021 20.7705V17.7156H40.5607V17.123H39.195V15.5215L38.4911 15.9659V17.123H37.6534V17.7156H38.4841V20.9187C38.4841 21.8852 38.9275 22.2027 39.8919 22.2027C40.104 22.2017 40.3158 22.1852 40.5255 22.1533L40.5184 21.5113ZM36.2526 17.123H35.5487V22.0616H36.2526V17.123ZM36.3723 14.8936H35.4149V15.8319H36.3652L36.3723 14.8936ZM33.6621 22.0757V18.5481C33.6621 17.765 33.2609 17.0172 32.3669 17.0172C32.0422 17.0317 31.7305 17.1497 31.4773 17.354C31.2241 17.5583 31.0426 17.8382 30.959 18.153C30.9603 17.9912 30.927 17.831 30.8615 17.6831C30.7959 17.5352 30.6996 17.4031 30.5789 17.2955C30.4583 17.188 30.3161 17.1075 30.1619 17.0595C30.0077 17.0115 29.8451 16.9971 29.6849 17.0172C29.3368 17.015 29.0004 17.1422 28.7404 17.3741C28.4804 17.606 28.3153 17.9263 28.277 18.273V17.123H27.5731V22.0616H28.277V20.0368C28.277 19.3313 28.629 17.7156 29.5371 17.7156C30.4451 17.7156 30.2762 18.781 30.2762 19.3313V22.0828H30.9801V20.0368C30.9801 19.3313 31.311 17.7156 32.2402 17.7156C33.0567 17.7156 32.9793 18.781 32.9793 19.3313V22.0828L33.6621 22.0757ZM25.6232 17.1371H24.9193V22.0757H25.6232V17.1371ZM25.7429 14.9077H24.7925V15.846H25.7429V14.9077ZM20.5689 18.5552C20.5955 18.2933 20.7197 18.0511 20.9168 17.8771C21.1139 17.7031 21.3693 17.6102 21.6319 17.6168C21.7577 17.6111 21.8833 17.6311 22.0011 17.6759C22.1189 17.7206 22.2262 17.789 22.3166 17.877C22.4069 17.9649 22.4784 18.0704 22.5265 18.1871C22.5746 18.3037 22.5983 18.429 22.5963 18.5552H20.5689ZM23.3072 21.4831C22.9833 21.569 22.6498 21.614 22.3147 21.6171C21.0758 21.6171 20.5197 20.5236 20.5197 19.4371V19.1478H23.4269V18.9079C23.4573 18.6636 23.4336 18.4155 23.3577 18.1813C23.2817 17.9472 23.1553 17.7326 22.9873 17.5529C22.8194 17.3731 22.6141 17.2326 22.3859 17.1412C22.1578 17.0499 21.9124 17.0099 21.6671 17.0242C20.1818 17.0242 19.6961 18.1601 19.6961 19.4512C19.6961 21.0668 20.4 22.2098 22.1528 22.2098C22.5428 22.2181 22.9319 22.1682 23.3072 22.0616V21.4831ZM18.2389 22.0969V18.5693C18.2636 18.3819 18.2488 18.1913 18.1956 18.0099C18.1424 17.8285 18.0518 17.6603 17.9298 17.5161C17.8078 17.3719 17.6571 17.2549 17.4872 17.1726C17.3174 17.0903 17.1322 17.0446 16.9437 17.0383C16.5738 17.0246 16.2111 17.1435 15.9208 17.3736C15.6305 17.6038 15.4316 17.9302 15.3598 18.2941V17.123H14.6559V22.0616H15.3598V20.0368C15.3598 19.2678 15.7822 17.7156 16.7677 17.7156C17.6054 17.7156 17.5068 18.781 17.5068 19.3313V22.0828L18.2389 22.0969ZM13.3114 22.0969V21.5042H10.559L13.1847 17.7438V17.1442H9.85507V17.7368H12.3188L9.67909 21.5184V22.0969H13.3114ZM7.48986 22.0969V20.0227C7.48986 18.9503 7.8911 17.765 9.20041 17.765V17.0031C8.84178 16.9794 8.48492 17.0705 8.18128 17.2632C7.87764 17.456 7.64293 17.7404 7.51097 18.0754V17.123H6.80704V22.0616L7.48986 22.0969ZM3.97019 19.2043H1.75983L2.82981 15.6767L3.97019 19.2043ZM5.75114 22.0969L3.33665 14.8936H2.33002L0 22.0757H0.823602L1.52754 19.8533H4.13209L4.83602 22.0757L5.75114 22.0969Z" fill="white"/>
</g>
</g>
</g>
<defs>
<clipPath id="clip0_270_439">
<rect width="51" height="50" fill="white"/>
</clipPath>
</defs>
</svg>
